<?xml version="1.0" encoding="utf-8"?>
<!-- Generator: Adobe Illustrator 24.1.3, SVG Export Plug-In . SVG Version: 6.00 Build 0)  -->
<svg version="1.1" xmlns="http://www.w3.org/2000/svg" xmlns:xlink="http://www.w3.org/1999/xlink" x="0px" y="0px"
	 viewBox="0 0 874.9 370.3" style="enable-background:new 0 0 874.9 370.3;" xml:space="preserve">
<style type="text/css">
	.st0{stroke:#000000;stroke-width:12;stroke-linejoin:round;stroke-miterlimit:10;}
	.st1{fill:#B6932F;}
	.st2{fill-rule:evenodd;clip-rule:evenodd;fill:none;}
	.st3{display:none;fill:#FFFFFF;stroke:#000000;stroke-width:7;stroke-miterlimit:10;}
	.st4{font-family:'BillyTheFlyingRobotUCBBW00';}
	.st5{font-size:155px;}
	.st6{fill:#FFFFFF;}
	.st7{display:none;}
	.st8{display:inline;fill-rule:evenodd;clip-rule:evenodd;fill:#0E133B;}
	.st9{display:inline;fill-rule:evenodd;clip-rule:evenodd;fill:#FFFFFF;}
	.st10{fill-rule:evenodd;clip-rule:evenodd;fill:#FFFFFF;}
</style>
<g id="Layer_5">
	<g>
		<path d="M444.1,361c-0.6,0-1.2,0-1.8,0c-21.8-1-47.3-6.6-50.6-41.4c-0.7-7.6-0.8-16.4-0.2-26.3c0,0-0.8,0.4-0.8,0.4
			c-0.1,0.1-0.3,0.1-0.4,0.2c-0.5,0.2-0.9,0.4-1.2,0.5c-0.1,0-0.2,0.1-0.3,0.1c-0.1,0-0.2,0.1-0.3,0.1c-0.6,0.2-1.3,0.3-1.9,0.3
			c-0.1,0-0.3,0-0.4,0l-32.6-2.4l-0.4,0.1c-20.5,3.3-21.7,3.4-40.3,3.8c-0.3,0-0.7,0-1.1,0c-1.7,0-3.7-0.1-6-0.2
			c-0.5,0-1.9-0.1-1.9-0.1c-0.4,0-0.9-0.1-1.4-0.1l-0.8-0.1c-0.6,0-1.1-0.1-1.7-0.1c-3-0.3-6-0.5-8.8-0.8l-1.5-0.2
			c-3.9-0.4-8.3-0.9-12.9-1.5c0,0-1.8-0.2-2.3-0.3c-4.7-0.6-9.9-1.3-16.3-2.2c0,0-2.9-0.4-2.9-0.4l-6.7-1c0,0-3.1-0.5-3.1-0.5
			c-0.1,0-0.2,0-0.4,0c-0.8-0.1-1.6-0.2-2.3-0.3l-2.8-0.4c-2-0.3-4-0.6-6-0.9c-0.8-0.1-1.6-0.2-2.3-0.4l-0.8-0.1
			c-3.8-0.6-7.5-1.1-10.9-1.7c-17.5,9.4-36.5,14.6-53.7,14.6c-2.1,0-4.1-0.1-6.2-0.2c-24.5-1.8-43.5-13.2-52.7-31.6
			c-3.7-0.7-16.7-3.3-16.7-3.3c-2.9-0.6-5.3-2.5-6.5-5c-0.2-0.1-1.1-0.3-1.1-0.3c-0.2-0.1-0.6-0.1-0.9-0.2c0,0-1.3-0.3-1.4-0.3
			l-6.1-1.5c-0.5-0.1-1-0.3-1.5-0.4c-0.4-0.1-0.8-0.2-1.2-0.3l-2.7-0.7c-0.9-0.2-1.9-0.5-2.8-0.7c-0.1,0-0.3-0.1-0.3-0.1
			c-0.8-0.2-1.7-0.4-2.5-0.6c-0.1,0-0.3-0.1-0.4-0.1l-3.7-0.9c-0.5-0.1-0.9-0.2-1.4-0.4C57,252.8,50,251,50,251l-2.3-0.6
			c-0.1,0-0.3-0.1-0.4-0.1c-1.3-0.3-2.5-0.6-3.7-0.9l-1.3-0.3c-1.3-0.3-2.5-0.6-3.7-1c-0.5-0.1-1.1-0.3-1.7-0.4
			c-3.2-0.8-6.1-1.5-8.5-2.2c-0.6-0.2-1.1-0.3-1.7-0.4c-1.5-0.4-2.7-0.7-3.5-0.9l-1.1-0.3c-0.2,0-0.4-0.1-0.6-0.2c0,0,0,0,0,0
			c-1.7-0.5-3.2-1.5-4.2-2.8c-0.1,0-0.4-0.2-0.5-0.2c-0.3-0.1-0.6-0.3-0.9-0.4c-0.2-0.1-0.5-0.2-0.7-0.4c-0.3-0.2-0.5-0.3-0.8-0.5
			c-0.3-0.2-0.5-0.3-0.7-0.5c-0.1,0-0.1-0.1-0.2-0.1c-0.2-0.2-0.4-0.3-0.6-0.5c-0.1-0.1-0.1-0.1-0.2-0.2c-0.7-0.7-1.2-1.4-1.5-2.1
			c-0.7-1.3-1.3-3.3-1.5-9.1c0-0.2,0-0.3,0-0.5c0-0.5,0-1,0-1.5c0-0.1-0.1-0.2-0.1-0.2c0-0.1-0.1-0.2-0.1-0.3c0,0,0-0.1,0-0.1
			c-0.1-0.2-0.2-0.6-0.3-1c0-0.2-0.1-0.5-0.1-0.8c0-0.2,0-0.5,0-0.7c0-0.7,0.1-1.3,0.2-2l0.3-5.9c0-2.4,0.7-7,1.8-9.1
			c0,0,0-0.1,0.1-0.1c0.2-0.5,0.5-0.8,0.6-0.9c0.2-0.3,0.5-0.6,0.7-0.8c0.2-0.2,0.4-0.3,0.6-0.5c0.5-0.4,1-0.7,1.6-1
			c0.4-0.2,0.8-0.3,1-0.4c0.1,0,0.2-0.1,0.3-0.1c0.1,0,0.3-0.1,0.4-0.1c0.7-0.2,1.4-0.4,2.1-0.5c1.1-1.1,2.8-2.3,4.9-2.9
			c1.8-0.5,7.8-1.3,11.7-1.9c0.2-0.4,0.4-0.8,0.7-1.2c0.7-1.1,1.6-2.1,2.8-2.9c0.3-0.2,0.6-0.4,0.9-0.5c0.1,0,0.6-0.3,1.2-0.5
			c0.1,0,0.1,0,0.2-0.1c0.5-0.4,1.3-1,2-1.5l5.2-24c0.1-0.3,0.1-0.5,0.2-0.8l8.8-23.8c-0.7-1.4-0.8-3.1-0.2-4.7l0.7-2.1
			c0.4-1.1,1.1-2.2,2-2.9c0,0,0.2-0.1,0.2-0.1c0.5-1,1.2-1.8,1.9-2.6c0.2-0.2,0.5-0.4,0.7-0.7c0.1,0,0.1-0.1,0.2-0.1
			c0.3-0.3,0.7-0.5,1.1-0.7c0,0,0.1-0.1,0.1-0.1c0.3-0.2,0.6-0.3,0.9-0.4c0.1,0,0.2-0.1,0.3-0.1c0.1,0,0.4-0.1,0.8-0.2
			c5.5-1.5,50.1-9.9,86.6-13.7c38.9-4.1,122.9-10.1,137.1-11c3.3-0.2,6.5-0.8,9.3-1.6c6.5-2,9.4-5,9.8-5.4c0.2-0.2,0.2-0.3,0.5-0.5
			l3.6-3.5l15.2-14.6c54.3-52.2,55.9-53.2,56.9-53.9c0.7-0.5,1.5-0.8,2.6-1.2c7-2.2,34.5-6.1,50.9-6.7c11-0.4,32.2-1,55.9-1
			c24.2,0,45.6,0.5,63.8,1.6c46.4,2.7,88,7.2,123.7,13.5c23,4,38.7,8.6,47.8,11.8l0.7,0.3c0.4,0.2,0.8,0.3,1.2,0.4
			c0.8,0.3,1.6,0.6,2.4,0.9c0,0,1.3,0.5,1.4,0.5c0,0,1.2,0.5,1.3,0.5c0.3,0.1,0.6,0.2,0.8,0.3c0.1,0,0.5,0.2,0.6,0.3
			c0.1,0.1,0.3,0.1,0.4,0.2l0.2,0.1l-0.1,0c0.2,0.1,0.4,0.2,0.6,0.3c0.1,0,0.1,0.1,0.2,0.1c0.2,0.1,0.3,0.2,0.5,0.3
			c0.5,0.3,1,0.7,1.5,1.2c0.3,0.2,0.5,0.4,0.6,0.6c0.5,0.5,0.5,0.5,12.8,19.1c11.4,17.2,30.2,45.6,32.8,49.2c0,0,0.1,0.1,0.1,0.1
			c2.5,0.6,8.5,1.5,13.9,2.4c4.7,0.8,10,1.6,15.1,2.5c7.7,1.4,14.9,3,20.3,4.7c3.6,1.1,6.5,2.2,8.4,3.3c0.3,0.2,0.5,0.3,0.7,0.4
			c0,0,0.2,0.1,0.3,0.2c0.2,0.1,0.3,0.2,0.5,0.3c0.2,0.1,0.4,0.3,0.6,0.4c0.4,0.3,0.8,0.7,1.1,1c3.6,3.8,3.7,10.1,3.8,16.1
			c0,0.9,0,1.7,0.1,2.5c0.2,6.5-4.1,23.3-6.3,30.8c0.8,0.4,2,0.9,3.2,1.4c1.6,0.6,3.3,1.1,4.5,1.5c1.1,0.3,1.7,0.5,2.2,0.7
			c1.2,0.5,2.1,1.3,2.8,2.1c3.2,1.6,4.2,3.3,4.7,4.7c0.4,1.2,0.5,1.4,0,10.9c0,0.1,0,0.1,0,0.2c-0.1,1.4-0.2,2.6-0.3,3.5
			c-0.9,7.4-4.4,9.6-7.1,10.2l-0.8,0.2c-2.3,0.5-7.6,1.6-12.6,2.4c-1.6,0.3-3.2,0.4-4.8,0.4c0,0,0,0,0,0c-2.3,0-4.3-0.3-5.9-0.5
			c-1.1-0.1-2.1-0.3-2.8-0.3l-0.1,0c-0.8,0-1.7,0.1-2.5,0.1c-0.5,0.7-1,1.5-1.6,2.3c-0.3,0.5-0.7,1-1,1.5c-0.5,0.8-1.1,1.5-1.7,2.3
			c-0.6,0.8-1.2,1.6-1.8,2.5c-0.4,0.6-0.9,1.2-1.4,1.8c0,0-0.3,0.4-0.4,0.5c-0.1,0.2-0.2,0.3-0.4,0.5l-3.7,4.1
			c-0.3,2.9-0.7,8.7-0.3,14.1l0,0.6c0.4,5.2,0.6,8.7-2,11.5c-2.5,2.6-5.8,2.6-7.2,2.6c-0.8,0-1.6,0-2.7-0.1
			c-3.3-0.2-14.3-2.2-21.2-3.5c-4.2,12.9-6.4,17.5-14.1,24.5c-0.2,0.2-0.4,0.3-0.6,0.5c-0.7,0.5-1.4,0.9-2.1,1.3
			c-3.4,1.9-10.8,5.1-21.9,5.1c-1.2,0-2.4,0-3.7-0.1c-15.6-1-25.4-10.5-29.7-29.1c-11.5,1.8-73.6,12.8-166.4,29.4
			c0.6,3.1,1,6.3,1.4,9.5c1.2,11,1.7,16-1.4,20c-2.5,3.2-6.7,4.8-12.5,4.8c-10.1,0-24.8-5-33.2-8.2l-15.8,26
			C480.7,340.8,467.4,361,444.1,361z"/>
		<path d="M494.6,18.4c20.3,0,42.9,0.4,63.4,1.6c45.6,2.6,87.1,7.1,123,13.4c22.5,3.9,38,8.5,46.9,11.5c0.7,0.2,1.3,0.4,1.9,0.7
			c1,0.4,1.9,0.7,2.7,1c0.3,0.1,0.6,0.2,0.9,0.3c0,0,0,0,0,0c0.4,0.2,0.8,0.3,1.1,0.5c0.4,0.2,0.7,0.3,0.9,0.4
			c0.2,0.1,0.3,0.2,0.5,0.2h0c0.1,0,0.1,0.1,0.2,0.1c0.1,0.1,0.3,0.1,0.4,0.2c0,0,0.1,0.1,0.1,0.1c0.1,0,0.2,0.1,0.2,0.1h0
			c0.2,0.1,0.4,0.3,0.7,0.5c0.1,0.1,0.2,0.2,0.3,0.3c0.3,0.4,44.6,67.5,45.4,68.2c0,0,0.1,0.1,0.1,0.1c0,0,0.1,0.1,0.1,0.1
			c0.1,0.1,0.1,0.1,0.2,0.2c0.2,0.2,0.5,0.6,0.9,0.9h0c1,0.8,17.1,3.1,31.2,5.6c7.5,1.3,14.5,3,19.7,4.5c3.2,1,5.7,1.9,7.3,2.8
			c0.2,0.1,0.4,0.2,0.6,0.4c0.2,0.1,0.4,0.2,0.5,0.3h0c0.2,0.2,0.4,0.3,0.5,0.5c2.4,2.5,2.1,9.4,2.3,14.8c0.2,5.4-4.1,22.6-6.5,30.6
			c-0.3,1-0.3,2.1-0.3,2.1h0v0c0.1,0.1,2,1.4,2.3,2.5c0,0,2.5,1.3,5.3,2.4c2.8,1.1,5.9,1.8,6.4,2.1c1,0.4,1.1,1.4,1.1,1.4
			s2.9,1,3.2,1.9c0.1,0.3-0.3,8.6-0.3,8.6c-0.1,1.3-0.2,2.5-0.3,3.3c-0.4,3.3-1.3,4.7-2.4,5c-1.1,0.2-7.4,1.6-13.1,2.5
			c-1.4,0.2-2.7,0.3-3.8,0.3c-3.5,0-6.2-0.8-8.7-0.8c-0.1,0-0.2,0-0.3,0c-2.1,0.1-4.4,0.3-5.8,0.5c0,0,0,0,0,0c0,0,0,0.1-0.1,0.1
			c-0.5,0.8-1.6,2.5-3,4.5c-0.3,0.4-0.6,0.9-1,1.4c-0.5,0.7-1.1,1.5-1.6,2.2c-0.6,0.8-1.2,1.6-1.8,2.3c-0.4,0.6-0.9,1.2-1.3,1.7
			c0,0,0,0,0,0.1c-0.1,0.1-0.1,0.2-0.2,0.3c-0.1,0.1-0.2,0.2-0.2,0.3h0l-5,5.5c0,0-1.1,8.8-0.6,17.1c0.5,7.1,0.7,8.3-3.2,8.3
			c-0.7,0-1.4,0-2.3-0.1c-4.3-0.2-25.6-4.4-25.6-4.4c-5.2,16.5-6.6,20.1-14.1,26.9c-0.5,0.4-1,0.7-1.5,1c-2.7,1.6-9.1,4.4-19,4.4
			c-1.1,0-2.2,0-3.3-0.1c-14.6-0.9-22.1-10.5-25.2-29.5c-1.4,0.1-2.6,0.1-3.6,0.2c-3.5,0.2-161.8,28.5-174,30.7
			c-0.1,0-0.2,0-0.3,0.1c-0.1,0-0.2,0-0.2,0c-0.1,0-0.1,0-0.2,0c0,0,0,0-0.1,0c0,0,0,0,0,0c0,0,0,0,0,0c0,0,0,0,0,0
			c0.8,3.4,1.8,8.6,2.5,15c1,9,1.5,13.5-0.2,15.6c-1.4,1.8-4.2,2.5-7.8,2.5c-12,0-32.3-8.3-35.7-9.7c-6.1,10-12.2,20.1-18.3,30.1
			c0,0,0,0,0,0S464.4,355,444.1,355c-0.5,0-1,0-1.5,0c-21.6-1-42.1-6.2-44.9-36c-1.2-12.7-0.4-27.1,1.1-39.8h-0.2
			c-0.3,0.5-0.7,0.9-1,1.3c-0.1,0.2-0.3,0.4-0.4,0.6c-0.6,0.7-1.2,1.4-1.8,2c0,0,0,0,0,0c-0.7,0.7-1.5,1.4-2.2,2c0,0,0,0-0.1,0.1
			c-0.2,0.1-0.3,0.3-0.5,0.4c-0.3,0.2-0.6,0.5-0.9,0.7c-0.6,0.4-1.2,0.8-1.7,1.1c-0.1,0.1-0.3,0.2-0.4,0.2c0,0-0.1,0-0.1,0.1
			c-0.2,0.1-0.4,0.2-0.6,0.3c-0.2,0.1-0.4,0.2-0.6,0.3c-0.1,0-0.2,0.1-0.3,0.1c0,0-0.1,0-0.1,0c-0.4,0.2-0.7,0.3-0.9,0.4
			c-0.1,0-0.1,0-0.1,0.1c0,0-0.1,0-0.1,0c0,0-0.1,0-0.1,0c0,0,0,0,0,0c0,0,0,0,0,0l-33.3-2.5c-21.6,3.4-22.1,3.6-40.5,3.9
			c-0.3,0-0.6,0-1,0c-1.6,0-3.5-0.1-5.7-0.2c-0.6,0-1.2-0.1-1.8-0.1c-0.5,0-1.1-0.1-1.7-0.1c-0.7-0.1-1.4-0.1-2.2-0.2
			c-2.7-0.2-5.6-0.5-8.7-0.8c-0.5-0.1-1-0.1-1.5-0.2c-4-0.4-8.3-0.9-12.8-1.5c-0.8-0.1-1.5-0.2-2.3-0.3c-5.3-0.7-10.7-1.4-16.2-2.2
			c-1-0.1-1.9-0.3-2.9-0.4c-0.9-0.1-1.7-0.2-2.6-0.4c-0.8-0.1-1.6-0.2-2.4-0.3c-0.6-0.1-1.1-0.2-1.7-0.2c-1-0.2-2.1-0.3-3.1-0.4
			c-0.1,0-0.3,0-0.4-0.1c-0.9-0.1-1.7-0.3-2.6-0.4c-2.9-0.4-5.7-0.8-8.5-1.3c-1-0.2-2.1-0.3-3.1-0.5c-4.6-0.7-8.9-1.4-12.9-2
			c-16,9-34.6,14.9-52.7,14.9c-1.9,0-3.8-0.1-5.7-0.2c-24.3-1.7-41.6-13.7-48.9-31c-6.7-1.3-13.2-2.6-19.8-3.9
			c-1.5-0.3-2.7-1.7-2.6-3.1c0-0.3,0-0.6,0-0.9c-0.5-0.1-1-0.3-1.6-0.4c-0.1,0-0.1,0-0.2,0c-0.5-0.1-0.9-0.2-1.4-0.4
			c-0.5-0.1-1-0.3-1.5-0.4c-0.4-0.1-0.8-0.2-1.1-0.3c-0.4-0.1-0.8-0.2-1.2-0.3c-0.4-0.1-0.8-0.2-1.2-0.3c-1.4-0.4-2.9-0.7-4.4-1.1
			c-0.7-0.2-1.3-0.3-2-0.5c-0.5-0.1-0.9-0.2-1.4-0.3c-0.6-0.1-1.1-0.3-1.7-0.4c-1.3-0.3-2.6-0.7-3.9-1c0,0,0,0-0.1,0
			c-0.9-0.2-1.8-0.5-2.7-0.7c0,0-0.1,0-0.1,0c-1.3-0.3-2.6-0.7-3.9-1c-0.5-0.1-0.9-0.2-1.4-0.3c-1.8-0.4-3.6-0.9-5.4-1.4
			c-1.8-0.4-3.5-0.9-5.3-1.3c0,0-0.1,0-0.1,0c-1.3-0.3-2.6-0.7-3.9-1c-1.7-0.4-3.3-0.8-4.9-1.2c-0.6-0.1-1.1-0.3-1.7-0.4
			c-3.2-0.8-6.1-1.6-8.5-2.2c-0.6-0.2-1.2-0.3-1.7-0.4c-1.4-0.4-2.6-0.7-3.5-0.9c-0.2-0.1-0.5-0.1-0.7-0.2c0,0-0.1,0-0.1,0
			c-0.2-0.1-0.4-0.1-0.5-0.1c0,0,0,0-0.1,0c-0.1,0-0.2-0.1-0.3-0.1c-1.8-0.5-1.4-1.8-1.4-1.8s0,0,0,0c0,0,0,0,0,0c0,0-0.1,0-0.2,0
			c0,0-0.1,0-0.1,0c0,0-0.1,0-0.1,0c-0.1,0-0.3-0.1-0.4-0.1c-0.1,0-0.2-0.1-0.3-0.1c0,0,0,0,0,0c-0.1,0-0.3-0.1-0.4-0.1
			c-0.1,0-0.1-0.1-0.2-0.1c-0.1-0.1-0.3-0.1-0.4-0.2c-0.1-0.1-0.3-0.1-0.4-0.2c-0.2-0.1-0.3-0.1-0.5-0.2c-0.2-0.1-0.3-0.2-0.4-0.2
			c-0.1-0.1-0.3-0.2-0.4-0.3c-0.1-0.1-0.3-0.2-0.4-0.3c-0.1-0.1-0.2-0.2-0.3-0.3c-0.2-0.2-0.4-0.4-0.5-0.7c-0.6-1.1-0.7-4.1-0.8-6.6
			c0,0,0-0.1,0-0.1c0-1.9,0-3.4,0-3.4c-0.1-0.1-0.3-0.3-0.4-0.4c-0.1-0.1-0.2-0.2-0.2-0.3c0,0,0-0.1-0.1-0.1c0,0,0,0,0,0
			c0,0,0-0.1,0-0.1c0-0.1,0-0.1-0.1-0.2c0-0.1,0-0.1,0-0.1c0,0,0-0.1,0-0.1v-0.1c0-0.2,0-0.4,0.1-0.5c0-0.1,0.1-0.1,0.1-0.2l0.4-6.8
			c-0.1-0.9,0.6-5.5,1.1-6.6c0-0.1,0.1-0.1,0.1-0.2c0,0,0.1-0.1,0.1-0.1c0.2-0.1,0.4-0.2,0.6-0.3c0.1-0.1,0.3-0.1,0.4-0.2
			c0.1,0,0.3-0.1,0.4-0.1c1.5-0.5,3.5-0.7,3.5-0.7c0,0,0,0,0,0s1.1-2.1,3.2-2.6c2.1-0.6,13.9-2.1,14.4-2.2c0,0,0,0,0,0
			s0.5-1.9,1.6-3.5c0.3-0.5,0.7-0.8,1-1c0,0,0.1-0.1,0.1-0.1c0,0,0.2-0.1,0.4-0.2c0.3-0.1,0.8-0.2,1-0.2c0.2,0,3.7-2.6,3.7-2.6
			c0.4-0.3,0.8-0.5,1.2-0.8c1.9-8.8,3.8-17.6,5.7-26.4l10.1-27.1l0-0.1c0.2-0.5,0.3-0.8,0.3-0.8c-0.2,0-0.3,0.1-0.4,0.1
			c-0.8,0-1.4-0.5-1.4-0.5l0.1-0.2l0.8-2.2v0l0.1-0.1c0.5-0.3,1-0.6,1-0.6s0-0.1,0.1-0.2l0.1,0h0c0.2-0.5,0.6-1.5,1.4-2.3
			c0.1-0.1,0.2-0.2,0.4-0.3c0.1-0.1,0.3-0.2,0.5-0.3c0.1-0.1,0.2-0.1,0.3-0.2c0.1,0,0.2-0.1,0.3-0.1c4.6-1.3,49-9.7,85.6-13.6
			c37.8-4,120.2-9.9,136.9-10.9c4.2-0.3,7.7-1,10.7-1.9c8.9-2.7,12.6-7.3,12.6-7.3s1.3-1.3,3.6-3.5l15.2-14.6
			c21.5-20.7,54.1-51.9,56-53.2c0.2-0.1,0.6-0.3,1.2-0.5c6.4-2,33.4-5.8,49.4-6.5C448.5,19,469.8,18.4,494.6,18.4 M494.6,6.4
			C494.6,6.4,494.6,6.4,494.6,6.4c-23.8,0-45.1,0.5-56.2,1c-16,0.6-44.4,4.5-52.5,7c-1.6,0.5-2.9,1.1-4.1,1.8
			c-1.5,1-3.1,2-57.8,54.6l-15.2,14.6l-3.6,3.5c-0.5,0.5-0.5,0.4-0.8,0.9c-0.6,0.5-2.8,2.3-7,3.6c-2.4,0.7-5,1.2-7.9,1.4
			c-14.2,0.9-98.4,6.8-137.4,11c-36.8,3.9-82,12.4-87.5,13.9c0,0-0.1,0-0.1,0c-0.6,0.2-1,0.3-1.2,0.4c-0.2,0.1-0.3,0.1-0.5,0.2
			c-0.5,0.2-1,0.5-1.5,0.7c-0.1,0.1-0.2,0.1-0.3,0.2c-0.6,0.4-1.2,0.8-1.7,1.2c-0.1,0.1-0.2,0.2-0.3,0.3c-0.2,0.2-0.7,0.6-1.1,1.1
			c-0.8,0.8-1.6,1.8-2.3,2.8c-1.6,1.4-2.7,3.2-3.3,5.2l-0.6,1.8c-0.8,2.2-1,4.5-0.5,6.7L43,162.1c-0.2,0.5-0.4,1.1-0.5,1.6
			l-3.2,14.8l-1.5,6.8c-0.2,0.1-0.5,0.2-0.7,0.3c-0.6,0.3-1.1,0.6-1.6,0.9c-1.5,1-2.7,2.1-3.8,3.5c-3.7,0.5-7.9,1.2-9.6,1.6
			c0,0,0,0-0.1,0c-2.6,0.7-4.6,1.9-6.2,3.2c-0.3,0.1-0.6,0.2-0.9,0.3c-0.2,0.1-0.4,0.1-0.7,0.2c-0.1,0-0.2,0.1-0.3,0.1
			c-0.4,0.1-1,0.4-1.7,0.7c-1,0.5-1.8,1-2.6,1.6c-0.4,0.3-0.8,0.6-1,0.8c-0.5,0.5-1,1.1-1.5,1.6c-0.2,0.2-0.6,0.8-1,1.6
			c0,0.1-0.1,0.1-0.1,0.2c-1.5,3-2.4,8.3-2.4,11.6L3.4,219c-0.2,0.9-0.3,1.8-0.3,2.7v0.1c0,0.6,0,1.3,0.1,1.9c0,0.3,0.1,0.5,0.1,0.8
			c0.1,0.7,0.3,1.2,0.4,1.6c0,0.1,0,0.2,0,0.3c0,0.3,0,0.5,0,0.8c0.1,5.7,0.7,9,2.1,11.7c0.6,1.3,1.5,2.4,2.6,3.5
			c0.1,0.1,0.3,0.3,0.4,0.4c0.2,0.2,0.5,0.4,0.8,0.7c0.1,0.1,0.3,0.2,0.4,0.3c0.4,0.3,0.8,0.6,1.1,0.8c0.4,0.2,0.7,0.5,1.1,0.7
			c0.2,0.1,0.5,0.3,0.9,0.5c0.2,0.1,0.3,0.2,0.5,0.2c1.6,1.6,3.7,2.8,6.1,3.5c0.3,0.1,0.7,0.2,1,0.3l0.1,0c0.1,0,0.2,0,0.3,0.1
			l0.1,0c0.2,0,0.3,0.1,0.5,0.1c0.9,0.2,2.1,0.5,3.6,0.9c0.5,0.1,1,0.3,1.6,0.4c2.4,0.6,5.3,1.4,8.5,2.2c0.6,0.1,1.1,0.3,1.7,0.4
			c1.2,0.3,2.4,0.6,3.7,0.9l1.2,0.3c0,0,0.1,0,0.1,0c1.2,0.3,2.4,0.6,3.5,0.9c0.2,0.1,0.4,0.1,0.6,0.1l1.9,0.5l3.1,0.8l1.9,0.5
			c1.1,0.3,2.2,0.6,3.3,0.8c0.5,0.1,1,0.3,1.5,0.4c0.8,0.2,1.5,0.4,2.2,0.6l1.4,0.3c0.2,0.1,0.4,0.1,0.6,0.2
			c0.7,0.2,1.4,0.4,2.2,0.5c0.3,0.1,0.6,0.1,0.8,0.2c0.8,0.2,1.7,0.4,2.5,0.6l1,0.3l0.9,0.2l0.8,0.2c0,0,0,0,0.1,0
			c0.4,0.1,0.7,0.2,1.1,0.3c0,0,0.1,0,0.1,0c0.6,0.1,1.1,0.3,1.7,0.4l0.4,0.1l2.4,0.6l2,0.5l0.6,0.1l0.6,0.2c0.1,0,0.1,0,0.2,0.1
			c0.1,0,0.3,0.1,0.4,0.1c0.2,0,0.3,0.1,0.5,0.1c2.2,2.8,5.4,4.9,9.1,5.6l5.6,1.1c2.8,0.5,5.6,1.1,8.4,1.6
			c4.7,8.3,11.4,15.4,19.7,20.7c10.3,6.7,22.6,10.6,36.5,11.6c2.2,0.2,4.4,0.2,6.6,0.2c22,0,41.4-7.4,54.8-14.4
			c2.8,0.4,5.9,0.9,9,1.4l0.7,0.1c0.8,0.1,1.5,0.2,2.3,0.3c0,0,0,0,0.1,0c1.9,0.3,3.9,0.6,5.9,0.9l2.7,0.4c0,0,0,0,0.1,0l0.3,0
			c0.7,0.1,1.4,0.2,2.1,0.3c0.2,0,0.3,0,0.5,0.1c0.5,0.1,1.1,0.2,1.7,0.2c0.5,0.1,0.9,0.1,1.4,0.2c0.3,0,0.6,0.1,1,0.1
			c0.2,0,0.5,0.1,0.7,0.1c0,0,0.1,0,0.1,0c0.3,0,0.7,0.1,1,0.2c0.5,0.1,0.9,0.1,1.4,0.2l1.3,0.2l1.3,0.2l0.1,0l2.8,0.4
			c6.4,0.9,11.6,1.6,16.3,2.2c0,0,0.1,0,0.1,0c0.4,0,0.8,0.1,1.2,0.1c0.4,0,0.7,0.1,1,0.1c4.6,0.6,9,1.1,12.9,1.5c0,0,0.1,0,0.1,0
			c0.2,0,0.5,0,0.7,0.1c0.3,0,0.5,0.1,0.8,0.1c2.8,0.3,5.8,0.6,8.9,0.8c0.7,0.1,1.3,0.1,1.9,0.1l0.4,0l0.1,0c0.6,0,1.1,0.1,1.7,0.1
			l0.3,0c0.6,0,1.1,0.1,1.6,0.1c2.4,0.1,4.5,0.2,6.3,0.2c0.4,0,0.8,0,1.2,0c18.9-0.3,20.2-0.5,40.8-3.8l31.4,2.3
			c-0.2,7,0,13.5,0.6,19.3c1.6,17.4,8.7,30.1,21,37.8c11.3,7.1,24.8,8.5,35.3,9c0.7,0,1.4,0,2.1,0c26.5,0,41.6-22.8,42.2-23.8l0,0
			c0.1-0.1,0.2-0.3,0.3-0.4l13-21.5c9.1,3.3,21.4,6.9,30.6,6.9c7.7,0,13.5-2.4,17.2-7.1c4.7-5.9,3.9-12.9,2.7-24.3
			c-0.1-1.3-0.3-2.7-0.5-4c79.9-14.3,136.1-24.2,155.2-27.5c2,6.5,4.8,11.8,8.3,16c6.3,7.5,14.8,11.6,25.4,12.2
			c1.4,0.1,2.7,0.1,4,0.1c12.5,0,20.9-3.7,24.8-5.9c0.9-0.5,1.7-1,2.6-1.7c0.4-0.3,0.8-0.6,1.1-0.9c7.6-6.9,10.6-12,14.1-22.1
			c6.7,1.2,13.9,2.5,16.8,2.6c1.2,0.1,2.1,0.1,3,0.1c1.8,0,7.4,0,11.6-4.5c4.4-4.7,4-10.2,3.6-16l0-0.6c-0.3-4-0.1-8.2,0.2-11.1
			l2.4-2.6c0.2-0.3,0.5-0.5,0.7-0.8c0,0,0,0,0,0c0,0,0.1-0.1,0.1-0.1c0.1-0.2,0.3-0.3,0.4-0.5c0.4-0.5,0.8-1.1,1.3-1.6
			c0.6-0.8,1.3-1.7,1.9-2.5c0.6-0.8,1.2-1.6,1.7-2.4c0.3-0.5,0.7-0.9,1-1.4c0.4,0,0.9,0.1,1.4,0.2c1.8,0.2,4,0.5,6.7,0.5
			c1.9,0,3.8-0.2,5.7-0.5c5.1-0.8,10.5-1.9,12.8-2.4c0.4-0.1,0.6-0.1,0.8-0.2c0,0,0.1,0,0.1,0c3.1-0.6,10.5-3.4,11.9-15.3
			c0.1-0.9,0.2-2.1,0.4-3.7c0-0.1,0-0.2,0-0.4c0.5-9.6,0.6-10.8-0.3-13.2c-1.1-3.2-3.3-5.7-6.7-7.6c-1.2-1.1-2.5-2-4-2.7
			c-0.9-0.4-1.7-0.6-2.9-1c-0.6-0.2-1.4-0.4-2.2-0.7c2.2-8.1,5.3-21,5.1-27.5c0-0.8,0-1.6-0.1-2.4c-0.1-6.9-0.3-14.6-5.4-20.1
			c-0.5-0.5-1-1-1.6-1.5c-0.3-0.3-0.7-0.5-1-0.8c-0.2-0.1-0.3-0.2-0.5-0.4c-0.1-0.1-0.3-0.2-0.4-0.2l-0.1-0.1
			c-0.3-0.2-0.6-0.3-0.9-0.5c0,0,0,0-0.1,0c-2.4-1.3-5.5-2.5-9.6-3.8c-5.7-1.7-13.1-3.4-21-4.9c-5.1-0.9-10.5-1.8-15.2-2.6
			c-3.9-0.6-8.4-1.4-11.4-1.9c-5.1-7.5-21.9-32.9-31.4-47.3c-12.6-19-12.6-19-13.4-19.9c-0.3-0.3-0.6-0.6-0.9-0.9
			c-0.7-0.7-1.5-1.3-2.4-1.8c-0.3-0.2-0.6-0.4-1-0.6c0,0-0.1,0-0.1-0.1c-0.3-0.1-0.5-0.3-0.8-0.4l-0.2-0.1c-0.2-0.1-0.3-0.1-0.5-0.2
			c0,0-0.1,0-0.1-0.1l-0.1,0c-0.2-0.1-0.3-0.1-0.5-0.2c-0.2-0.1-0.4-0.2-0.7-0.3c-0.1-0.1-0.3-0.1-0.4-0.2c-0.1-0.1-0.3-0.1-0.4-0.2
			l-0.6-0.2c-0.1,0-0.2-0.1-0.3-0.1c-0.1,0-0.2-0.1-0.3-0.1l-0.3-0.1c-0.1,0-0.1,0-0.2-0.1l-0.3-0.1c-0.7-0.3-1.6-0.6-2.5-0.9
			c-0.4-0.2-0.9-0.3-1.3-0.5l-0.7-0.2c0,0-0.1,0-0.1,0c-9.3-3.2-25.3-7.9-48.7-12C647.2,15.2,605.4,10.7,558.7,8
			C540.5,6.9,518.9,6.4,494.6,6.4L494.6,6.4z M833.8,215.9C833.8,215.9,833.8,215.9,833.8,215.9L833.8,215.9L833.8,215.9z"/>
	</g>
	<path class="st0" d="M921.5,26.2"/>
</g>
<g id="Icon">
	<g>
		<g>
			<path class="st1" d="M63.5,137.6c0,0,0.8,0.7,1.8,0.4c0,0-0.1,0.3-0.3,0.8l0,0.1l-10.1,27.1c-1.9,8.8-3.8,17.6-5.7,26.4
				c-0.4,0.3-0.8,0.5-1.2,0.8c0,0-3.5,2.6-3.7,2.6c-0.2,0-0.7,0.2-1,0.2c-0.2,0.1-0.3,0.1-0.4,0.2c0,0-0.1,0.1-0.1,0.1
				c-0.3,0.2-0.7,0.5-1,1c-1,1.7-1.6,3.5-1.6,3.5s0,0,0,0c-0.5,0.1-12.2,1.6-14.4,2.2c-2.1,0.6-3.2,2.6-3.2,2.6s0,0,0,0
				c0,0-2,0.2-3.5,0.7c-0.1,0.1-0.3,0.1-0.4,0.1c-0.1,0.1-0.3,0.1-0.4,0.2c-0.2,0.1-0.4,0.2-0.6,0.3c-0.1,0-0.1,0.1-0.1,0.1
				c0,0.1-0.1,0.1-0.1,0.2c-0.6,1.1-1.2,5.7-1.1,6.6l-0.4,6.8c0,0.1-0.1,0.1-0.1,0.2c-0.1,0.2-0.1,0.3-0.1,0.5v0.1c0,0,0,0.1,0,0.1
				c0,0,0,0.1,0,0.1c0,0.1,0,0.1,0.1,0.2c0,0,0,0.1,0,0.1c0,0,0,0,0,0c0,0,0,0.1,0.1,0.1c0,0.1,0.1,0.2,0.2,0.3
				c0.1,0.1,0.2,0.3,0.4,0.4c0,0,0,1.5,0,3.4c0,0,0,0.1,0,0.1c0.1,2.5,0.2,5.5,0.8,6.6c0.1,0.2,0.3,0.4,0.5,0.7
				c0.1,0.1,0.2,0.2,0.3,0.3c0.1,0.1,0.3,0.2,0.4,0.3c0.1,0.1,0.3,0.2,0.4,0.3c0.1,0.1,0.3,0.2,0.4,0.2c0.2,0.1,0.3,0.2,0.5,0.2
				c0.1,0.1,0.3,0.1,0.4,0.2c0.1,0.1,0.3,0.1,0.4,0.2c0.1,0,0.1,0.1,0.2,0.1c0.1,0,0.3,0.1,0.4,0.1c0,0,0,0,0,0
				c0.1,0,0.2,0.1,0.3,0.1c0.2,0.1,0.3,0.1,0.4,0.1c0,0,0.1,0,0.1,0c0,0,0.1,0,0.1,0c0.1,0,0.1,0,0.2,0c0,0,0,0,0,0c0,0,0,0,0,0
				s-0.4,1.3,1.4,1.8c0,0,0.1,0,0.3,0.1c0,0,0,0,0.1,0c0.1,0,0.3,0.1,0.5,0.1c0,0,0.1,0,0.1,0c0.2,0.1,0.4,0.1,0.7,0.2
				c0.9,0.2,2,0.5,3.5,0.9c0.5,0.1,1.1,0.3,1.7,0.4c2.4,0.6,5.3,1.3,8.5,2.2c0.6,0.1,1.1,0.3,1.7,0.4c1.6,0.4,3.2,0.8,4.9,1.2
				c1.3,0.3,2.6,0.6,3.9,1c0,0,0.1,0,0.1,0c1.7,0.4,3.5,0.9,5.3,1.3s3.6,0.9,5.4,1.4c0.5,0.1,0.9,0.2,1.4,0.3c1.3,0.3,2.6,0.7,3.9,1
				c0,0,0.1,0,0.1,0c0.9,0.2,1.8,0.4,2.7,0.7c0,0,0,0,0.1,0c1.3,0.3,2.6,0.7,3.9,1c0.6,0.1,1.1,0.3,1.7,0.4c0.5,0.1,0.9,0.2,1.4,0.3
				c0.7,0.2,1.3,0.3,2,0.5c1.5,0.4,3,0.8,4.4,1.1c0.4,0.1,0.8,0.2,1.2,0.3c0.4,0.1,0.8,0.2,1.2,0.3c0.4,0.1,0.8,0.2,1.1,0.3
				c0.5,0.1,1,0.3,1.5,0.4c0.5,0.1,1,0.2,1.4,0.4c0.1,0,0.1,0,0.2,0c0.5,0.1,1.1,0.3,1.6,0.4c0,0.3,0,0.6,0,0.9
				c0,1.4,1.2,2.8,2.6,3.1c6.5,1.3,13.1,2.6,19.8,3.9c7.3,17.2,24.7,29.2,48.9,31c19.8,1.4,40.6-4.7,58.4-14.7c4,0.6,8.3,1.3,12.9,2
				c1,0.2,2.1,0.3,3.1,0.5c2.8,0.4,5.6,0.8,8.5,1.3c0.8,0.1,1.7,0.2,2.6,0.4c0.1,0,0.3,0,0.4,0.1c1,0.2,2,0.3,3.1,0.4
				c0.6,0.1,1.1,0.2,1.7,0.2c0.8,0.1,1.6,0.2,2.4,0.3c0.9,0.1,1.7,0.2,2.6,0.4c1,0.1,1.9,0.3,2.9,0.4c5.5,0.8,10.9,1.5,16.2,2.2
				c0.8,0.1,1.5,0.2,2.3,0.3c4.4,0.6,8.7,1.1,12.8,1.5c0.5,0.1,1,0.1,1.5,0.2c3.1,0.3,6,0.6,8.7,0.8c0.8,0.1,1.5,0.1,2.2,0.2
				c0.6,0,1.1,0.1,1.7,0.1c0.6,0,1.2,0.1,1.8,0.1c2.5,0.1,4.8,0.2,6.6,0.2c18.4-0.3,18.9-0.4,40.5-3.9l33.3,2.5c0,0,0,0,0,0
				c0,0,0,0,0,0c0,0,0,0,0.1,0c0,0,0.1,0,0.1,0c0,0,0.1,0,0.1-0.1c0.2-0.1,0.6-0.2,0.9-0.4c0,0,0.1,0,0.1,0c0.1,0,0.2-0.1,0.3-0.1
				c0.2-0.1,0.4-0.2,0.6-0.3c0.2-0.1,0.4-0.2,0.6-0.3c0,0,0.1,0,0.1-0.1c0.1-0.1,0.3-0.2,0.4-0.2c0.5-0.3,1.1-0.7,1.7-1.1
				c0.3-0.2,0.6-0.4,0.9-0.7c0.2-0.1,0.3-0.2,0.5-0.4c0,0,0,0,0.1-0.1c0.7-0.6,1.5-1.2,2.2-2c0,0,0,0,0,0c0.6-0.6,1.2-1.3,1.8-2
				c0.1-0.2,0.3-0.4,0.4-0.6c0.3-0.4,0.7-0.9,1-1.3h0.2c-1.4,12.8-2.3,27.1-1.1,39.8c2.8,29.8,23.3,35,44.9,36
				c21.2,1,33.7-18.3,33.7-18.3s0,0,0,0c6.1-10,12.2-20.1,18.3-30.1c4.3,1.8,37.1,15.1,43.5,7.1c1.7-2.1,1.2-6.6,0.2-15.6
				c-0.7-6.4-1.7-11.5-2.5-15c0,0,0,0,0,0c0,0,0,0,0,0c0,0,0,0,0,0c0,0,0,0,0.1,0c0,0,0.1,0,0.2,0c0.1,0,0.1,0,0.2,0
				c0.1,0,0.2,0,0.3-0.1c12.2-2.2,170.5-30.5,174-30.7c1-0.1,2.2-0.1,3.6-0.2c3.1,19,10.6,28.6,25.2,29.5
				c11.9,0.7,19.3-2.6,22.3-4.3c0.5-0.3,1-0.6,1.5-1c7.5-6.8,8.9-10.4,14.1-26.9c0,0,21.3,4.2,25.6,4.4c6.3,0.3,6.1,0,5.6-8.2
				c-0.6-8.2,0.6-17.1,0.6-17.1l5-5.5h0c0.1-0.1,0.2-0.2,0.2-0.3c0.1-0.1,0.2-0.2,0.2-0.3c0,0,0,0,0-0.1c0.5-0.6,0.9-1.1,1.3-1.7
				c0.6-0.8,1.2-1.6,1.8-2.3c0.6-0.8,1.1-1.5,1.6-2.2c0.3-0.5,0.7-0.9,1-1.4c1.4-2.1,2.5-3.7,3-4.5c0,0,0.1-0.1,0-0.1
				c1.4-0.2,3.6-0.4,5.8-0.5c3.5-0.1,7.1,1.4,12.9,0.4c5.7-0.9,12.1-2.3,13.1-2.5c1.1-0.2,2-1.7,2.4-5c0.1-0.9,0.2-2.1,0.3-3.3
				c0,0,0.5-8.3,0.3-8.6c-0.3-0.8-3.2-1.9-3.2-1.9s-0.1-0.9-1.1-1.4c-0.5-0.2-3.6-1-6.4-2.1c-2.8-1.1-5.3-2.4-5.3-2.4
				c-0.3-1.1-2.2-2.4-2.3-2.5v0h0c0,0,0-1.1,0.3-2.1c2.5-8.1,6.7-25.2,6.5-30.6c-0.2-5.4,0.1-12.3-2.3-14.8
				c-0.1-0.1-0.3-0.3-0.5-0.5h0c-0.2-0.1-0.3-0.2-0.5-0.3c-0.2-0.1-0.4-0.2-0.6-0.4c-1.6-0.9-4.1-1.8-7.3-2.8
				c-5.2-1.6-12.1-3.2-19.7-4.5c-14.1-2.5-30.2-4.8-31.2-5.6h0c-0.4-0.3-0.7-0.7-0.9-0.9c-0.1-0.1-0.2-0.2-0.2-0.2
				c0,0-0.1-0.1-0.1-0.1c0,0-0.1-0.1-0.1-0.1c-0.9-0.8-45.1-67.9-45.4-68.2c-0.1-0.1-0.2-0.2-0.3-0.3c-0.2-0.2-0.4-0.4-0.7-0.5h0
				c-0.1,0-0.1-0.1-0.2-0.1c0,0-0.1,0-0.1-0.1c-0.1,0-0.2-0.1-0.4-0.2c-0.1,0-0.1-0.1-0.2-0.1h0c-0.1-0.1-0.3-0.1-0.5-0.2
				c-0.3-0.1-0.6-0.2-0.9-0.4c-0.3-0.1-0.7-0.3-1.1-0.5c0,0,0,0,0,0c-0.3-0.1-0.6-0.2-0.9-0.3c-0.8-0.3-1.7-0.6-2.7-1
				c-0.6-0.2-1.2-0.4-1.9-0.7c-8.9-3.1-24.4-7.6-46.9-11.5c-35.9-6.3-77.5-10.8-123-13.4c-45.6-2.6-101.7-1.3-119.1-0.6
				c-16,0.6-43,4.4-49.4,6.5c-0.6,0.2-0.9,0.3-1.2,0.5c-1.9,1.2-34.5,32.5-56,53.2l-15.2,14.6c-2.3,2.2-3.6,3.5-3.6,3.5
				s-3.8,4.6-12.6,7.3c-3,0.9-6.5,1.6-10.7,1.9c-16.7,1.1-99,6.9-136.9,10.9c-36.6,3.9-81,12.3-85.6,13.6c-0.1,0-0.3,0.1-0.3,0.1
				c-0.1,0.1-0.2,0.1-0.3,0.2c-0.2,0.1-0.3,0.2-0.5,0.3c-0.1,0.1-0.2,0.2-0.4,0.3c-0.8,0.8-1.2,1.8-1.4,2.3h0l-0.1,0
				c-0.1,0.1-0.1,0.2-0.1,0.2s-0.5,0.2-1,0.6l-0.1,0.1v0l-0.8,2.2L63.5,137.6z M599.1,39.1c0.3-0.4,0.7-0.7,1-1h0
				c0.4-0.3,0.8-0.6,1.2-0.8c0.8-0.4,1.8-0.7,2.8-0.8c4.2-0.4,27.4-0.4,42.3,0.7c14.9,1.1,43.2,4,55.9,6.5c5.6,1.1,10.6,2.4,15,3.7
				c0.4,0.1,0.7,0.2,1,0.3c0.7,0.2,1.4,0.4,2,0.6c0.3,0.1,0.7,0.2,1,0.3h0c0.6,0.2,1.3,0.4,1.9,0.6c0.8,0.3,1.5,0.5,2.2,0.8
				c0.7,0.3,1.4,0.5,2,0.8h0c0.9,0.4,1.8,0.8,2.7,1.1c0,0,0,0,0,0c0.3,0.1,0.5,0.2,0.8,0.4c5.9,2.8,13.4,13.2,18.3,20.8
				c4.8,7.6,25.3,44,25.3,44h0l-201.4,2.2c0,0,20.7-67.7,22.5-73.5C596.5,42.9,597.6,40.6,599.1,39.1z M327,94.6
				c0-0.1,1.6-1.5,1.9-1.8c8.6-8.3,35.7-35.4,52.1-51.3c2.5-2.4,4.3-4.6,6.4-6.4c0.3-0.3,0.6-0.5,0.9-0.8c0.3-0.2,0.5-0.4,0.8-0.6
				c0.3-0.2,0.5-0.4,0.8-0.6c0.2-0.2,0.5-0.3,0.7-0.4c0.1-0.1,0.2-0.1,0.3-0.2c0.2-0.1,0.4-0.2,0.7-0.3c0.8-0.4,1.7-0.8,2.7-1.1
				c0.6-0.2,1.3-0.4,2-0.6c13.7-3.1,38.3-6.3,75.1-5.7c41.8,0.6,90.3,7.9,100,9.8c2.2,0.4,4.3,0.9,6.1,1.5c0.2,0.1,0.4,0.1,0.6,0.2
				c0.5,0.2,0.9,0.3,1.3,0.5c0.1,0.1,0.3,0.1,0.4,0.2c0,0,0,0,0,0c0.1,0.1,0.3,0.2,0.4,0.3h0c0.1,0.1,0.3,0.2,0.4,0.3c0,0,0,0,0,0
				c0.1,0.1,0.2,0.2,0.3,0.3c0.1,0.1,0.2,0.2,0.3,0.3c1.6,2-0.9,7.6-1.7,10c-4.2,13.3-17.3,54.5-19.5,59.8c-0.1,0.3-0.3,0.5-0.5,0.8
				c-0.1,0.1-0.2,0.2-0.3,0.3v0c-0.1,0.1-0.2,0.2-0.3,0.3c-0.2,0.1-0.3,0.3-0.5,0.4c-0.4,0.3-0.8,0.5-1.2,0.7
				c-6.1,2.7-20,0.6-29.5-0.2c-11.6-1-63.8-7.8-105.4-11c-41.6-3.2-89.6-3-93.8-2.9c-0.9,0-1.3,0-1.9-0.4
				C326.2,95.7,326.5,95.2,327,94.6z M314.3,166.8c0,0,14.9,3,22.1,5.3c7.1,2.3,8.7,6,8.7,6.1c0.2,1.2,0.3,2.5,0.2,4.1
				c-0.3,6.4-1.6,20.5-2.6,29.6c-0.5,4.1-1.2,7.6-2.1,10.5c-0.1,0.2-0.2,0.5-0.2,0.7c-0.3,0.9-0.6,1.7-1,2.5
				c-2.4,4.4-7.6,5.8-15,6.2c-8.7,0.4-24.3-1.6-24.3-1.6L314.3,166.8z M305.5,166.2c-1.4,5-3.7,15.2-3.6,15
				c-2.7-11-8.4-16.2-20.8-15.8c-12.4,0.4-21.9,13.8-21.3,29.9c0.6,16.2,11.3,30,23.6,28.6c5.9-0.7,7-1.1,9.7-3.2l-2.3,9l-55.7-6.3
				c4.9-30.9,15.7-64.3,15.7-64.3L305.5,166.2z M151.1,179.7c0.9-3.4,1.7-6.8,2.6-10.3c0.1-0.4,0.6-0.7,1-0.6c2.5,0.3,5.1,0.7,7.7,1
				c2.6,0.3,5.1,0.7,7.7,1c0.5,0.1,0.7,0.4,0.6,0.8c-0.6,2.2-0.7,2.7-1.3,4.9l78.2-16.5l-1.6,5.3c0,0-77.9,16.3-78,16.6
				c-0.9,3.4-1.8,6.9-2.7,10.3c-0.1,0.4-0.6,0.7-1,0.6c-2.6-0.4-5.1-0.7-7.7-1.1c-2.5-0.4-5.1-0.7-7.6-1.1c-0.4-0.1-0.7-0.4-0.6-0.8
				c0.4-1.5,0.8-2.5,1.2-4l-57.2,12.8l0.7-3.8l57.4-13.3L151.1,179.7z M59.1,172.5c2.6-9.3,8.1-26.1,10.2-31.7
				c0-0.3,0.3-0.9,0.5-1.4l0.1-0.1l0-0.1c0-0.1,0.1-0.1,0.1-0.2v0c0,0,0-0.1,0-0.1l34.3,3.3c-0.7,1.6-1.9,4.7-1.9,4.7
				c-3-1.4-6.3-2.1-9.7-2.1c-12.8,0.3-22.6,13.6-22.1,26.1c0.5,12,8.6,23,17,26.8l0,0c-0.4,1.7-0.7,2.7-0.7,2.7L54.7,194
				c-0.4-0.4-0.7-0.8-0.9-1.3L59.1,172.5z M376.9,242.5c-0.4,1.8-4.6,2.7-5.3,2.7c-2,0-26.4,1.8-46.3,2.1l-29.2-1.7
				c-40.5-4.5-122.8-16.5-145.7-19.7c-28.1-3.8-76.9-14.2-92.8-17.2c-15.9-3-13.4-5.3-13.4-5.3s0.5-1.8,1.6-3.4
				c1-1.6,2.5-1.3,2.5-1.3c2.6,4.1,55.6,13.5,71.9,16.9c16.3,3.3,53,7.6,71,10.3c18,2.7,107.5,12.6,120.9,13.3
				c13.4,0.7,32.7-0.9,41.5-1.7c8.8-0.8,20.1-0.2,21.1,0.4C375,238.3,377.3,240.7,376.9,242.5z M791.3,162
				c-9.8-0.4-47.1,1.7-50.6,1.4c-3.5-0.2-85.8,6.1-90.1,6.3c-4.3,0.2-145.2,13.9-166.7,17.5c-21.4,3.6-99.2,16.1-103,16.8
				c-3.9,0.6-6.2,0-7-1.7c0,0,1.3-4,4.6-4.9S459,179.9,516,174.5c57-5.4,94.3-10.9,117.6-12.5c23.3-1.6,79.4-4.4,107.7-5.6
				c28.4-1.2,31.6-0.7,50.9,0.1c19.4,0.8,39.6,1.8,40.5,3.5c0.9,1.7,0.3,3.2-3.2,3.5C826.6,163.4,801.1,162.4,791.3,162z"/>
		</g>
	</g>
</g>
<g id="It">
	<rect x="561" y="239" class="st2" width="165" height="112"/>
	<text transform="matrix(1 0 0 1 561 325.7354)" class="st3 st4 st5">IT</text>
	<rect x="553" y="231" class="st2" width="165" height="112"/>
	<text transform="matrix(1 0 0 1 553 317.7354)" class="st3 st4 st5">IT</text>
	<g>
		<g>
			<path class="st6" d="M612.9,310.1c-0.5,0-1,0-1.4,0c-4.2-0.1-8.5-0.4-12.6-0.9c-0.5,0-1.3,0-2.4,0.1c-1.6,0.1-3.3,0.1-5,0.1
				c-1.7,0-3.2,0-4.5,0.1c-1.5,0.1-2.5,0.1-3,0.1c-0.4,0-0.9,0-1.4,0.1c-0.2,0-0.5,0-0.7,0c-1.4,0-2.7-0.3-3.9-1
				c-1.1-0.6-2.6-1.8-3.6-4.1c-0.5-1.1-0.9-2.3-1.2-3.5c-0.2-1.1-0.4-2.2-0.6-3.3c-0.1-0.8-0.2-1.5-0.3-2.1l0-0.1l0-0.1
				c-0.5-4.7,1.3-7.2,3-8.5c1.7-1.3,3.8-2.1,6.4-2.3c0.5-0.1,1.1-0.1,1.8-0.1c0.7,0,1.4,0,2.4,0.1c1.6,0.1,3.4,0.1,5.4,0.1
				c1.5,0,3-0.1,4.3-0.2c-0.2-1-0.3-2-0.3-2.9c0-0.4,0-0.9-0.1-1.4l0-0.3v-0.4c0-0.4,0-0.6,0-0.6c-0.1-0.5-0.1-0.9-0.1-1.4
				c-0.3-3.1-0.6-6.2-0.8-9.3l-0.8-9.5c-0.3-3.1-0.5-6.2-0.6-9.3c-0.1-2.9-0.3-5.5-0.5-8l-0.3-5.4c-0.7,0.1-1.4,0.2-2.2,0.4
				c-1.8,0.4-3.6,0.8-5.2,1.3c-2.1,0.6-3.5,0.8-4.6,0.9c-0.3,0-0.5,0-0.8,0c-2.1,0-4.1-0.6-5.8-1.7c-1.5-1-2.8-2.4-3.9-4
				c-1-1.4-1.7-3-2.3-4.7c-0.5-1.6-0.9-3.2-1-4.7c-0.2-2.6,0.4-4.8,1.6-6.6c1-1.3,2.2-2.4,3.7-3.3c1.3-0.7,2.8-1.3,4.4-1.6
				c1.2-0.2,2.4-0.4,3.6-0.5l0.2,0h0.3c0.3,0,0.9,0,2.1-0.1c1.2-0.1,2.4-0.2,3.8-0.3c1.1,0,2.3-0.1,3.3-0.2c1-0.1,1.8-0.1,2.4-0.2
				c0.3-0.1,0.6-0.1,0.9-0.2c0.3-1,0.7-1.9,1.3-2.7c1-1.7,2.6-3,4.4-3.9c1.5-0.7,3.1-1,4.7-1c0.3,0,0.6,0,0.8,0
				c1.6,0,3.3,0.4,5.3,1.2c2.4,1,4.2,2.3,5.4,4.1l0.1,0.1c0.1,0,0.1,0,0.2,0c1.3-0.1,2.7-0.2,4.2-0.4c1.6-0.2,3.1-0.3,4.5-0.4
				c0.8-0.1,1.5-0.1,2.1-0.1h0c0.7,0,1.3,0,1.9,0.1c4.8,0.6,8.4,3.6,9.7,8.4c0.4,1.4,0.7,3,0.9,4.8c0.3,2.7-0.1,5.1-1.2,7.1
				c-1.7,3.1-4.6,4.7-8,4.8c-0.6,0-1.2,0-1.8,0c-1.1,0-2.2,0-3.2-0.1h-2.1c-1.1,0-2.3,0-3.6,0.1c-0.8,0-1.6,0.1-2.4,0.1l0.2,2.8
				c0.2,2.5,0.4,5.4,0.6,8.7c0.2,3.2,0.3,6.5,0.5,9.8c0.2,3.3,0.3,6.6,0.5,9.8c0.1,3.1,0.4,5.8,0.7,8.1c0.3,2.6,0.6,5.2,0.9,7.7
				c0.2,1.7,0.5,3.4,0.8,5.1c0.9-0.1,1.8-0.3,2.7-0.5c1.7-0.3,3.4-0.5,5.1-0.5c0.3,0,0.5,0,0.8,0c4.8,0,8.4,2.6,9.9,7.2
				c0.5,1.5,0.9,3,1.1,4.5c0.4,2.3-0.1,4.7-1.3,6.9c-1.1,2.3-3.1,4-5.5,4.7c-1.2,0.3-2.4,0.6-3.6,0.8c-1.5,0.4-3,0.6-4.4,0.6
				c-0.8,0-1.6,0.1-2.4,0.2c-1.5,0.3-3.1,0.6-4.7,0.9C616,309.9,614.4,310.1,612.9,310.1z"/>
			<path d="M602.8,207.7c0.2,0,0.4,0,0.6,0c1,0,2.3,0.3,3.7,0.9c1.4,0.6,2.5,1.3,3.1,2.2c0.1,0.2,0.2,0.4,0.2,0.6
				c0.1,0.2,0.1,0.4,0.2,0.6c0.3,0.6,0.8,1,1.6,1.1c0.3,0.1,0.6,0.1,1.1,0.1s1,0,1.7-0.1c1.3-0.1,2.8-0.2,4.3-0.4
				c1.6-0.2,3-0.3,4.3-0.4c0.7-0.1,1.3-0.1,1.7-0.1s0.9,0,1.2,0.1c2.9,0.3,4.8,1.9,5.6,4.8c0.3,1.1,0.6,2.5,0.8,4.1
				c0.2,1.6,0,3-0.6,4.1c-0.8,1.4-2.1,2.2-3.7,2.2c-0.6,0-1.1,0-1.6,0c-1.1,0-2.1,0-3-0.1c-0.3,0-1.1,0-2.2,0c-1.2,0-2.5,0-3.8,0.1
				c-1.3,0.1-2.6,0.1-3.8,0.2c-1.2,0.1-1.9,0.2-2.2,0.3c-0.7,0.3-1.2,0.9-1.4,1.7l0.5,6c0.2,2.5,0.4,5.3,0.5,8.5
				c0.2,3.2,0.3,6.5,0.5,9.8c0.2,3.3,0.3,6.6,0.5,9.8c0.2,3.2,0.4,6,0.7,8.5c0.3,2.6,0.6,5.1,0.9,7.7c0.3,2.5,0.7,5.1,1.2,7.8
				c0.4,1.3,1.4,1.9,3,1.9c0.2,0,0.5,0,0.7,0c1.4-0.2,2.9-0.4,4.3-0.7c1.4-0.3,2.9-0.4,4.3-0.4c0.2,0,0.4,0,0.6,0
				c2.6,0,4.3,1.2,5.1,3.7c0.4,1.2,0.7,2.5,0.9,3.8c0.2,1.3-0.1,2.6-0.8,3.8c-0.5,1.1-1.3,1.9-2.4,2.2c-1.1,0.3-2.2,0.6-3.3,0.8
				c-1.1,0.3-2.2,0.5-3.3,0.5s-2.2,0.1-3.3,0.3c-1.6,0.3-3.1,0.6-4.7,0.9c-1.2,0.2-2.4,0.3-3.7,0.3c-0.4,0-0.8,0-1.2,0
				c-4.2-0.1-8.4-0.4-12.6-0.9c-0.4,0-1.4,0-2.9,0.1c-1.5,0.1-3.1,0.1-4.8,0.1s-3.3,0-4.7,0.1c-1.4,0.1-2.4,0.1-2.8,0.1
				c-0.5,0-1.1,0-1.8,0.1c-0.1,0-0.2,0-0.3,0c-0.6,0-1.1-0.1-1.5-0.4c-0.6-0.3-1.1-0.9-1.5-1.7c-0.4-0.8-0.6-1.7-0.9-2.6
				c-0.2-0.9-0.4-1.9-0.5-2.8c-0.1-0.9-0.2-1.7-0.3-2.3c-0.2-2,0.2-3.3,1.1-4c0.9-0.7,2.2-1.1,3.9-1.2c0.3-0.1,0.7-0.1,1.2-0.1
				s1.3,0,2.1,0.1c1.7,0.1,3.6,0.2,5.7,0.2c2.5,0,4.8-0.2,6.9-0.5c2.1-0.4,3.1-1.2,3-2.4c0-0.5-0.1-1-0.2-1.5
				c-0.2-0.5-0.3-1-0.4-1.5c-0.2-0.8-0.3-1.6-0.3-2.2c0-0.7-0.1-1.4-0.2-2.1c0-0.5,0-1-0.1-1.3c-0.1-0.4-0.1-0.7-0.1-1
				c-0.3-3.1-0.6-6.3-0.9-9.5c-0.3-3.2-0.5-6.4-0.8-9.5c-0.3-3.2-0.5-6.2-0.6-9.1c-0.2-2.9-0.3-5.7-0.5-8.1l-0.5-8.4v-0.5
				c-0.3-0.8-1.3-1.2-2.9-1.2c-1.6,0-3.3,0.2-5.2,0.6c-1.9,0.4-3.7,0.9-5.4,1.3c-1.8,0.5-2.9,0.7-3.6,0.7c-0.2,0-0.4,0-0.5,0
				c-1.1,0-2.1-0.3-3-0.9c-1-0.7-1.8-1.5-2.6-2.6c-0.7-1.1-1.3-2.2-1.7-3.5c-0.4-1.2-0.7-2.4-0.8-3.6c-0.1-1.3,0.1-2.4,0.7-3.2
				c0.6-0.8,1.3-1.4,2.1-1.9c0.8-0.5,1.8-0.8,2.9-1c1.1-0.2,2.1-0.4,3.2-0.5c0.6,0,1.5-0.1,2.6-0.2c1.1-0.1,2.2-0.2,3.5-0.2
				c1.2-0.1,2.4-0.1,3.6-0.2c1.1-0.1,2-0.2,2.5-0.2c1.1-0.2,2.1-0.4,2.8-0.5c0.7-0.2,1.3-0.8,1.9-1.9l0.5-0.9
				c0.1-0.6,0.4-1.2,0.8-1.7c0.5-0.9,1.3-1.6,2.3-2.1C601,207.9,601.9,207.7,602.8,207.7 M602.8,197.7c-2.3,0-4.6,0.5-6.8,1.5
				c-2.7,1.2-5,3.2-6.5,5.6c-0.2,0.3-0.4,0.6-0.6,0.8c-0.1,0-0.3,0-0.4,0c-1,0.1-2,0.2-3.1,0.2c-1.4,0.1-2.8,0.1-4,0.3
				c-1.1,0.1-1.5,0.1-1.6,0.1h-0.5l-0.5,0c-1.3,0.1-2.7,0.3-4,0.6c-2.2,0.4-4.1,1.1-5.9,2.1c-2.1,1.2-3.8,2.7-5.3,4.7
				c-1.4,1.9-3,5.1-2.6,9.9l0,0.1l0,0.1c0.2,1.9,0.6,3.9,1.3,5.8c0.7,2.1,1.7,4,2.9,5.9c1.4,2.1,3.2,3.9,5.2,5.3
				c2.5,1.7,5.5,2.6,8.6,2.6c0.3,0,0.6,0,1,0c1.5-0.1,3.2-0.4,5.7-1c0.5-0.1,1-0.3,1.5-0.4c0.2,2.3,0.4,4.8,0.5,7.5
				c0.2,3.1,0.4,6.3,0.6,9.4l0.3,3.8l0.5,5.8c0.2,3.1,0.5,6.2,0.8,9.3c0,0.5,0.1,1.1,0.1,1.6c0,0,0,0.1,0,0.1v0.2
				c-1.4,0-2.7-0.1-3.9-0.1c-1.1-0.1-2-0.1-2.7-0.1c-0.9,0-1.6,0-2.3,0.1c-3.5,0.3-6.5,1.4-8.9,3.3c-2.2,1.7-5.7,5.6-4.9,13l0,0.3
				l0,0.3c0.1,0.3,0.1,0.9,0.2,1.8c0.1,1.3,0.4,2.6,0.6,3.9c0.3,1.6,0.8,3.1,1.5,4.5c1.2,2.8,3.2,5.1,5.8,6.5
				c1.9,1.1,4.1,1.6,6.3,1.6c0.3,0,0.7,0,1,0c0.5,0,0.8,0,1,0c0.4,0,1.1,0,3.1-0.1c1.3,0,2.7-0.1,4.4-0.1c1.8,0,3.5,0,5.1-0.1
				c1,0,1.6-0.1,2-0.1c4.2,0.5,8.4,0.8,12.7,0.9c0.5,0,1.1,0,1.6,0c1.9,0,3.7-0.2,5.5-0.5c1.6-0.3,3.2-0.6,4.7-0.9
				c0.5-0.1,1-0.1,1.5-0.1c1.8,0,3.7-0.2,5.5-0.7c1.3-0.3,2.6-0.6,3.9-0.9c3.7-1.1,6.8-3.6,8.5-7.2c1.7-3.1,2.3-6.6,1.8-10
				c-0.3-1.8-0.7-3.6-1.3-5.3c-2.1-6.6-7.7-10.7-14.6-10.7c-0.3,0-0.6,0-0.9,0c-1.1,0-2.3,0.1-3.4,0.2c0,0,0,0,0,0
				c-0.3-2.5-0.6-5.1-0.9-7.6c-0.3-2.3-0.5-4.9-0.6-7.8c-0.2-3.2-0.3-6.4-0.5-9.7c-0.2-3.3-0.3-6.6-0.5-9.8
				c-0.1-2.3-0.2-4.4-0.4-6.4c0.2,0,0.4,0,0.6,0h1.9c1.1,0.1,2.2,0.1,3.4,0.1c0.6,0,1.3,0,1.9,0c5.1-0.2,9.5-2.8,12.1-7.3l0-0.1
				l0-0.1c1.6-3,2.2-6.5,1.8-10.2c-0.3-2.1-0.6-3.9-1-5.5l0-0.1l0-0.1c-1.9-6.7-7.1-11.1-13.9-12c-0.8-0.1-1.6-0.2-2.5-0.2
				c-0.8,0-1.6,0-2.5,0.1c-1.4,0.1-2.9,0.2-4.6,0.4c-0.6,0.1-1.2,0.1-1.7,0.2c-1.6-1.5-3.5-2.8-5.9-3.7c-2.5-1-4.8-1.5-6.9-1.5
				C603.5,197.7,603.2,197.7,602.8,197.7L602.8,197.7z"/>
		</g>
		<g>
			<path class="st6" d="M693.6,298.3c-0.3,0-0.6,0-1,0c-3.5-0.2-5.7-1.8-6.8-3.1c-1.2-1.4-2.2-3-2.8-4.9c-0.5-1.6-0.9-3.4-1-5.2
				c-0.1-1.3-0.2-2.5-0.3-3.5c-0.5-2.9-1-5.8-1.5-9c-0.5-3.2-0.8-6.4-1-9.6c-0.3-3-0.6-6.1-1-9.1c-0.4-3-0.7-6.2-1-9.4
				c-0.1-1.2-0.2-2.6-0.2-4.1c0-1.1-0.1-2.3-0.2-3.4c-0.1-0.8-0.3-1.5-0.5-2.1l-0.1-0.1c-0.2-0.1-0.4-0.2-0.4-0.2
				c-0.5-0.1-1.1-0.1-1.7-0.1c-1.4,0-2.9,0.1-4.4,0.4c-2,0.4-3.9,0.7-5.8,0.8c-1.2,0.1-2.4,0.2-3.6,0.2c-1.2,0.1-2.4,0.1-3.6,0.1
				c-1.4,0-2.8-0.1-4.1-0.2c-1.6-0.1-3.2-0.5-4.7-1c-2.6-0.8-4.3-1.9-5.4-3.5c-0.9-1.3-1.4-3-1.7-5.4c-0.3-1.7-0.3-3.2-0.3-4.6
				c0.1-1.7,0.8-4.2,3.6-6.5l0.1-0.1c1.4-1.1,3-1.9,4.9-2.5c1.6-0.5,3.2-0.9,5-1.1c1.7-0.2,3.3-0.4,4.9-0.4c1.6-0.1,2.9-0.1,4.1-0.1
				h6.2c1.3,0,2.6,0,3.7-0.1c1.1,0,2.2-0.2,3.3-0.3c1.6-0.3,3.3-0.6,4.9-1c2-0.5,4.2-0.8,6.5-0.9c1.2-0.1,2.3-0.1,3.5-0.1
				c3.2,0,6.4,0.2,9.6,0.7c4,0.6,8,1.1,11.9,1.6c1.2,0.1,2.4,0.2,3.5,0.3c1.7,0.2,3.3,0.6,4.7,1.2c1.8,0.8,3.2,2,4.3,3.6
				c1.1,1.6,1.7,3.6,1.9,6.1c0.2,2.9-0.4,5.3-1.7,7.3c-1.2,1.8-2.9,3.3-5,4.2c-1.7,0.8-3.6,1.3-5.8,1.6c-1.8,0.2-3.7,0.3-5.6,0.3
				c-2.1,0-4.1-0.1-6-0.2c-0.3,0-0.5,0-0.7,0c0,0.2,0,0.5,0,0.8c0,1.3,0.1,2.7,0.3,4l0.6,4.7c0.4,3.7,0.9,7.3,1.4,11
				c0.5,3.7,1,7.4,1.5,11c0.4,2.6,0.8,5.4,1.2,8.1c0.4,2.9,0.7,5.8,0.8,8.7l0,0.2c0,1.9-0.5,3.8-1.3,5.6c-0.8,1.7-1.8,3.2-3.1,4.5
				c-1.3,1.4-2.9,2.6-4.6,3.4C697.2,297.8,695.4,298.3,693.6,298.3z"/>
			<path d="M691.1,213.3c3,0,5.9,0.2,8.9,0.6c4,0.6,8.1,1.1,12.1,1.6c1.2,0.1,2.4,0.2,3.6,0.3c1.1,0.1,2.2,0.4,3.1,0.8
				c0.9,0.4,1.7,1,2.2,1.9c0.6,0.8,0.9,2,1,3.6c0.1,1.8-0.2,3.2-0.9,4.2c-0.7,1-1.6,1.8-2.9,2.4c-1.2,0.6-2.7,1-4.3,1.2
				c-1.7,0.2-3.3,0.3-5,0.3c-2,0-3.9-0.1-5.7-0.2c-0.9-0.1-1.8-0.1-2.6-0.1s-1.5,0-2.2,0.1c-0.8,1.5-1.2,3.5-1.2,5.7
				c0,1.6,0.1,3.1,0.3,4.7c0.2,1.5,0.4,3.1,0.6,4.7c0.4,3.6,0.9,7.3,1.4,11c0.5,3.7,1,7.4,1.5,11c0.4,2.7,0.8,5.4,1.2,8.1
				c0.4,2.7,0.7,5.5,0.8,8.1c0,1.1-0.3,2.3-0.9,3.5c-0.6,1.2-1.3,2.3-2.2,3.3c-0.9,1-2,1.8-3.3,2.4c-1.1,0.5-2.1,0.8-3.2,0.8
				c-0.2,0-0.4,0-0.5,0c-1.5-0.1-2.7-0.6-3.5-1.5c-0.8-0.9-1.4-1.9-1.8-3.2c-0.4-1.2-0.7-2.6-0.8-4c-0.1-1.4-0.2-2.7-0.3-3.8
				c-0.5-3-1-6-1.5-9.1c-0.5-3-0.8-6.1-1-9.2c-0.3-3.1-0.6-6.2-1-9.3c-0.4-3.1-0.7-6.2-1-9.3c-0.1-1-0.2-2.2-0.2-3.6
				c0-1.3-0.1-2.7-0.2-4c-0.2-1.3-0.5-2.5-0.9-3.6c-0.5-1.1-1.2-1.9-2.2-2.4c-0.7-0.4-1.5-0.7-2.2-0.8c-0.8-0.1-1.6-0.2-2.4-0.2
				c-1.8,0-3.5,0.2-5.3,0.5c-1.8,0.4-3.5,0.6-5.2,0.7c-1.1,0.1-2.3,0.2-3.4,0.2c-1.1,0.1-2.3,0.1-3.4,0.1c-1.2,0-2.5-0.1-3.7-0.2
				c-1.2-0.1-2.4-0.4-3.6-0.8c-1.4-0.4-2.4-0.9-2.8-1.5c-0.4-0.6-0.7-1.7-0.9-3.3c-0.2-1.4-0.3-2.7-0.2-3.6c0.1-1,0.6-1.9,1.8-2.9
				c0.9-0.7,2-1.3,3.3-1.7c1.3-0.4,2.7-0.7,4.2-0.9c1.5-0.2,3-0.3,4.4-0.4c1.4-0.1,2.7-0.1,3.9-0.1h6.2c1.3,0,2.7,0,4-0.1
				c1.3-0.1,2.6-0.2,4-0.4c1.8-0.3,3.5-0.7,5.3-1.1c1.8-0.4,3.6-0.7,5.6-0.8C689,213.4,690.1,213.3,691.1,213.3 M691.1,203.3
				L691.1,203.3c-1.2,0-2.5,0-3.7,0.1c-2.6,0.1-5,0.5-7.3,1c-1.5,0.4-3.1,0.7-4.6,1c-0.9,0.1-1.8,0.2-2.7,0.3
				c-1.1,0-2.3,0.1-3.6,0.1H663c-1.2,0-2.6,0-4.2,0.1c-1.8,0.1-3.6,0.2-5.4,0.5c-2.1,0.3-4,0.7-5.9,1.3c-2.4,0.8-4.6,1.9-6.4,3.3
				l-0.1,0.1l-0.1,0.1c-4.2,3.5-5.3,7.4-5.4,10.1c-0.1,1.6,0,3.4,0.3,5.5c0.4,3.1,1.2,5.5,2.5,7.4c1.7,2.6,4.3,4.4,8,5.5
				c1.9,0.6,3.8,1.1,5.8,1.2c1.5,0.1,3,0.2,4.5,0.2c1.3,0,2.6,0,3.9-0.1c1.2-0.1,2.5-0.1,3.7-0.2c2.1-0.1,4.2-0.4,6.4-0.9
				c0.5-0.1,1-0.2,1.4-0.2c0,0.2,0,0.5,0,0.7c0,1.7,0.1,3.2,0.2,4.6c0.3,3.3,0.7,6.4,1,9.5c0.3,3,0.7,6,1,9c0.2,3.3,0.6,6.6,1.1,9.9
				c0.5,3.1,0.9,6,1.4,8.9c0.1,1,0.2,2.1,0.3,3.2c0.2,2.2,0.6,4.4,1.3,6.4c0.8,2.5,2.1,4.7,3.8,6.6c1.8,2,5,4.5,10.2,4.8
				c0.4,0,0.9,0,1.3,0c2.6,0,5.2-0.6,7.7-1.9c2.3-1.1,4.3-2.6,6-4.5c1.6-1.7,3-3.7,4-5.8c1.2-2.5,1.8-5.2,1.8-7.8v-0.2l0-0.2
				c-0.1-3-0.4-6.1-0.9-9.2c-0.4-2.7-0.8-5.4-1.2-8.1c-0.5-3.6-1-7.2-1.5-10.9c-0.5-3.6-1-7.2-1.4-10.8l0-0.1l0-0.1l0-0.3
				c-0.1-1.1-0.3-2.2-0.4-3.3c0.5,0,0.9,0,1.4,0c2.1,0,4.2-0.1,6.2-0.4c2.6-0.3,5.1-1,7.3-2c3-1.4,5.4-3.4,7.1-6
				c1.9-2.8,2.7-6.3,2.5-10.2l0,0l0,0c-0.2-3.3-1.1-6.2-2.7-8.5c-1.6-2.4-3.8-4.2-6.4-5.4c-1.9-0.9-4-1.4-6.3-1.6
				c-1.1-0.1-2.2-0.2-3.4-0.3c-3.9-0.5-7.8-1-11.7-1.6C698,203.6,694.5,203.3,691.1,203.3L691.1,203.3z"/>
		</g>
	</g>
</g>
<g id="Snus">
	<rect x="172" y="239" class="st2" width="554" height="112"/>
	<text transform="matrix(1 0 0 1 172 325.7354)" class="st3 st4 st5">SNUS</text>
	<rect x="164" y="231" class="st2" width="554" height="112"/>
	<text transform="matrix(1 0 0 1 164 317.7354)" class="st3 st4 st5">SNUS</text>
	<g>
		<g>
			<g>
				<path class="st6" d="M197,304.7c-1.8,0-3.6-0.3-5.4-1c-1.4-0.5-2.8-1.1-4.3-1.8c-1.6-0.8-3.1-1.7-4.4-2.8l-0.2-0.2
					c-1.5-1.3-2.8-3.2-3.9-5.7c-1.1-2.6-1.7-4.6-1.7-6.4c0-2.3,0.8-5.6,4.6-8.5l0.1-0.1c1.9-1.4,3.9-2.1,5.9-2.1c0.3,0,0.6,0,0.8,0
					c1.2,0.1,2.5,0.3,3.8,0.5c1.2,0.2,2.4,0.3,3.6,0.4c0.2,0,0.3,0,0.4,0c0.6,0,1.1-0.1,1.7-0.3c3.3-1,6-2.1,8.2-3.3
					c1.9-1,4-2.7,6-4.9c0.8-1,2-2.1,3.3-3.4c1-1,1.9-2,2.8-3.1c0.6-0.9,1.1-1.7,1.3-2.6c0.1-0.3,0.1-0.5-0.1-0.9
					c0-0.1-0.1-0.1-0.1-0.2c-0.5-0.3-1.1-0.5-1.7-0.6c-0.9-0.2-1.9-0.3-2.9-0.4c-1.6-0.1-3.1-0.4-4.4-0.8c-1.5-0.4-2.9-0.7-4.2-0.9
					c-1.2-0.2-2.5-0.3-3.9-0.3c-2,0-4,0-6.1,0.1c-1.2,0.1-2.3,0.1-3.5,0.1c-1.1,0-2.3,0-3.4-0.1l-0.2,0c-1.3-0.1-2.4-0.3-3.4-0.5
					c-2.2-0.4-4.1-1.8-5.6-4.1c-1.7-2.5-2.5-5.7-2.5-9.6c0-4.1,0.9-8.4,2.5-12.5c1.8-4.3,3.8-7.5,6.1-9.5c2.6-2.3,5.8-4.5,9.7-6.4
					c3.6-1.8,7-3.2,10-4.3c2.3-0.9,4.6-1.6,6.9-2.3c2.1-0.6,4.3-1.3,6.5-2c1.5-0.5,3.2-0.8,5.1-0.8c0.9,0,1.8,0.1,2.7,0.2
					c3.2,0.4,5.9,1.3,8,2.8l0.1,0.1l0.1,0.1c1.3,1,2.2,2.4,2.8,4.1c0.4,1.3,0.6,2.6,0.6,4c0,1.4-0.2,2.9-0.5,4.3
					c-0.3,1.3-0.7,2.5-1,3.5l0,0.1c-1.2,2.9-3.1,4.2-4.6,4.8c-1.2,0.5-2.5,0.8-3.9,0.9l-0.3,0h-0.3c-1.3,0-2.6,0-3.8,0.1
					c-0.8,0.1-1.7,0.3-2.6,0.6c-1.8,0.7-3.7,1.5-5.7,2.2c-0.2,0.1-0.4,0.1-0.6,0.2c1.1,0.1,2.3,0.2,3.4,0.3c3.4,0.4,6.6,1.1,9.6,2
					c3.5,1.1,6.3,2.7,8.4,4.8l0.1,0.1l0.1,0.1c1.7,1.9,3.2,3.7,4.6,5.3c1.7,2,3,4.1,3.8,6.3c0.9,2.4,1.3,4.9,1.2,7.7
					c-0.1,2.7-0.9,5.6-2.5,8.9c-1.2,2.7-2.8,5.4-4.6,8.1c-1.7,2.5-3.5,4.9-5.3,7.3c-2,2.7-4.2,5-6.6,7.1c-2.2,1.9-4.6,3.7-7,5.6
					c-2.4,1.7-5.1,3.3-7.9,4.7c-2.9,1.4-5.8,2.6-8.8,3.4c-2,0.6-3.9,1-5.6,1.2C198.2,304.6,197.6,304.7,197,304.7z"/>
				<path d="M224.6,208.7c0.7,0,1.4,0,2.2,0.1c2.3,0.3,4.2,0.9,5.7,1.9c0.5,0.4,0.9,1,1.2,1.8c0.3,0.8,0.4,1.6,0.4,2.4
					c0,1-0.1,2.1-0.4,3.2c-0.3,1.1-0.5,2-0.9,2.9c-0.4,1-1,1.7-1.8,2c-0.8,0.3-1.6,0.5-2.6,0.6c-1.4,0-2.8,0.1-4.2,0.2
					c-1.3,0.1-2.7,0.4-4,0.9c-1.8,0.7-3.6,1.4-5.5,2.1c-1.9,0.7-3.7,1.4-5.5,2.2c-0.6,0.3-1.5,0.9-2.7,1.6c-1.2,0.8-2.3,1.6-3.3,2.5
					c-1,0.9-1.7,1.6-2,2.2c-0.4,0.6-0.1,0.9,0.9,0.9c2,0,4.4,0,7.4,0.1c3,0.1,6,0.3,9.1,0.6c3.1,0.4,6,1,8.7,1.8
					c2.7,0.8,4.8,2,6.4,3.6c1.7,1.9,3.2,3.6,4.5,5.2c1.3,1.6,2.3,3.3,3,5c0.7,1.7,1,3.6,0.9,5.6c-0.1,2-0.8,4.4-2,7.1
					c-1.1,2.5-2.5,4.9-4.2,7.4c-1.7,2.4-3.4,4.8-5.1,7.1c-1.8,2.4-3.7,4.5-5.8,6.3c-2.1,1.8-4.4,3.6-6.7,5.3c-2.2,1.5-4.5,3-7.1,4.3
					c-2.6,1.3-5.2,2.3-7.9,3c-1.8,0.5-3.4,0.9-5,1.1c-0.4,0.1-0.8,0.1-1.2,0.1c-1.2,0-2.5-0.2-3.8-0.7c-1.2-0.4-2.5-0.9-3.8-1.5
					c-1.3-0.6-2.5-1.3-3.5-2.2c-0.9-0.8-1.8-2.2-2.6-4c-0.8-1.9-1.2-3.3-1.2-4.3c0-1.7,0.9-3.2,2.6-4.5c1-0.7,2-1.1,3-1.1
					c0.1,0,0.2,0,0.4,0c1.1,0.1,2.2,0.3,3.5,0.5c1.3,0.2,2.7,0.4,4,0.5c0.3,0,0.5,0,0.8,0c1.1,0,2.1-0.2,3.2-0.5
					c3.6-1.1,6.6-2.3,9.1-3.6c2.4-1.3,4.9-3.3,7.4-6c0.8-0.9,1.9-2,3.1-3.2c1.2-1.2,2.3-2.5,3.3-3.8c1-1.3,1.7-2.7,2.1-4.2
					c0.4-1.4,0.3-2.9-0.3-4.3c-0.5-1.1-1.2-2-2.2-2.5c-0.9-0.5-2-0.9-3.1-1.2c-1.1-0.3-2.4-0.4-3.6-0.5c-1.3-0.1-2.5-0.3-3.5-0.6
					c-1.7-0.4-3.2-0.7-4.7-1c-1.4-0.3-3-0.4-4.8-0.4c-2.1,0-4.2,0.1-6.4,0.2c-1.1,0.1-2.2,0.1-3.2,0.1s-2.1,0-3.1-0.1
					c-1.1-0.1-2.1-0.2-2.9-0.4c-0.8-0.2-1.6-0.8-2.3-1.9c-1.1-1.7-1.7-3.9-1.7-6.8c0-3.5,0.7-7.1,2.2-10.6c1.4-3.6,3-6.1,4.8-7.7
					c2.3-2.1,5.1-4,8.6-5.7c3.5-1.7,6.6-3.1,9.5-4.1c2.2-0.8,4.3-1.6,6.5-2.2c2.2-0.6,4.4-1.3,6.7-2
					C222,208.9,223.2,208.7,224.6,208.7 M224.6,198.7L224.6,198.7c-2.4,0-4.7,0.3-6.7,1c-2.1,0.7-4.3,1.3-6.3,1.9
					c-2.4,0.7-4.8,1.5-7.2,2.4c-3.2,1.2-6.7,2.7-10.5,4.5c-4.3,2.1-7.9,4.5-10.9,7.2c-2.9,2.6-5.4,6.3-7.4,11.4
					c-1.9,4.7-2.9,9.6-2.9,14.4c0,4.9,1.1,9,3.4,12.3c2.8,4.3,6.3,5.8,8.8,6.3c1.2,0.2,2.5,0.4,3.9,0.5l0.2,0l0.2,0
					c1.2,0.1,2.4,0.1,3.6,0.1c1.2,0,2.5,0,3.7-0.1c2-0.1,4-0.1,5.9-0.1c1.2,0,2.2,0.1,3.1,0.2c1.1,0.2,2.4,0.5,3.8,0.8
					c0.8,0.2,1.7,0.4,2.6,0.6c-1.3,1.2-2.3,2.3-3.2,3.3c-2.1,2.3-3.7,3.3-4.7,3.9c-1.9,1-4.3,2-7.3,2.9c-0.1,0-0.2,0-0.3,0l0,0l0,0
					c-1.1-0.1-2.1-0.2-3.2-0.4c-1.4-0.2-2.8-0.4-4.1-0.5c-0.5,0-0.9-0.1-1.3-0.1c-3.1,0-6.1,1-8.9,3l-0.1,0.1l-0.1,0.1
					c-4.2,3.2-6.6,7.7-6.6,12.4c0,2.5,0.7,5.2,2.1,8.4c1.4,3.2,3.1,5.6,5.1,7.4l0.2,0.2l0.2,0.2c1.6,1.3,3.4,2.4,5.4,3.4
					c1.6,0.8,3.3,1.4,4.9,2c2.4,0.8,4.7,1.2,7,1.2c0.8,0,1.7-0.1,2.5-0.2c2-0.3,4.2-0.7,6.4-1.4c3.3-0.9,6.5-2.1,9.7-3.7
					c3-1.5,5.9-3.2,8.5-5.1l0.1,0l0.1,0c2.6-1.9,5-3.8,7.3-5.8c2.7-2.3,5.1-4.9,7.3-7.8c1.8-2.4,3.7-4.9,5.4-7.5
					c2-2.9,3.6-5.8,5-8.8c1.8-3.9,2.7-7.4,2.9-10.7c0.2-3.4-0.3-6.7-1.5-9.8c-1.1-2.7-2.6-5.3-4.7-7.7c-1.4-1.7-3-3.5-4.7-5.4
					l-0.2-0.2l-0.2-0.2c-1.4-1.4-3-2.6-4.8-3.6c2.7-1.5,4.8-3.9,6.1-7l0-0.1l0-0.1c0.5-1.2,0.9-2.5,1.2-4.1c0.4-1.9,0.7-3.7,0.7-5.5
					c0-1.9-0.3-3.8-0.9-5.6c-0.9-2.6-2.4-4.8-4.4-6.4l-0.2-0.2l-0.2-0.2c-2.8-2-6.3-3.3-10.3-3.7
					C226.7,198.8,225.6,198.7,224.6,198.7L224.6,198.7z"/>
			</g>
			<g>
				<path class="st6" d="M262.6,290.7c-2.1,0-4.3-0.7-6.9-2.2c-3-1.8-5.1-4-6.2-6.6c-1.1-2.5-1.4-5.3-1-8.1c0.7-4.8,1.6-9.5,2.7-14
					c1-4.2,1.9-8.7,2.7-13.2c0.5-2.7,0.9-5.4,1.1-8c0.3-3.3,1.1-6.5,2.3-9.5c1-2.5,2.4-4.7,4.2-6.7c2.2-2.6,5.3-4.1,9-4.4
					c0.4,0,0.9-0.1,1.3-0.1c3.1,0,5.9,1.1,8,3.3c1.3,1.3,2.6,2.7,4,4.1l0.1,0.1c4,4.2,8.5,8.3,13.3,12c4.7,3.7,9.7,6.9,14.8,9.5
					l0.2,0.1c1,0.5,2.1,1.2,3.3,2c1.1,0.6,2.2,1.3,3.3,1.8c0.4,0.2,0.8,0.4,1.1,0.5c0-0.4-0.1-0.8-0.1-1.2c-0.2-0.9-0.3-1.9-0.4-2.8
					c-0.5-4.2-1.1-8.5-1.7-12.6c-0.6-4.1-1.3-8.4-2.1-12.8c-0.2-1.1-0.4-2-0.6-2.8c-0.3-1.2-0.4-2.4-0.4-3.5c0-2,0.6-3.8,1.7-5.3
					c1.2-1.6,3.1-2.7,5.7-3.3c1.4-0.4,2.8-0.5,4.2-0.5c1.3,0,2.6,0.2,3.9,0.5c2.2,0.5,5.3,2,7.7,6c1.7,2.6,2.8,5.4,3.3,8.4
					c0.4,2.3,0.7,4.5,1,6.6c0.5,2.8,1,5.6,1.4,8.4c0.4,2.9,0.8,5.8,1.1,8.6c0.3,2.9,0.6,5.8,0.9,8.8c0.3,3,0.4,6.1,0.4,9
					c0,5.4-0.6,10.5-1.7,15.1l0,0.1c-0.7,2.4-2.1,4.3-4.3,5.6c-1.7,1-3.7,1.5-5.8,1.5c-2.1,0-4.3-0.4-6.8-1.2
					c-2.2-0.7-4.3-1.5-6.4-2.5c-2-0.9-3.9-1.9-5.7-2.9c-1.7-0.9-3-1.7-4.1-2.4c-5.5-3.1-10.8-6.4-16-9.9c-4.9-3.4-10-6.8-15.1-10.2
					c-0.3,0.9-0.6,1.8-0.9,2.6l-0.1,0.2l-0.1,0.2c-1.1,2.4-2,4.9-2.8,7.4c-0.9,2.6-1.7,5.3-2.5,7.9c-0.2,0.9-0.5,2-0.6,3.2
					c-0.2,1.7-0.6,3.3-1,4.7c-0.5,1.9-1.3,3.5-2.3,4.9C267.9,289.4,265.5,290.7,262.6,290.7z"/>
				<path d="M326.2,211.3c0.9,0,1.8,0.1,2.7,0.3c1.9,0.5,3.4,1.7,4.6,3.8c1.3,2.1,2.2,4.2,2.6,6.5c0.4,2.3,0.7,4.5,1,6.7
					c0.5,2.8,1,5.6,1.4,8.4c0.4,2.8,0.8,5.6,1.1,8.4c0.3,2.9,0.6,5.8,0.9,8.7c0.3,2.9,0.4,5.7,0.4,8.5c0,5.1-0.5,9.7-1.6,14
					c-0.3,1.1-1,2-1.9,2.6c-1,0.6-2.1,0.9-3.3,0.9c-1.6,0-3.3-0.3-5.3-0.9c-2-0.6-3.9-1.4-5.8-2.2c-1.9-0.9-3.7-1.8-5.3-2.7
					c-1.7-0.9-3-1.7-4-2.3c-5.4-3-10.6-6.2-15.7-9.7c-5.1-3.5-10.2-6.9-15.5-10.5c-1.3-0.8-2.4-1.3-3.2-1.3c-0.1,0-0.2,0-0.3,0
					c-0.9,0.1-1.6,0.5-2.2,1.2c-0.6,0.7-1,1.5-1.4,2.6c-0.4,1-0.7,2-1,2.9c-1.1,2.6-2.1,5.2-3,7.9c-0.9,2.7-1.7,5.4-2.6,8.1
					c-0.3,1.1-0.6,2.4-0.8,3.9c-0.2,1.4-0.5,2.8-0.9,4.1c-0.4,1.3-0.9,2.4-1.5,3.3c-0.7,0.9-1.6,1.4-2.9,1.4c-1.1,0-2.6-0.5-4.3-1.5
					c-2.1-1.2-3.5-2.7-4.2-4.3c-0.7-1.7-0.9-3.4-0.6-5.3c0.7-4.8,1.6-9.3,2.6-13.6c1-4.3,2-8.8,2.8-13.5c0.5-2.8,0.9-5.6,1.2-8.4
					c0.3-2.8,0.9-5.5,1.9-8c0.8-2,1.9-3.7,3.3-5.3c1.4-1.6,3.3-2.5,5.7-2.7c0.3,0,0.6,0,0.8,0c1.8,0,3.2,0.6,4.4,1.7
					c1.3,1.3,2.7,2.7,4.1,4.2c4.2,4.4,8.8,8.6,13.8,12.5c5,3.9,10.2,7.2,15.7,10c0.9,0.5,2,1.1,3.2,1.9c1.2,0.7,2.4,1.4,3.6,2
					c1.2,0.6,2.4,1.1,3.6,1.3c0.4,0.1,0.7,0.1,1.1,0.1c0.7,0,1.3-0.2,1.9-0.5c1.2-0.7,1.9-2.2,1.9-4.5c0-0.8-0.1-1.7-0.2-2.5
					c-0.2-0.8-0.3-1.7-0.4-2.5c-0.5-4.2-1.1-8.5-1.7-12.7c-0.6-4.2-1.3-8.6-2.2-13c-0.2-1.1-0.4-2.1-0.6-3c-0.2-0.9-0.3-1.7-0.3-2.4
					c0-0.9,0.2-1.7,0.7-2.3c0.5-0.6,1.4-1.1,2.9-1.4C324.1,211.5,325.1,211.3,326.2,211.3 M326.2,201.3c-1.8,0-3.6,0.2-5.4,0.7
					c-3.8,0.8-6.6,2.6-8.5,5.1c-1.8,2.4-2.7,5.2-2.7,8.3c0,1.5,0.2,3.1,0.6,4.7c0.2,0.7,0.3,1.5,0.5,2.5c0.8,4.3,1.5,8.6,2.1,12.7
					c0.3,2.2,0.6,4.4,0.9,6.7c-4.7-2.4-9.2-5.3-13.4-8.6c-4.6-3.6-8.8-7.4-12.7-11.5l-0.1-0.1l-0.1-0.1c-1.4-1.4-2.7-2.7-4-4
					c-3-3.2-7-4.8-11.6-4.8c-0.6,0-1.2,0-1.8,0.1c-4.9,0.4-9.2,2.6-12.3,6.1c-2.1,2.4-3.8,5.1-5,8c-1.4,3.4-2.3,7.1-2.7,11
					c-0.2,2.5-0.6,5-1,7.5l0,0l0,0c-0.8,4.4-1.7,8.8-2.7,12.9c-1.1,4.6-2,9.4-2.8,14.4c-0.6,3.8-0.2,7.4,1.3,10.8
					c1.6,3.6,4.3,6.6,8.2,8.9l0,0l0,0c3.4,2,6.4,2.9,9.4,2.9c4.4,0,8.4-2,11-5.5c1.4-1.9,2.4-4.1,3.1-6.5c0.5-1.7,0.9-3.5,1.1-5.4
					c0.1-1,0.3-1.8,0.5-2.5c0.8-2.5,1.6-5.1,2.5-7.7c0.5-1.5,1-2.9,1.6-4.4c3.3,2.2,6.6,4.5,9.8,6.7c5.2,3.6,10.7,7,16.3,10.1
					c1.1,0.7,2.5,1.4,4.1,2.4c1.9,1.1,3.9,2.1,6.1,3.1c2.3,1,4.6,1.9,7,2.7c2.9,0.9,5.7,1.4,8.3,1.4c3,0,5.8-0.7,8.3-2.2
					c3.2-1.9,5.6-4.9,6.6-8.6l0-0.1l0-0.1c1.2-5,1.8-10.5,1.8-16.3c0-3.1-0.1-6.2-0.4-9.4c-0.3-3-0.6-6-0.9-8.9
					c-0.3-2.9-0.7-5.8-1.1-8.8c-0.4-2.8-0.9-5.7-1.4-8.5c-0.3-2.1-0.6-4.3-1-6.6c-0.6-3.6-1.9-7-4-10.2c-3.3-5.4-7.6-7.4-10.7-8.2
					C329.6,201.5,327.9,201.3,326.2,201.3L326.2,201.3z"/>
			</g>
			<g>
				<path class="st6" d="M381.3,313.2c-0.9,0-1.7,0-2.6-0.1c-6.7-0.5-12.4-2.9-17.1-7.2c-4.8-4.3-7.7-9.9-8.6-16.5
					c-0.3-2.4-0.5-5.4-0.5-9.3c0-3.2,0.1-6.6,0.2-10.2c0.2-3.7,0.3-7.2,0.5-10.6c0.2-3.4,0.4-6.7,0.5-9.8c0.1-3,0.2-5.5,0.2-7.5
					c0-2,0.2-4.3,0.6-6.8c0.4-2.8,1.2-5.3,2.4-7.6c1.4-2.7,3.3-4.8,5.7-6.3c1.7-1,3.6-1.5,5.6-1.5c1.5,0,3.1,0.3,4.7,0.8
					c2.8,0.9,4.7,2.2,5.9,4.1c1,1.6,1.5,3.5,1.5,5.6c0,0.9-0.1,1.8-0.2,2.7c-0.1,0.6-0.2,1.3-0.3,2.1l0,0.2l0,0.2
					c-0.4,1.9-0.7,4.3-1,7.1c-0.3,3-0.6,6.2-0.8,9.4c-0.3,3.3-0.4,6.7-0.5,10.1c-0.1,3.4-0.2,6.7-0.2,9.8v5.4c0,1.4,0,2.8,0.1,4.1
					c0.2,1.6,0.5,2.9,1,4l0,0c0,0,0.4,0.4,1.6,0.7l0.2,0.1c0.5,0.2,1,0.3,1.5,0.4c0.1,0,0.4,0.1,1,0.1c1.2,0,2.4-0.1,3.6-0.4
					c1.5-0.3,2.8-0.7,4.1-1.1l0.2,0l0.2,0c1.7-0.4,3.4-1.1,5.2-2.2c1.8-1.1,3.3-2.2,4.5-3.5c0.7-0.9,1-1.7,1.1-2.7
					c0.2-1.8,0.3-3.6,0.3-5.5c0-2.3,0-5.4-0.1-9.5c-0.1-4.1-0.1-8.3-0.2-12.7c-0.1-4.3-0.3-8.6-0.5-12.6c-0.2-4-0.4-7.1-0.6-9.2
					l0-0.2v-0.2c0-0.9,0-1.9-0.1-2.8c-0.1-1.4,0-2.9,0.4-4.2c0.4-1.5,1-2.9,1.9-4.2c1.1-1.5,2.7-2.7,4.8-3.5c2.1-0.8,4-1.3,5.8-1.3
					c3.9,0,7.2,1.7,9.3,4.8c1.6,2.3,2.7,5.1,3.3,8.2c0.5,2.7,0.8,5.6,0.9,8.5c0.1,2.6,0.1,4.8,0.2,6.6c0.1,1.9,0.2,4.7,0.4,8.4
					c0.2,3.6,0.3,7.5,0.4,11.6c0.1,4,0.2,7.8,0.3,11.5c0.1,3.8,0.2,6.5,0.2,8.4c0,3-0.5,6.1-1.5,9.3c-1.1,3.7-3.1,6.7-5.9,8.9
					c-2.8,2.2-5.8,4.4-9,6.4c-3.2,2-6.7,3.8-10.2,5.4c-3.6,1.6-7.4,2.8-11.1,3.6C387.4,312.9,384.3,313.2,381.3,313.2z"/>
				<path d="M413.1,215.8c2.3,0,4,0.9,5.2,2.6c1.2,1.8,2,3.9,2.5,6.4c0.5,2.5,0.7,5,0.8,7.7c0.1,2.6,0.1,4.9,0.2,6.7
					c0.1,1.9,0.2,4.6,0.4,8.3c0.2,3.7,0.3,7.5,0.4,11.5c0.1,4,0.2,7.9,0.3,11.5c0.1,3.6,0.2,6.4,0.2,8.2c0,2.5-0.4,5.1-1.2,7.8
					c-0.8,2.7-2.2,4.9-4.2,6.4c-2.7,2.2-5.6,4.2-8.6,6.1c-3,1.9-6.2,3.6-9.5,5c-3.3,1.4-6.7,2.5-10.2,3.3c-2.7,0.6-5.4,0.8-8,0.8
					c-0.8,0-1.5,0-2.3-0.1c-5.5-0.4-10.2-2.4-14.1-5.9c-3.9-3.5-6.3-8-7-13.5c-0.3-2.2-0.5-5.1-0.5-8.7c0-3.1,0.1-6.4,0.2-10
					c0.2-3.6,0.3-7.1,0.5-10.5c0.2-3.5,0.4-6.7,0.5-9.8c0.2-3.1,0.2-5.7,0.2-7.8c0-1.8,0.2-3.8,0.5-6c0.4-2.3,1-4.3,1.9-6.2
					c0.9-1.9,2.2-3.3,3.8-4.3c0.9-0.5,1.9-0.8,3-0.8c1,0,2,0.2,3.1,0.6c1.7,0.5,2.7,1.2,3.3,2c0.5,0.8,0.8,1.8,0.8,2.9
					c0,0.6-0.1,1.3-0.2,1.9c-0.1,0.7-0.2,1.4-0.3,2.2c-0.4,2.1-0.8,4.6-1.1,7.6c-0.3,3-0.6,6.2-0.9,9.5c-0.3,3.4-0.4,6.8-0.5,10.3
					c-0.1,3.5-0.2,6.8-0.2,9.9c0,2.1,0,3.9,0,5.4c0,1.5,0.1,3,0.2,4.5c0.2,2.2,0.7,4.1,1.4,5.7c0.7,1.6,2.3,2.8,4.8,3.5
					c0.6,0.2,1.2,0.4,1.9,0.5c0.6,0.2,1.3,0.2,2.2,0.2c1.5,0,3.1-0.2,4.7-0.5c1.6-0.4,3.1-0.8,4.4-1.2c2.2-0.5,4.4-1.5,6.6-2.8
					c2.2-1.3,4.1-2.8,5.7-4.5c1.3-1.7,2.1-3.5,2.3-5.4c0.2-2,0.3-4,0.3-6.1c0-2.3,0-5.5-0.1-9.5c-0.1-4.1-0.1-8.3-0.2-12.7
					c-0.1-4.4-0.3-8.6-0.5-12.7c-0.2-4.1-0.4-7.2-0.6-9.4c0-1,0-2-0.1-3c-0.1-1,0-1.9,0.2-2.8c0.2-0.9,0.6-1.7,1.1-2.4
					c0.5-0.7,1.3-1.3,2.5-1.7C410.7,216.1,412,215.8,413.1,215.8 M413.1,205.8c-2.4,0-4.9,0.5-7.6,1.6c-3,1.1-5.4,2.9-7,5.2
					c-1.3,1.8-2.2,3.8-2.7,5.9c-0.4,1.8-0.6,3.7-0.5,5.6c0,0.8,0.1,1.6,0.1,2.5v0.5l0,0.5c0.2,2,0.4,5,0.6,9c0.2,4,0.4,8.2,0.5,12.5
					c0.1,4.4,0.2,8.6,0.2,12.6c0.1,4.2,0.1,7.2,0.1,9.4c0,1.7-0.1,3.4-0.3,5c0,0,0,0,0,0c-0.9,0.9-1.9,1.7-3.2,2.5
					c-1.3,0.8-2.6,1.3-3.7,1.6l-0.3,0.1l-0.3,0.1c-1.1,0.3-2.3,0.7-3.7,1c-0.9,0.2-1.7,0.3-2.5,0.3c-0.1,0-0.1,0-0.2,0
					c0-0.2-0.1-0.5-0.1-0.7c-0.1-1.2-0.1-2.4-0.1-3.7v-5.4c0-3,0.1-6.3,0.2-9.6c0.1-3.3,0.3-6.6,0.5-9.8c0.2-3.2,0.5-6.3,0.8-9.3
					c0.3-2.7,0.6-4.9,0.9-6.7l0.1-0.4l0-0.4c0.1-0.7,0.2-1.3,0.3-1.9c0.2-1.2,0.3-2.4,0.3-3.5c0-3-0.8-5.8-2.3-8.2
					c-1.8-2.9-4.7-5-8.7-6.2c-2.1-0.7-4.2-1.1-6.2-1.1c-3,0-5.8,0.8-8.2,2.3c-3.2,2-5.7,4.8-7.5,8.3c-1.4,2.8-2.4,5.8-2.9,9.1
					c-0.4,2.8-0.7,5.3-0.7,7.6c0,1.9-0.1,4.3-0.2,7.2c-0.1,3-0.3,6.3-0.5,9.7c-0.2,3.4-0.4,7-0.6,10.7c-0.2,3.7-0.2,7.2-0.2,10.4
					c0,4.1,0.2,7.4,0.6,10c1,7.8,4.5,14.4,10.2,19.5c5.6,5,12.3,7.9,20,8.4l0.1,0l0.1,0c0.9,0.1,1.9,0.1,2.9,0.1
					c3.3,0,6.7-0.4,10.1-1.1c4.1-0.9,8.2-2.2,12.1-3.9c3.7-1.6,7.4-3.6,10.8-5.7c3.4-2.1,6.6-4.4,9.5-6.8c3.6-2.8,6.1-6.6,7.5-11.3
					c1.1-3.7,1.7-7.3,1.7-10.7c0-1.9-0.1-4.7-0.2-8.5c-0.1-3.6-0.2-7.4-0.3-11.4c-0.1-4.1-0.2-8.1-0.4-11.7
					c-0.1-3.5-0.3-6.4-0.4-8.4c-0.1-1.7-0.2-3.9-0.2-6.4c-0.1-3.2-0.4-6.3-0.9-9.3c-0.7-3.8-2.1-7.2-4-10.1
					C423.6,208.3,418.8,205.8,413.1,205.8L413.1,205.8z"/>
			</g>
			<g>
				<path class="st6" d="M452.3,304.7c-1.8,0-3.6-0.3-5.4-1c-1.4-0.5-2.8-1.1-4.3-1.8c-1.6-0.8-3.1-1.7-4.4-2.8l-0.1-0.1l-0.1-0.1
					c-1.5-1.3-2.8-3.2-3.9-5.7c-1.1-2.6-1.7-4.6-1.7-6.4c0-2.3,0.8-5.6,4.6-8.5l0.1-0.1c1.9-1.4,3.9-2.1,5.9-2.1c0.3,0,0.5,0,0.8,0
					c1.2,0.1,2.5,0.3,3.8,0.5c1.2,0.2,2.4,0.3,3.6,0.4c0.2,0,0.3,0,0.4,0c0.6,0,1.1-0.1,1.7-0.3c3.3-1,6-2.1,8.2-3.3
					c1.9-1,4-2.7,6-4.9c0.8-1,2-2.1,3.3-3.4c1-1,1.9-2,2.8-3.1c0.6-0.9,1.1-1.7,1.3-2.6c0.1-0.3,0.1-0.5-0.1-0.9
					c0-0.1-0.1-0.1-0.1-0.2c-0.5-0.3-1.1-0.5-1.7-0.6c-0.9-0.2-1.9-0.3-2.9-0.4c-1.6-0.1-3.1-0.4-4.4-0.8c-1.5-0.4-2.9-0.7-4.2-0.9
					c-1.2-0.2-2.5-0.3-3.9-0.3c-2,0-4,0-6.1,0.1c-1.2,0.1-2.3,0.1-3.5,0.1c-1.1,0-2.3,0-3.4-0.1l-0.2,0c-1.3-0.1-2.4-0.3-3.4-0.5
					c-2.2-0.4-4.1-1.8-5.6-4.1c-1.7-2.5-2.5-5.7-2.5-9.6c0-4.1,0.9-8.4,2.5-12.5c1.8-4.3,3.8-7.5,6.1-9.5c2.6-2.3,5.8-4.5,9.7-6.4
					c3.6-1.8,7-3.2,10-4.3c2.3-0.9,4.6-1.6,6.9-2.3c2.1-0.6,4.3-1.3,6.5-2c1.5-0.5,3.2-0.8,5.1-0.8c0.9,0,1.8,0.1,2.7,0.2
					c3.2,0.4,5.9,1.3,8,2.8l0.1,0.1l0.1,0.1c1.3,1,2.2,2.4,2.8,4.1c0.4,1.3,0.6,2.6,0.6,4c0,1.4-0.2,2.9-0.5,4.3
					c-0.3,1.3-0.7,2.4-1,3.5l0,0.1c-1.2,2.9-3.1,4.2-4.6,4.8c-1.2,0.5-2.5,0.8-3.9,0.9l-0.3,0h-0.3c-1.3,0-2.6,0-3.8,0.1
					c-0.8,0.1-1.7,0.3-2.6,0.6c-1.8,0.7-3.7,1.5-5.7,2.2c-0.2,0.1-0.4,0.1-0.6,0.2c1.1,0.1,2.3,0.2,3.4,0.3c3.4,0.4,6.6,1.1,9.6,2
					c3.5,1.1,6.3,2.7,8.4,4.8l0.1,0.1l0.1,0.1c1.7,1.9,3.2,3.7,4.6,5.3c1.7,2,3,4.1,3.8,6.3c0.9,2.4,1.3,4.9,1.2,7.7
					c-0.1,2.7-0.9,5.6-2.5,8.9c-1.2,2.7-2.8,5.4-4.6,8.1c-1.7,2.5-3.5,4.9-5.3,7.3c-2,2.7-4.2,5-6.6,7.1c-2.2,1.9-4.6,3.7-7,5.6
					c-2.4,1.7-5.1,3.3-7.9,4.7c-2.9,1.4-5.8,2.6-8.8,3.4c-2,0.6-3.9,1-5.7,1.2C453.5,304.6,452.9,304.7,452.3,304.7z"/>
				<path d="M479.9,208.7c0.7,0,1.4,0,2.2,0.1c2.3,0.3,4.2,0.9,5.7,1.9c0.5,0.4,0.9,1,1.2,1.8c0.3,0.8,0.4,1.6,0.4,2.4
					c0,1-0.1,2.1-0.4,3.2c-0.3,1.1-0.5,2-0.9,2.9c-0.4,1-1,1.7-1.8,2c-0.8,0.3-1.6,0.5-2.6,0.6c-1.4,0-2.8,0.1-4.2,0.2
					c-1.3,0.1-2.7,0.4-4,0.9c-1.8,0.7-3.6,1.4-5.5,2.1c-1.9,0.7-3.7,1.4-5.5,2.2c-0.6,0.3-1.5,0.9-2.7,1.6c-1.2,0.8-2.3,1.6-3.3,2.5
					c-1,0.9-1.7,1.6-2,2.2c-0.4,0.6-0.1,0.9,0.9,0.9c2,0,4.4,0,7.4,0.1c3,0.1,6,0.3,9.1,0.6c3.1,0.4,6,1,8.7,1.8
					c2.7,0.8,4.8,2,6.4,3.6c1.7,1.9,3.2,3.6,4.5,5.2c1.3,1.6,2.3,3.3,3,5c0.7,1.7,1,3.6,0.9,5.6c-0.1,2-0.8,4.4-2,7.1
					c-1.1,2.5-2.5,4.9-4.2,7.4c-1.7,2.4-3.4,4.8-5.1,7.1c-1.8,2.4-3.7,4.5-5.8,6.3c-2.1,1.8-4.4,3.6-6.7,5.3c-2.2,1.5-4.5,3-7.1,4.3
					c-2.6,1.3-5.2,2.3-7.9,3c-1.8,0.5-3.4,0.9-5,1.1c-0.4,0.1-0.8,0.1-1.2,0.1c-1.2,0-2.5-0.2-3.8-0.7c-1.2-0.4-2.5-0.9-3.8-1.5
					c-1.3-0.6-2.5-1.3-3.5-2.2c-0.9-0.8-1.8-2.2-2.6-4c-0.8-1.9-1.2-3.3-1.2-4.3c0-1.7,0.9-3.2,2.6-4.5c1-0.7,2-1.1,3-1.1
					c0.1,0,0.2,0,0.4,0c1.1,0.1,2.2,0.3,3.5,0.5c1.3,0.2,2.7,0.4,4,0.5c0.3,0,0.5,0,0.8,0c1.1,0,2.1-0.2,3.2-0.5
					c3.6-1.1,6.6-2.3,9.1-3.6c2.4-1.3,4.9-3.3,7.4-6c0.8-0.9,1.9-2,3.1-3.2c1.2-1.2,2.3-2.5,3.3-3.8c1-1.3,1.7-2.7,2.1-4.2
					c0.4-1.4,0.3-2.9-0.3-4.3c-0.5-1.1-1.2-2-2.2-2.5c-0.9-0.5-2-0.9-3.1-1.2c-1.1-0.3-2.4-0.4-3.6-0.5c-1.3-0.1-2.5-0.3-3.5-0.6
					c-1.7-0.4-3.2-0.7-4.6-1c-1.4-0.3-3-0.4-4.8-0.4c-2.1,0-4.2,0.1-6.4,0.2c-1.1,0.1-2.2,0.1-3.2,0.1s-2.1,0-3.1-0.1
					c-1.1-0.1-2.1-0.2-2.9-0.4c-0.8-0.2-1.6-0.8-2.3-1.9c-1.1-1.7-1.7-3.9-1.7-6.8c0-3.5,0.7-7.1,2.2-10.6c1.4-3.6,3-6.1,4.8-7.7
					c2.3-2.1,5.1-4,8.6-5.7c3.5-1.7,6.6-3.1,9.5-4.1c2.2-0.8,4.3-1.6,6.5-2.2c2.2-0.6,4.4-1.3,6.7-2
					C477.3,208.9,478.5,208.7,479.9,208.7 M479.9,198.7L479.9,198.7c-2.4,0-4.7,0.3-6.7,1c-2.1,0.7-4.3,1.3-6.3,1.9
					c-2.4,0.7-4.8,1.5-7.2,2.4c-3.2,1.2-6.7,2.7-10.5,4.5c-4.3,2.1-7.9,4.5-10.9,7.2c-2.9,2.6-5.4,6.3-7.4,11.4
					c-1.9,4.7-2.9,9.6-2.9,14.4c0,4.9,1.1,9,3.4,12.3c2.8,4.3,6.3,5.8,8.8,6.3c1.2,0.2,2.5,0.4,3.9,0.5l0.2,0l0.2,0
					c1.2,0.1,2.4,0.1,3.6,0.1c1.2,0,2.5,0,3.7-0.1c2-0.1,4-0.1,5.9-0.1c1.2,0,2.2,0.1,3.1,0.2c1.1,0.2,2.4,0.5,3.8,0.8
					c0.8,0.2,1.7,0.4,2.6,0.6c-1.3,1.2-2.3,2.3-3.2,3.3c-2.1,2.3-3.7,3.3-4.7,3.9c-1.9,1-4.3,2-7.3,2.9c-0.1,0-0.2,0-0.3,0l0,0l0,0
					c-1.1-0.1-2.1-0.2-3.2-0.4c-1.4-0.2-2.8-0.4-4.1-0.5c-0.5,0-0.9-0.1-1.3-0.1c-3.1,0-6.1,1-8.9,3l-0.1,0.1l-0.1,0.1
					c-4.2,3.2-6.6,7.7-6.6,12.4c0,2.5,0.7,5.2,2.1,8.4c1.4,3.2,3.1,5.6,5.1,7.4l0.2,0.2l0.2,0.2c1.6,1.3,3.4,2.4,5.4,3.4
					c1.6,0.8,3.3,1.4,4.9,2c2.4,0.8,4.7,1.2,7,1.2c0.8,0,1.7-0.1,2.5-0.2c2-0.3,4.2-0.7,6.4-1.4c3.3-0.9,6.5-2.1,9.7-3.7
					c3-1.5,5.9-3.2,8.5-5.1l0.1,0l0.1,0c2.6-1.9,5-3.8,7.3-5.8c2.7-2.3,5.1-4.9,7.3-7.8c1.8-2.4,3.7-4.9,5.4-7.5
					c2-2.9,3.6-5.8,5-8.8c1.8-3.9,2.7-7.4,2.9-10.7c0.2-3.5-0.3-6.7-1.5-9.8c-1.1-2.7-2.6-5.3-4.7-7.7c-1.4-1.7-3-3.5-4.7-5.4
					l-0.2-0.2l-0.2-0.2c-1.4-1.4-3-2.6-4.8-3.6c2.7-1.5,4.8-3.9,6.1-7l0-0.1l0-0.1c0.5-1.2,0.9-2.5,1.2-4.1c0.4-1.9,0.7-3.7,0.7-5.5
					c0-1.9-0.3-3.8-0.9-5.6c-0.9-2.6-2.4-4.8-4.4-6.4l-0.2-0.2l-0.2-0.2c-2.8-2-6.3-3.3-10.3-3.7C482,198.8,480.9,198.7,479.9,198.7
					L479.9,198.7z"/>
			</g>
		</g>
	</g>
</g>
<g id="_x32_40">
	<g class="st7">
		<path class="st8" d="M171.9,81.8c0-0.5,0.2-1.1,0.6-1.4c0.4-0.4,0.9-0.6,1.4-0.6c15.6,0,116.7,0,153.7,0c3.6,0,7,1.4,9.5,3.9
			s3.9,6,3.9,9.5c0,9.2,0,21.4,0,30.6c0,3.6-1.4,7-3.9,9.5c-2.5,2.5-6,3.9-9.5,3.9c-31.3,0-108,0-132.1,0c-4.1,0-7.4,3.3-7.4,7.4
			c0,7.7,0,18.6,0,18.6s132.9,0,151,0c0.5,0,1.1,0.2,1.4,0.6c0.4,0.4,0.6,0.9,0.6,1.4c0,3.9,0,12.3,0,16.2c0,0.5-0.2,1.1-0.6,1.4
			c-0.4,0.4-0.9,0.6-1.4,0.6c-17.8,0-147.4,0-165.2,0c-0.5,0-1.1-0.2-1.4-0.6c-0.4-0.4-0.6-0.9-0.6-1.4c0-6.8,0-29.4,0-44.2
			c0-7.4,6-13.5,13.5-13.5c31.3,0,108,0,132.1,0c4.1,0,7.4-3.3,7.4-7.4c0-2.9,0-6.2,0-9.1c0-4.1-3.3-7.4-7.4-7.4
			c-28.2,0-128.1,0-143.6,0c-0.5,0-1.1-0.2-1.4-0.6c-0.4-0.4-0.6-0.9-0.6-1.4C171.9,94.1,171.9,85.7,171.9,81.8z"/>
		<path class="st8" d="M587.3,100c-4.1,0-7.4,3.3-7.4,7.4c0,12.2,0,36.3,0,48.5c0,4.1,3.3,7.4,7.4,7.4c22.9,0,92.2,0,115.1,0
			c4.1,0,7.4-3.3,7.4-7.4c0-12.2,0-36.3,0-48.5c0-4.1-3.3-7.4-7.4-7.4C679.5,100,610.2,100,587.3,100z M712.5,79.8
			c7.4,0,13.5,6,13.5,13.5c0,19.9,0,56.9,0,76.8c0,7.4-6,13.5-13.5,13.5c-30.6,0-104.8,0-135.4,0c-7.4,0-13.5-6-13.5-13.5
			c0-19.9,0-56.9,0-76.8c0-7.4,6-13.5,13.5-13.5C607.7,79.8,682,79.8,712.5,79.8z"/>
		<path class="st8" d="M510.4,107.4c0-4.1-3.3-7.4-7.4-7.4c-9,0-23.6,0-28,0c-0.8,0-1.6,0.2-2.3,0.7c-10.1,7-91.1,62.7-91.1,62.7
			s93.9,0,121.3,0c4.1,0,7.4-3.3,7.4-7.4C510.4,143.7,510.4,119.6,510.4,107.4z M357.4,165.1c0-1.1,0.5-2.1,1.5-2.8
			c12.6-8.7,103-71.3,117.3-81.3c1.2-0.9,2.7-1.3,4.2-1.3c5.8,0,21.3,0,32.7,0c3.6,0,7,1.4,9.5,3.9c2.5,2.5,3.9,6,3.9,9.5
			c0,18.7,0,51.8,0,64.7c0,1.4,0.6,2.8,1.6,3.8s2.4,1.6,3.8,1.6c4.4,0,10.4,0,13.5,0c0.5,0,1.1,0.2,1.4,0.6c0.4,0.4,0.6,0.9,0.6,1.4
			c0,3.9,0,12.3,0,16.2c0,0.5-0.2,1.1-0.6,1.4c-0.4,0.4-0.9,0.6-1.4,0.6c-3.1,0-9.1,0-13.5,0c-1.4,0-2.8,0.6-3.8,1.6
			c-1,1-1.6,2.4-1.6,3.8c0,4.1,0,9.5,0,12.4c0,1.1-0.9,2-2,2c-3.1,0-9,0-12.1,0c-1.1,0-2-0.9-2-2c0-2.9,0-8.3,0-12.4
			c0-1.4-0.6-2.8-1.6-3.8c-1-1-2.4-1.6-3.8-1.6c-25.1,0-129.7,0-145.6,0c-0.5,0-1.1-0.2-1.4-0.6c-0.4-0.4-0.6-0.9-0.6-1.4
			C357.4,177.6,357.4,168.9,357.4,165.1z"/>
	</g>
	<g class="st7">
		<path class="st9" d="M163.9,73.8c0-0.5,0.2-1.1,0.6-1.4c0.4-0.4,0.9-0.6,1.4-0.6c15.6,0,116.7,0,153.7,0c3.6,0,7,1.4,9.5,3.9
			s3.9,6,3.9,9.5c0,9.2,0,21.4,0,30.6c0,3.6-1.4,7-3.9,9.5s-6,3.9-9.5,3.9c-31.3,0-108,0-132.1,0c-4.1,0-7.4,3.3-7.4,7.4
			c0,7.7,0,18.6,0,18.6s132.9,0,151,0c0.5,0,1.1,0.2,1.4,0.6c0.4,0.4,0.6,0.9,0.6,1.4c0,3.9,0,12.3,0,16.2c0,0.5-0.2,1.1-0.6,1.4
			c-0.4,0.4-0.9,0.6-1.4,0.6c-17.8,0-147.4,0-165.2,0c-0.5,0-1.1-0.2-1.4-0.6c-0.4-0.4-0.6-0.9-0.6-1.4c0-6.8,0-29.4,0-44.2
			c0-7.4,6-13.5,13.5-13.5c31.3,0,108,0,132.1,0c4.1,0,7.4-3.3,7.4-7.4c0-2.9,0-6.2,0-9.1c0-4.1-3.3-7.4-7.4-7.4
			c-28.2,0-128.1,0-143.6,0c-0.5,0-1.1-0.2-1.4-0.6c-0.4-0.4-0.6-0.9-0.6-1.4C163.9,86.1,163.9,77.7,163.9,73.8z"/>
		<path class="st9" d="M579.3,92c-4.1,0-7.4,3.3-7.4,7.4c0,12.2,0,36.3,0,48.5c0,4.1,3.3,7.4,7.4,7.4c22.9,0,92.2,0,115.1,0
			c4.1,0,7.4-3.3,7.4-7.4c0-12.2,0-36.3,0-48.5c0-4.1-3.3-7.4-7.4-7.4C671.5,92,602.2,92,579.3,92z M704.5,71.8
			c7.4,0,13.5,6,13.5,13.5c0,19.9,0,56.9,0,76.8c0,7.4-6,13.5-13.5,13.5c-30.6,0-104.8,0-135.4,0c-7.4,0-13.5-6-13.5-13.5
			c0-19.9,0-56.9,0-76.8c0-7.4,6-13.5,13.5-13.5C599.7,71.8,674,71.8,704.5,71.8z"/>
		<path class="st9" d="M502.4,99.4c0-4.1-3.3-7.4-7.4-7.4c-9,0-23.6,0-28,0c-0.8,0-1.6,0.2-2.3,0.7c-10.1,7-91.1,62.7-91.1,62.7
			s93.9,0,121.3,0c4.1,0,7.4-3.3,7.4-7.4C502.4,135.7,502.4,111.6,502.4,99.4z M349.4,157.1c0-1.1,0.5-2.1,1.5-2.8
			c12.6-8.7,103-71.3,117.3-81.3c1.2-0.9,2.7-1.3,4.2-1.3c5.8,0,21.3,0,32.7,0c3.6,0,7,1.4,9.5,3.9c2.5,2.5,3.9,6,3.9,9.5
			c0,18.7,0,51.8,0,64.7c0,1.4,0.6,2.8,1.6,3.8s2.4,1.6,3.8,1.6c4.4,0,10.4,0,13.5,0c0.5,0,1.1,0.2,1.4,0.6c0.4,0.4,0.6,0.9,0.6,1.4
			c0,3.9,0,12.3,0,16.2c0,0.5-0.2,1.1-0.6,1.4c-0.4,0.4-0.9,0.6-1.4,0.6c-3.1,0-9.1,0-13.5,0c-1.4,0-2.8,0.6-3.8,1.6
			c-1,1-1.6,2.4-1.6,3.8c0,4.1,0,9.5,0,12.4c0,1.1-0.9,2-2,2c-3.1,0-9,0-12.1,0c-1.1,0-2-0.9-2-2c0-2.9,0-8.3,0-12.4
			c0-1.4-0.6-2.8-1.6-3.8c-1-1-2.4-1.6-3.8-1.6c-25.1,0-129.7,0-145.6,0c-0.5,0-1.1-0.2-1.4-0.6c-0.4-0.4-0.6-0.9-0.6-1.4
			C349.4,169.6,349.4,160.9,349.4,157.1z"/>
	</g>
	<g>
		<g>
			<path class="st10" d="M179,158.6c-1.9,0-3.6-0.7-5-2.1c-1.3-1.3-2.1-3.1-2.1-5v-44.2c0-10.2,8.3-18.5,18.5-18.5h132.1
				c1.3,0,2.4-1.1,2.4-2.4v-9.1c0-1.3-1.1-2.4-2.4-2.4H179c-1.9,0-3.6-0.7-5-2.1c-1.3-1.3-2.1-3.1-2.1-5V51.8c0-1.9,0.7-3.6,2.1-5
				c1.3-1.3,3.1-2.1,5-2.1h153.7c4.9,0,9.6,1.9,13.1,5.4c3.5,3.5,5.4,8.1,5.4,13.1v30.6c0,4.9-1.9,9.6-5.4,13.1
				c-3.5,3.5-8.1,5.4-13.1,5.4H200.5c-1.3,0-2.4,1.1-2.4,2.4v13.6h146c1.9,0,3.7,0.8,5,2.1c1.3,1.3,2.1,3.1,2.1,5v16.2
				c0,1.9-0.8,3.7-2.1,5c-1.3,1.3-3.1,2.1-5,2.1H179z"/>
			<path d="M332.7,49.8c3.6,0,7,1.4,9.5,3.9c2.5,2.5,3.9,6,3.9,9.5c0,9.2,0,21.4,0,30.6c0,3.6-1.4,7-3.9,9.5c-2.5,2.5-6,3.9-9.5,3.9
				c-31.3,0-108,0-132.1,0c-4.1,0-7.4,3.3-7.4,7.4c0,7.7,0,18.6,0,18.6s132.9,0,151,0c0.5,0,1.1,0.2,1.4,0.6
				c0.4,0.4,0.6,0.9,0.6,1.4c0,3.9,0,12.3,0,16.2c0,0.5-0.2,1.1-0.6,1.4c-0.4,0.4-0.9,0.6-1.4,0.6c-17.8,0-147.4,0-165.2,0
				c-0.5,0-1.1-0.2-1.4-0.6c-0.4-0.4-0.6-0.9-0.6-1.4c0-6.8,0-29.4,0-44.2c0-7.4,6-13.5,13.5-13.5c31.3,0,108,0,132.1,0
				c4.1,0,7.4-3.3,7.4-7.4c0-2.9,0-6.2,0-9.1c0-4.1-3.3-7.4-7.4-7.4c-28.2,0-128.1,0-143.6,0c-0.5,0-1.1-0.2-1.4-0.6
				c-0.4-0.4-0.6-0.9-0.6-1.4c0-3.9,0-12.3,0-16.2c0-0.5,0.2-1.1,0.6-1.4c0.4-0.4,0.9-0.6,1.4-0.6C194.5,49.8,295.7,49.8,332.7,49.8
				 M332.7,39.8H179c-3.2,0-6.2,1.3-8.5,3.5c-2.2,2.2-3.5,5.3-3.5,8.5V68c0,3.2,1.3,6.2,3.5,8.5c2.3,2.3,5.3,3.5,8.5,3.5h141v3.9
				H190.4c-12.9,0-23.5,10.5-23.5,23.5v44.2c0,3.2,1.3,6.2,3.5,8.5c2.3,2.3,5.3,3.5,8.5,3.5h165.2c3.2,0,6.2-1.3,8.5-3.5
				c2.3-2.3,3.5-5.3,3.5-8.5v-16.2c0-3.2-1.3-6.2-3.5-8.5c-2.3-2.3-5.3-3.5-8.5-3.5h-141v-6h129.5c6.3,0,12.2-2.4,16.6-6.9
				c4.4-4.4,6.9-10.3,6.9-16.6V63.2c0-6.3-2.4-12.2-6.9-16.6C344.8,42.2,338.9,39.8,332.7,39.8L332.7,39.8z"/>
		</g>
		<g>
			<path class="st10" d="M582.2,158.6c-10.2,0-18.5-8.3-18.5-18.5V63.2c0-10.2,8.3-18.5,18.5-18.5h135.4c10.2,0,18.5,8.3,18.5,18.5
				v76.8c0,10.2-8.3,18.5-18.5,18.5H582.2z M592.3,75c-1.3,0-2.4,1.1-2.4,2.4v48.5c0,1.3,1.1,2.4,2.4,2.4h115.1
				c1.3,0,2.4-1.1,2.4-2.4V77.4c0-1.3-1.1-2.4-2.4-2.4H592.3z"/>
			<path d="M717.5,49.8c7.4,0,13.5,6,13.5,13.5c0,19.9,0,56.9,0,76.8c0,7.4-6,13.5-13.5,13.5c-30.6,0-104.8,0-135.4,0
				c-7.4,0-13.5-6-13.5-13.5c0-19.9,0-56.9,0-76.8c0-7.4,6-13.5,13.5-13.5C612.7,49.8,687,49.8,717.5,49.8 M592.3,133.4
				c22.9,0,92.2,0,115.1,0c4.1,0,7.4-3.3,7.4-7.4c0-12.2,0-36.3,0-48.5c0-4.1-3.3-7.4-7.4-7.4c-22.9,0-92.2,0-115.1,0
				c-4.1,0-7.4,3.3-7.4,7.4c0,12.2,0,36.3,0,48.5C584.9,130,588.2,133.4,592.3,133.4 M717.5,39.8H582.2c-12.9,0-23.5,10.5-23.5,23.5
				v76.8c0,12.9,10.5,23.5,23.5,23.5h135.4c12.9,0,23.5-10.5,23.5-23.5V63.2C741,50.3,730.5,39.8,717.5,39.8L717.5,39.8z M594.9,80
				h110v43.4h-110V80L594.9,80z"/>
		</g>
		<g>
			<path class="st10" d="M517.4,178.4c-3.9,0-7-3.2-7-7V159c0-0.1,0-0.2-0.1-0.3c-0.1-0.1-0.2-0.1-0.3-0.1H364.4
				c-1.9,0-3.6-0.7-5-2.1c-1.3-1.3-2.1-3.1-2.1-5v-16.4c0-2.7,1.3-5.3,3.6-6.9L478.3,47c2.1-1.4,4.5-2.2,7.1-2.2h32.7
				c4.9,0,9.6,1.9,13.1,5.4c3.5,3.5,5.4,8.1,5.4,13.1V128c0,0.1,0,0.2,0.1,0.3c0.1,0.1,0.2,0.1,0.3,0.1h13.5c1.9,0,3.6,0.7,5,2.1
				c1.3,1.3,2.1,3.1,2.1,5v16.2c0,1.9-0.7,3.6-2.1,5c-1.3,1.3-3.1,2.1-5,2.1H537c-0.1,0-0.2,0-0.3,0.1c-0.1,0.1-0.1,0.2-0.1,0.3
				v12.4c0,3.9-3.2,7-7,7H517.4z M508,128.4c1.3,0,2.4-1.1,2.4-2.4V77.4c0-1.3-1.1-2.4-2.4-2.4h-27.7l-77.6,53.4H508z"/>
			<path d="M518.1,49.8c3.6,0,7,1.4,9.5,3.9c2.5,2.5,3.9,6,3.9,9.5c0,18.7,0,51.8,0,64.7c0,1.4,0.6,2.8,1.6,3.8c1,1,2.4,1.6,3.8,1.6
				c4.4,0,10.4,0,13.5,0c0,0,0,0,0,0c0.5,0,1,0.2,1.4,0.6c0.4,0.4,0.6,0.9,0.6,1.4c0,3.9,0,12.3,0,16.2c0,0.5-0.2,1.1-0.6,1.4
				c-0.4,0.4-0.9,0.6-1.4,0.6c-3.1,0-9.1,0-13.5,0c-1.4,0-2.8,0.6-3.8,1.6s-1.6,2.4-1.6,3.8c0,4.1,0,9.5,0,12.4c0,1.1-0.9,2-2,2
				c-3.1,0-9,0-12.1,0c-1.1,0-2-0.9-2-2c0-2.9,0-8.3,0-12.4c0-1.4-0.6-2.8-1.6-3.8c-1-1-2.4-1.6-3.8-1.6c0,0,0,0,0,0
				c-25.1,0-129.7,0-145.6,0c-0.5,0-1.1-0.2-1.4-0.6c-0.4-0.4-0.6-0.9-0.6-1.4c0-4,0-12.7,0-16.4c0-1.1,0.5-2.1,1.5-2.8
				c12.6-8.7,103-71.3,117.3-81.3c1.2-0.9,2.7-1.3,4.2-1.3C491.1,49.8,506.6,49.8,518.1,49.8 M386.6,133.4c0,0,93.9,0,121.3,0
				c4.1,0,7.4-3.3,7.4-7.4c0-12.2,0-36.3,0-48.5c0-4.1-3.3-7.4-7.4-7.4c-9,0-23.6,0-28,0c-0.8,0-1.6,0.2-2.3,0.7
				C467.6,77.7,386.6,133.4,386.6,133.4 M518.1,39.8h-32.7c-3.6,0-7,1.1-9.9,3.1l-110.7,76.7l-6.6,4.6c-3.6,2.5-5.8,6.6-5.8,11v16.4
				c0,3.2,1.2,6.2,3.5,8.5c2.3,2.3,5.3,3.5,8.5,3.5h141v7.8c0,6.6,5.4,12,12,12h12.1c6.6,0,12-5.4,12-12v-7.8h8.9
				c3.2,0,6.2-1.2,8.5-3.5c2.3-2.3,3.5-5.3,3.5-8.5v-16.2c0-3.2-1.3-6.2-3.5-8.5c-2.3-2.3-5.3-3.5-8.5-3.5h-8.9V63.2
				c0-6.3-2.4-12.2-6.9-16.6C530.2,42.2,524.3,39.8,518.1,39.8L518.1,39.8z M481.9,80h23.5v43.4h-86.6L481.9,80L481.9,80z"/>
		</g>
	</g>
</g>
<g id="Layer_6">
	<g>
		<g>
			<path class="st1" d="M619.8,142.8c-0.4,0-0.7,0-1.1-0.1c-2.2-0.4-4-2-4.7-4.1l-0.5-1.6c-0.3-1-0.4-2-0.3-3.1
				c-1-1.4-1.5-3-1.4-4.7c-1.1-1.4-1.6-3.1-1.5-4.8c-1.1-1.4-1.6-3.1-1.5-4.8c-1.1-1.4-1.6-3.1-1.5-4.8c-1.1-1.4-1.6-3.1-1.5-4.8
				c-1.1-1.4-1.6-3.1-1.5-4.8c-1-1.3-1.6-3-1.6-4.6c-0.7-0.7-1.2-1.6-1.6-2.6l-0.5-1.6c-1-3,0.6-6.3,3.5-7.4c1-0.4,6.1-2.5,10.4-3.3
				c1.2-0.2,2.3-0.3,3.4-0.3c3.1-0.1,8.9-0.2,26.9-5.8c17.9-5.9,22.6-9.1,25.2-10.9c0.9-0.6,1.8-1.2,2.9-1.7
				c4.2-1.9,9.8-3.2,10.4-3.3c0.4-0.1,0.9-0.2,1.4-0.2c2.6,0,5,1.7,5.8,4.2l0.5,1.6c0.3,1,0.4,2,0.3,3c1,1.4,1.5,3,1.4,4.7
				c1.1,1.4,1.6,3.1,1.5,4.8c1.1,1.4,1.6,3.1,1.5,4.8c1.1,1.4,1.6,3.1,1.5,4.8c1.1,1.4,1.6,3.1,1.5,4.8c1.1,1.4,1.6,3.1,1.5,4.8
				c1,1.3,1.6,3,1.6,4.6c0.7,0.7,1.2,1.6,1.6,2.6l0.5,1.6c1,3-0.5,6.2-3.4,7.4c-1,0.4-6.2,2.5-10.4,3.4c-1.2,0.2-2.2,0.3-3.4,0.3
				c-3.1,0.1-8.9,0.2-26.9,5.8c-17.9,5.9-22.6,9.1-25.2,10.9c-0.9,0.6-1.8,1.2-2.9,1.7c-4.1,1.8-9.8,3.2-10.4,3.3
				C620.7,142.8,620.2,142.8,619.8,142.8z M632.6,124.6c4.1-2.2,10.9-5.3,23.4-9.4c12.6-3.9,19.9-5.4,24.6-6l-8.9-27.7
				c-4.1,2.2-10.9,5.3-23.4,9.4c-12.6,3.9-19.9,5.4-24.6,6L632.6,124.6z"/>
			<path d="M684.4,66.3c1.3,0,2.5,0.8,2.9,2.1l0.5,1.6c0.2,0.8,0.2,1.6,0,2.3l-0.2,0.7l0,0c1.5,1.1,2.1,3,1.5,4.8l0,0l0,0
				c1.5,1.1,2.1,3,1.5,4.8l0,0l0,0c1.5,1.1,2.1,3,1.5,4.8l0,0l0,0c1.5,1.1,2.1,3,1.5,4.8l0,0l0,0c1.5,1.1,2.1,3,1.5,4.8l0,0l0,0
				c1.5,1.1,2.1,3,1.5,4.8l0,0c1.5,1.1,2.1,3,1.6,4.8l0,0l0.5,0.4c0.7,0.5,1.1,1.1,1.4,1.9l0.5,1.6c0.5,1.5-0.3,3.1-1.7,3.7
				c-0.2,0.1-5.6,2.3-9.9,3.2c-0.9,0.2-1.8,0.2-2.8,0.2c-3.2,0.1-9.3,0.2-27.7,6c-18.3,6-23.3,9.4-26,11.3c-0.8,0.6-1.6,1.1-2.4,1.5
				c-4,1.8-9.6,3.1-9.9,3.1c-0.2,0.1-0.5,0.1-0.7,0.1c-0.2,0-0.4,0-0.6-0.1c-1.1-0.2-2-1-2.3-2.1l-0.5-1.6c-0.2-0.8-0.2-1.6,0-2.4
				l0.2-0.6l0,0c-1.5-1.1-2.1-3-1.5-4.8l0,0l0,0c-1.5-1.1-2.1-3-1.5-4.8l0,0l0,0c-1.5-1.1-2.1-3-1.5-4.7l0,0l0,0
				c-1.5-1.1-2.1-3-1.5-4.8l0,0l0,0c-1.5-1.1-2.1-3-1.5-4.8l0,0l0,0c-1.5-1.1-2.1-3-1.5-4.8l0,0l0,0c-1.5-1.1-2.1-3-1.5-4.8l0,0
				l-0.5-0.4c-0.7-0.5-1.1-1.1-1.4-1.9l-0.5-1.6c-0.5-1.5,0.3-3.2,1.7-3.8c0.6-0.3,5.8-2.4,9.9-3.2c0.9-0.2,1.8-0.2,2.8-0.2
				c3.2-0.1,9.3-0.2,27.7-6c18.3-6,23.3-9.4,26-11.3c0.8-0.6,1.6-1.1,2.4-1.5c4-1.8,9.6-3.1,9.9-3.1C684,66.3,684.2,66.3,684.4,66.3
				 M690.7,111c0.8-0.2,1.7-0.5,2.4-0.8c-0.9-1.1-1.3-2.7-0.8-4.1l0,0l0,0c-1.5-1.1-2.1-3-1.5-4.8l0,0l0,0c-1.5-1.1-2.1-3-1.5-4.8
				l0,0l0,0c-1.5-1.1-2.1-3-1.5-4.8l0,0l0,0c-1.5-1.1-2.1-3-1.5-4.8l0,0l0,0c-1.5-1.1-2.1-3-1.5-4.8l0,0l0,0c-1.5-1.1-2.1-3-1.5-4.8
				l0,0l0,0c-1.2-0.9-1.8-2.4-1.7-3.8c-0.8,0.2-1.6,0.5-2.4,0.8L690.7,111 M630.9,129.1c3.3-2.2,9.7-5.7,26-11
				c16.4-5.1,23.6-6,27.6-6.2L673.3,77c-3.3,2.2-9.7,5.7-26,11c-16.4,5.1-23.6,6-27.6,6.2L630.9,129.1 M623,132.8
				c0.8-0.2,1.6-0.5,2.4-0.8l-11.9-37c-0.8,0.2-1.7,0.5-2.4,0.8c1,1.1,1.3,2.7,0.8,4.1l0,0l0,0c1.5,1.1,2.1,3,1.5,4.8l0,0l0,0
				c1.5,1.1,2.1,3,1.5,4.8l0,0l0,0c1.5,1.1,2.1,3,1.5,4.8l0,0l0,0c1.5,1.1,2.1,3,1.5,4.8l0,0l0,0c1.5,1.1,2.1,3,1.5,4.8l0,0l0,0
				c1.5,1.1,2.1,3,1.5,4.8l0,0l0,0C622.5,129.9,623.1,131.3,623,132.8 M684.4,60.3c-0.7,0-1.4,0.1-2,0.2c-0.7,0.2-6.6,1.5-11,3.5
				c-1.4,0.6-2.4,1.3-3.4,2c-2.4,1.7-6.9,4.8-24.4,10.5c-17.6,5.5-23.1,5.6-26,5.7c-1.1,0-2.4,0-3.9,0.3c-4.5,0.9-9.9,3.1-11,3.5
				c-4.3,1.8-6.6,6.7-5.2,11.1l0.5,1.6c0.3,1,0.8,2,1.5,2.8c0.2,1.6,0.7,3.1,1.5,4.5c0.1,1.7,0.6,3.4,1.5,4.8
				c0.1,1.7,0.6,3.4,1.5,4.8c0.1,1.7,0.6,3.4,1.5,4.8c0.1,1.7,0.6,3.4,1.5,4.8c0.1,1.7,0.6,3.4,1.5,4.8c0.1,1.6,0.6,3.1,1.4,4.5
				c0,1.1,0.1,2.1,0.5,3.2l0.5,1.6c1,3.2,3.7,5.5,7,6.1c0.5,0.1,1.1,0.2,1.6,0.2c0.7,0,1.4-0.1,2-0.2c0.7-0.2,6.6-1.6,11-3.5
				c1.4-0.6,2.4-1.3,3.4-2c2.4-1.7,6.9-4.8,24.4-10.5c17.6-5.5,23.1-5.6,26-5.7c1.1,0,2.4,0,3.9-0.3c4.6-0.9,10-3.1,11-3.5
				c4.4-1.8,6.6-6.6,5.1-11.1l-0.5-1.6c-0.3-1-0.8-2-1.5-2.9c-0.2-1.6-0.7-3.1-1.5-4.4c-0.1-1.7-0.6-3.4-1.5-4.8
				c-0.1-1.7-0.6-3.4-1.6-4.8c-0.1-1.7-0.6-3.4-1.5-4.8c-0.1-1.7-0.6-3.4-1.5-4.8c-0.1-1.7-0.6-3.4-1.6-4.8
				c-0.1-1.6-0.6-3.1-1.4-4.5c0-1.1-0.1-2.1-0.5-3.2l-0.5-1.6C691.8,62.8,688.4,60.3,684.4,60.3L684.4,60.3z M627.6,99.3
				c4.8-0.8,11.5-2.4,21.5-5.6l0,0l0,0c9.9-3.2,16.3-5.9,20.7-8l6.7,21c-4.8,0.8-11.5,2.4-21.5,5.6l0,0l0,0
				c-9.9,3.2-16.3,5.9-20.7,8L627.6,99.3L627.6,99.3z"/>
		</g>
		<g>
			<path class="st1" d="M641.4,119.3c-0.3,0-0.7,0-1-0.1c-1.1-0.2-2.1-0.7-2.9-1.6c-2.2-2.2-2.1-5.7,0-7.8l3-2.9l-4.3-0.7
				c-2.9-0.5-4.9-3.3-4.4-6.3c0.4-2.7,2.7-4.7,5.5-4.7c0.3,0,0.6,0,0.9,0.1l12.2,1.9l8.8-8.7c1-1,2.4-1.6,3.9-1.6
				c1.5,0,2.9,0.6,3.9,1.6c1,1.1,1.6,2.5,1.6,3.9c0,1.5-0.6,2.9-1.6,3.9l-3,2.9l4.1,0.7c3,0.5,5.1,3.4,4.6,6.4
				c-0.4,2.7-2.7,4.7-5.5,4.7l0,0c-0.3,0-0.6,0-0.9-0.1l-12.2-1.9l-8.8,8.7C644.2,118.7,642.9,119.3,641.4,119.3z"/>
			<path d="M662.9,89.4c0.8,0,1.6,0.3,2.2,0.9c1.2,1.2,1.2,3.1,0,4.3l-6.5,6.4l9,1.4c1.6,0.3,2.8,1.8,2.5,3.5
				c-0.2,1.5-1.5,2.6-3,2.6c-0.2,0-0.3,0-0.5,0l-13.4-2.1l-9.7,9.6c-0.6,0.6-1.4,0.9-2.1,0.9c-0.2,0-0.4,0-0.6-0.1
				c-0.6-0.1-1.2-0.4-1.6-0.9c-1.2-1.2-1.2-3.1,0-4.3l6.5-6.4l-9-1.4c0,0-0.1,0-0.1,0c-1.6-0.3-2.7-1.8-2.5-3.5
				c0.2-1.5,1.5-2.6,3-2.6c0.2,0,0.3,0,0.5,0l13.4,2.1l9.7-9.6C661.4,89.7,662.1,89.4,662.9,89.4 M662.9,84.4
				c-2.1,0-4.1,0.8-5.7,2.3l-7.9,7.8l-10.9-1.7c-0.4-0.1-0.8-0.1-1.3-0.1c-4,0-7.3,2.9-7.9,6.8c-0.7,4.2,1.9,8.1,6,9.1
				c-1.2,1.4-1.9,3.2-1.9,5.2c0,2.1,0.8,4.2,2.3,5.7c1.2,1.2,2.6,2,4.3,2.3c0.5,0.1,1,0.1,1.5,0.1c2.1,0,4.1-0.8,5.7-2.3l7.9-7.8
				l10.9,1.7c0.4,0.1,0.8,0.1,1.3,0.1c4,0,7.3-2.9,7.9-6.8c0.7-4.1-2-8.1-6-9.1c1.2-1.4,1.9-3.2,1.9-5.2c0-2.1-0.8-4.2-2.3-5.7
				C667.1,85.2,665.1,84.4,662.9,84.4L662.9,84.4z"/>
		</g>
	</g>
</g>
</svg>
