<svg xmlns="http://www.w3.org/2000/svg" viewBox="0 0 1011.28 397.45"><defs><style>.b470dedb-82c6-4d86-817b-9d455ddf8518,.ce2da303-5eea-49d2-88bc-21e6b5147c1f{fill:#fff;}.b470dedb-82c6-4d86-817b-9d455ddf8518{fill-rule:evenodd;}</style></defs><title>text-only</title><g id="04968350-1b75-4e95-ad1d-5aa72a776139" data-name="Layer 1"><path class="ce2da303-5eea-49d2-88bc-21e6b5147c1f" d="M712.05,870.66a21.83,21.83,0,0,1,9.19-.61,18.79,18.79,0,0,1,8.94,3.06,5.93,5.93,0,0,1,1.84,2.82,12.19,12.19,0,0,1,.61,3.8,22.07,22.07,0,0,1-.61,5,38.34,38.34,0,0,1-1.35,4.53,5.24,5.24,0,0,1-2.82,3.19,15.23,15.23,0,0,1-4,1c-2.29,0-4.49.08-6.62.24a23,23,0,0,0-6.37,1.47q-4.16,1.73-8.69,3.31c-3,1.07-5.92,2.25-8.7,3.55a47.62,47.62,0,0,0-4.29,2.58,41.59,41.59,0,0,0-5.14,3.92,16.13,16.13,0,0,0-3.19,3.55q-.85,1.47,1.35,1.47,4.65,0,11.76.12t14.45,1a76.35,76.35,0,0,1,13.72,2.82,23.85,23.85,0,0,1,10,5.63q3.92,4.41,7.1,8.21a28.35,28.35,0,0,1,4.78,7.84,21,21,0,0,1,1.35,8.82,31.13,31.13,0,0,1-3.19,11.15,79.48,79.48,0,0,1-6.61,11.64q-3.92,5.75-8.09,11.14a59.39,59.39,0,0,1-9.18,9.93q-5,4.27-10.66,8.45a85,85,0,0,1-11.27,6.74,66.61,66.61,0,0,1-12.5,4.77,52.37,52.37,0,0,1-7.84,1.72,16.86,16.86,0,0,1-7.84-1,52.66,52.66,0,0,1-6-2.45,28.83,28.83,0,0,1-5.51-3.43,24.57,24.57,0,0,1-6.13-13.23q0-3.92,4.17-7.11a7.72,7.72,0,0,1,5.27-1.71c1.71.16,3.55.41,5.51.73,2.12.33,4.25.58,6.37.74a17,17,0,0,0,6.37-.74,84.89,84.89,0,0,0,14.33-5.75,45,45,0,0,0,11.64-9.44q2-2.21,4.9-5a46.4,46.4,0,0,0,5.27-6,20.85,20.85,0,0,0,3.3-6.62,10,10,0,0,0-.49-6.86,8.16,8.16,0,0,0-3.43-3.92,18.69,18.69,0,0,0-4.9-1.83,39.67,39.67,0,0,0-5.75-.86,26.44,26.44,0,0,1-5.52-1q-3.92-1-7.35-1.59a43.1,43.1,0,0,0-7.59-.62c-3.27,0-6.62.09-10,.25s-6.78.16-10,0c-1.8-.16-3.35-.37-4.66-.62s-2.53-1.26-3.67-3.06q-2.7-3.92-2.7-10.78A44.52,44.52,0,0,1,655,904.84q3.43-8.45,7.6-12.13a58.39,58.39,0,0,1,13.6-8.94,144.87,144.87,0,0,1,15.06-6.49q5.14-2,10.29-3.43T712.05,870.66Z" transform="translate(-642.72 -629.63)"/><path class="ce2da303-5eea-49d2-88bc-21e6b5147c1f" d="M772.07,930.93q1.23-6.61,1.84-13.35A42.82,42.82,0,0,1,777,905a31.48,31.48,0,0,1,5.27-8.45,12.85,12.85,0,0,1,8.94-4.29,9.54,9.54,0,0,1,8.21,2.7q3.06,3.18,6.49,6.61a201.57,201.57,0,0,0,21.81,19.73,152.93,152.93,0,0,0,24.74,15.8q2.21,1.23,5,2.94t5.75,3.18a25.22,25.22,0,0,0,5.64,2.09,5.94,5.94,0,0,0,4.65-.62q2.94-1.71,2.94-7.1a21.66,21.66,0,0,0-.36-3.92c-.25-1.31-.45-2.61-.62-3.92q-1.22-10.05-2.69-20.09T869.34,889c-.33-1.8-.66-3.39-1-4.78a16.44,16.44,0,0,1-.49-3.8,6,6,0,0,1,1.1-3.67q1.11-1.47,4.53-2.21a18.12,18.12,0,0,1,9.07-.12q4.41,1.11,7.35,6a26.4,26.4,0,0,1,4,10.29q.85,5.4,1.59,10.54,1.23,6.62,2.21,13.23t1.71,13.23q.74,6.86,1.35,13.72t.61,13.47A92.59,92.59,0,0,1,899,977a6.45,6.45,0,0,1-3.06,4,10.3,10.3,0,0,1-5.27,1.34,28.06,28.06,0,0,1-8.33-1.47,78.59,78.59,0,0,1-9.18-3.55q-4.54-2.08-8.46-4.29t-6.37-3.67q-12.73-7.11-24.74-15.31t-24.5-16.54q-3.44-2.2-5.51-2a5.1,5.1,0,0,0-3.43,1.84,12.62,12.62,0,0,0-2.21,4q-.85,2.44-1.59,4.65-2.7,6.14-4.78,12.5t-4,12.74a51.56,51.56,0,0,0-1.23,6.12,49.75,49.75,0,0,1-1.34,6.5,16.71,16.71,0,0,1-2.45,5.26,5.28,5.28,0,0,1-4.54,2.21q-2.69,0-6.86-2.45a15.58,15.58,0,0,1-6.61-6.86,14.37,14.37,0,0,1-1-8.33q1.71-11.26,4.16-21.56T772.07,930.93Z" transform="translate(-642.72 -629.63)"/><path class="ce2da303-5eea-49d2-88bc-21e6b5147c1f" d="M928.63,996.35a101.27,101.27,0,0,1-.74-13.72q0-7.35.37-15.8t.86-16.66q.48-8.2.85-15.56t.37-12.25a62,62,0,0,1,.86-9.56,33.55,33.55,0,0,1,3.06-9.8,16.1,16.1,0,0,1,6-6.73q3.79-2.34,9.68-.37,3.91,1.23,5.15,3.18a8.68,8.68,0,0,1,1.22,4.66,20.51,20.51,0,0,1-.24,3.06c-.17,1.07-.33,2.25-.49,3.55q-1,4.9-1.72,12t-1.35,15.07q-.62,8-.85,16.29t-.25,15.68V978q0,3.67.25,7.11a28,28,0,0,0,2.2,8.94q1.71,3.79,7.6,5.51c1,.33,2,.62,2.94.86a14,14,0,0,0,3.43.37,34,34,0,0,0,7.47-.86c2.53-.57,4.86-1.19,7-1.84a36.47,36.47,0,0,0,10.41-4.42,41.93,41.93,0,0,0,8.95-7.12,16.16,16.16,0,0,0,3.67-8.59,90.73,90.73,0,0,0,.49-9.58q0-5.4-.12-15.1t-.37-20.13q-.24-10.43-.73-20.13t-1-14.86c0-1.63-.05-3.23-.13-4.78a15.58,15.58,0,0,1,.37-4.42,10.66,10.66,0,0,1,1.72-3.8,8,8,0,0,1,3.92-2.71,17.6,17.6,0,0,1,6.37-1.47,9.28,9.28,0,0,1,8.2,4.17,26.29,26.29,0,0,1,3.92,10,72.9,72.9,0,0,1,1.23,12.13q.12,6.26.37,10.66t.61,13.11q.36,8.7.61,18.25t.49,18.13q.24,8.58.25,13a43.1,43.1,0,0,1-2,12.38A19.85,19.85,0,0,1,1023,1003a139.88,139.88,0,0,1-13.6,9.68,116.36,116.36,0,0,1-15.06,8,81.94,81.94,0,0,1-16,5.15A61.23,61.23,0,0,1,962,1027a36.49,36.49,0,0,1-22.3-9.34A33.62,33.62,0,0,1,928.63,996.35Z" transform="translate(-642.72 -629.63)"/><path class="ce2da303-5eea-49d2-88bc-21e6b5147c1f" d="M1115.56,870.66a21.83,21.83,0,0,1,9.19-.61,18.79,18.79,0,0,1,8.94,3.06,6,6,0,0,1,1.84,2.82,12.19,12.19,0,0,1,.61,3.8,22.07,22.07,0,0,1-.61,5,38.34,38.34,0,0,1-1.35,4.53,5.3,5.3,0,0,1-2.82,3.19,15.23,15.23,0,0,1-4,1q-3.43,0-6.62.24a23,23,0,0,0-6.37,1.47q-4.17,1.73-8.69,3.31t-8.7,3.55a47.62,47.62,0,0,0-4.29,2.58,42.48,42.48,0,0,0-5.15,3.92,16.3,16.3,0,0,0-3.18,3.55q-.85,1.47,1.35,1.47,4.65,0,11.76.12t14.45,1a76.53,76.53,0,0,1,13.72,2.82,23.85,23.85,0,0,1,10.05,5.63q3.91,4.41,7.1,8.21a28.59,28.59,0,0,1,4.78,7.84,21,21,0,0,1,1.35,8.82,31.34,31.34,0,0,1-3.19,11.15,80.41,80.41,0,0,1-6.61,11.64q-3.93,5.75-8.09,11.14a59.82,59.82,0,0,1-9.18,9.93q-5,4.27-10.66,8.45a85,85,0,0,1-11.27,6.74,66.61,66.61,0,0,1-12.5,4.77,52.64,52.64,0,0,1-7.84,1.72,16.86,16.86,0,0,1-7.84-1,52.66,52.66,0,0,1-6-2.45,28.83,28.83,0,0,1-5.51-3.43,18.72,18.72,0,0,1-4.17-6.37,18.49,18.49,0,0,1-2-6.86q0-3.92,4.17-7.11a7.71,7.71,0,0,1,5.27-1.71c1.71.16,3.55.41,5.51.73q3.18.49,6.37.74a17,17,0,0,0,6.37-.74,85.23,85.23,0,0,0,14.33-5.75,45,45,0,0,0,11.64-9.44c1.3-1.47,2.94-3.14,4.9-5a46.4,46.4,0,0,0,5.27-6,20.85,20.85,0,0,0,3.3-6.62,10,10,0,0,0-.49-6.86,8.22,8.22,0,0,0-3.43-3.92,18.69,18.69,0,0,0-4.9-1.83,39.88,39.88,0,0,0-5.75-.86,26.32,26.32,0,0,1-5.52-1q-3.91-1-7.35-1.59a43.18,43.18,0,0,0-7.59-.62c-3.27,0-6.62.09-10.05.25s-6.78.16-10,0c-1.8-.16-3.35-.37-4.66-.62s-2.53-1.26-3.67-3.06q-2.7-3.92-2.7-10.78a44.33,44.33,0,0,1,3.43-16.78q3.43-8.45,7.6-12.13a58.39,58.39,0,0,1,13.6-8.94,144.87,144.87,0,0,1,15.06-6.49q5.14-2,10.29-3.43T1115.56,870.66Z" transform="translate(-642.72 -629.63)"/><path class="ce2da303-5eea-49d2-88bc-21e6b5147c1f" d="M1205.72,910.6q.48,7.85.73,15.31t.25,15.31q0,10.54-.62,20.95t-1.83,21a46.15,46.15,0,0,1-.86,5.51,12.39,12.39,0,0,1-2.33,5,12.19,12.19,0,0,1-3.18,2.58,28.6,28.6,0,0,1-4.78,2.32,19.42,19.42,0,0,1-5.27,1.23,7.38,7.38,0,0,1-4.41-.74,6.16,6.16,0,0,1-2.94-3.3c-.65-1.55-1.22-2.82-1.71-3.8-.66-1.31-1.39-2.7-2.21-4.17a11.47,11.47,0,0,1-1.47-4.16,18.19,18.19,0,0,1,1.35-9.07,39.72,39.72,0,0,0,2.57-8.82c.33-2.28.57-4.53.74-6.73s.24-4.45.24-6.74,0-4.54-.12-6.74-.12-4.45-.12-6.74q0-7.35-.49-14.7t-1-14.7a43.65,43.65,0,0,0-1.72-10.16,35.24,35.24,0,0,1-1.47-9.93,21.71,21.71,0,0,1,.49-4.53,16.18,16.18,0,0,1,1.72-4.53,12.64,12.64,0,0,1,6.86-6,14.19,14.19,0,0,1,9.8.37,18,18,0,0,1,7.47,5.15,25.53,25.53,0,0,1,4,7.1,21.13,21.13,0,0,1,1.23,7.6,54.54,54.54,0,0,1-.62,8.21A36.86,36.86,0,0,0,1205.72,910.6Z" transform="translate(-642.72 -629.63)"/><path class="ce2da303-5eea-49d2-88bc-21e6b5147c1f" d="M1310.58,970.38a41.85,41.85,0,0,1,.24,4.53v4.53a37.77,37.77,0,0,1-1.47,10.66q-1.47,5-7.1,8a17.35,17.35,0,0,1-7.35,2.21q-5.4,0-7.84-5.15a41.39,41.39,0,0,1-3.43-12.25,136,136,0,0,1-1.23-14.21,84.43,84.43,0,0,0-1-11.27q-1.47-7.83-2.2-15.8t-2-15.8a47.61,47.61,0,0,1-.74-6.25,63.92,63.92,0,0,0-1-7.72,48.11,48.11,0,0,0-2-7.35,12.89,12.89,0,0,0-3.43-5.39A8.89,8.89,0,0,0,1264,897a31,31,0,0,0-7.35,1.23q-3.93,1.1-7.6,2.45a25.45,25.45,0,0,1-6.61,1.59,15.24,15.24,0,0,1-9.56-2.45,8.48,8.48,0,0,1-3.92-7.35,12.45,12.45,0,0,1,2.45-7.35A22.16,22.16,0,0,1,1237,880a53.29,53.29,0,0,1,7-3.92,49.7,49.7,0,0,1,7.59-2.81c2.61-.74,5-1.51,7.11-2.33a35.24,35.24,0,0,1,8.57-2.33A63.78,63.78,0,0,1,1276,868c2.78,0,5.47.12,8.09.37s5.3.45,8.08.61q7.11.49,15.07.49a56.32,56.32,0,0,1,15.07,2,13.67,13.67,0,0,1,7.84,5.14,14,14,0,0,1,2.94,8.58,12.19,12.19,0,0,1-2.21,7.1,9.51,9.51,0,0,1-4.78,3.92,18.69,18.69,0,0,1-6.24,1,43.07,43.07,0,0,1-4.66-.24l-4.41-.49c-1.31-.16-3.18-.41-5.63-.74s-4.33-.08-5.64.74a5.27,5.27,0,0,0-1.84,3.06,13.43,13.43,0,0,0-.12,4,24.51,24.51,0,0,0,.86,4.29c.41,1.39.77,2.66,1.1,3.8a95.49,95.49,0,0,1,2.33,13.11q.86,7.47,2.08,13.1,2,9.08,4,16.17A72.21,72.21,0,0,1,1310.58,970.38Z" transform="translate(-642.72 -629.63)"/><path class="ce2da303-5eea-49d2-88bc-21e6b5147c1f" d="M1360.56,976.5c1.31-.32,2.73-.61,4.29-.85a6.9,6.9,0,0,1,4.28.61,8.67,8.67,0,0,1,3.31,2.94,10.23,10.23,0,0,0,3.56,3.18c1.14.66,2.36,1.31,3.67,2a4.41,4.41,0,0,1,2.45,2.94,5.06,5.06,0,0,1-1.1,4.78c-1.23,1.56-2.33,2.9-3.31,4a25.78,25.78,0,0,1-4.9,5,11.39,11.39,0,0,1-6.37,2.57,10.74,10.74,0,0,1-6.61-1.35,22.51,22.51,0,0,1-4.91-4.53,50.63,50.63,0,0,1-4.16-6,8,8,0,0,1-.49-7.23,10.94,10.94,0,0,1,4.29-5A19.86,19.86,0,0,1,1360.56,976.5Z" transform="translate(-642.72 -629.63)"/><path class="ce2da303-5eea-49d2-88bc-21e6b5147c1f" d="M1456.6,872.38q3.42-1.47,7.59-3.43a73.87,73.87,0,0,1,8.7-3.43,75.61,75.61,0,0,1,8.94-2.33,26.64,26.64,0,0,1,8.33-.37q3.43.49,5.64,4.41a49.19,49.19,0,0,1,3.43,7.35,10.19,10.19,0,0,1,.61,4.17,9.89,9.89,0,0,1-1,3.92,6.5,6.5,0,0,1-2.45,2.69,5.41,5.41,0,0,1-4,.49,15.26,15.26,0,0,0-8.82.61c-2.62,1.07-5.39,2.17-8.33,3.31q-5.64,2.21-11.15,4.78a86.11,86.11,0,0,0-10.41,5.76c-.66.49-1.8,1.31-3.43,2.45a39.39,39.39,0,0,0-4.53,3.67,11.7,11.7,0,0,0-2.82,3.68c-.49,1.14.16,2,2,2.45a7.19,7.19,0,0,0,2.33.12c.89-.08,2-.16,3.43-.24s3.22-.21,5.51-.37,5.3-.25,9.06-.25q7.59,0,17.52.74t17.27,2q11.76,1.47,17.89,6.37a21,21,0,0,1,7.72,12,32.7,32.7,0,0,1-.86,15.93,74,74,0,0,1-7.84,17.88q-20.34,26.46-45.57,32.1t-53.9-7.11a23,23,0,0,1-6.62-4.41q-2.44-2.44-2.45-7.35a10.25,10.25,0,0,1,2.58-7.22q2.56-2.82,7.22-2.33,7.35.74,15.19,2.2a114.23,114.23,0,0,0,16,1.84,72.89,72.89,0,0,0,17.15-1.35,60.63,60.63,0,0,0,19-7.59,45.62,45.62,0,0,0,6.49-6.25,19.85,19.85,0,0,0,4.41-7.84,8.44,8.44,0,0,0-1.35-7.47q-2.44-3.43-10.53-5.39-6.37-.74-15.31-1.1a131,131,0,0,0-15.32.12c-1.8.16-3.63.24-5.51.24H1432.1a38.35,38.35,0,0,1-4.41.25h-8.45a15.42,15.42,0,0,1-3.8-.49,8.36,8.36,0,0,1-6.37-4.78,19,19,0,0,1-1.72-8,24.53,24.53,0,0,1,1.23-7.84,44.82,44.82,0,0,1,7.59-15.56,70.88,70.88,0,0,1,25.36-21.93Q1448.76,875.81,1456.6,872.38Z" transform="translate(-642.72 -629.63)"/><path class="ce2da303-5eea-49d2-88bc-21e6b5147c1f" d="M1556.56,958.86q.48-12.74.85-25.35t.86-25.36a97.44,97.44,0,0,0-.49-9.8,46.27,46.27,0,0,1,0-9.56,12.41,12.41,0,0,1,1.23-4.41,10.29,10.29,0,0,0,1-4.65,7.1,7.1,0,0,0-1.23-4,4.82,4.82,0,0,1-.24-4.54,7.63,7.63,0,0,1,3.18-3.55,26.37,26.37,0,0,1,5.51-2.69,56.39,56.39,0,0,1,6.13-1.84q3.06-.74,4.78-1.23,4.65-1,9.67-1.71a68.56,68.56,0,0,1,9.93-.74,48.22,48.22,0,0,1,9.67,1,32.38,32.38,0,0,1,9.19,3.43,25.41,25.41,0,0,1,4.53,3.31,33.5,33.5,0,0,1,4.29,4.66,29.35,29.35,0,0,1,3.19,5.14,11.31,11.31,0,0,1,1.22,4.78,5.1,5.1,0,0,1-1.84,4c-1.22,1.06-3.39,1.68-6.49,1.84a17,17,0,0,1-8.33-1.84,19.24,19.24,0,0,0-9.31-1.84q-4.41.5-9.8,1.47a18.37,18.37,0,0,0-8.82,3.92q-2.94,2.7-4.78,8.33a36.35,36.35,0,0,0-1.83,11.27,28.68,28.68,0,0,0,1,7.72,10.23,10.23,0,0,0,3.43,5.51q3.42,2.94,9.67,3.92a80.53,80.53,0,0,0,12.62,1q3.92,0,7.23-.24c2.2-.16,4.12-.33,5.76-.49a38.11,38.11,0,0,1,8.69,0c2.53.33,4.7,2.12,6.5,5.39a17.9,17.9,0,0,1,2.08,7.59q.36,4.66-1.84,7.11a9.56,9.56,0,0,1-5.14,2.94,30.52,30.52,0,0,1-6.86.73,78.54,78.54,0,0,1-14.21-1.34,44.91,44.91,0,0,0-12.25-.86q-7.85.74-11,7a29,29,0,0,0-3.18,13.35,34,34,0,0,0,1.47,10.29c.81,3.27,2,5.52,3.67,6.74a9.11,9.11,0,0,0,5.64,1.84,23.78,23.78,0,0,0,10.41-2.7,56.2,56.2,0,0,1,10.17-3.92,13.17,13.17,0,0,1,6.61-.24,12.61,12.61,0,0,1,5,2.45,12.3,12.3,0,0,1,3.31,4.29,12.59,12.59,0,0,1,1.23,5.51,13.51,13.51,0,0,1-4.66,10,26.51,26.51,0,0,1-8.82,5.39,65.69,65.69,0,0,1-10.78,3.07,108.71,108.71,0,0,1-11.39,1.59q-5.76.48-10.41,1c-1.64.16-3.48.37-5.52.61a51.26,51.26,0,0,1-6.24.37,24.69,24.69,0,0,1-6.25-.74,8.17,8.17,0,0,1-4.53-2.94,23.28,23.28,0,0,1-4.29-10.16,70.86,70.86,0,0,1-1.1-12.87,143.47,143.47,0,0,1,.85-15.8Q1556.3,964.26,1556.56,958.86Z" transform="translate(-642.72 -629.63)"/><path class="b470dedb-82c6-4d86-817b-9d455ddf8518" d="M642.72,633.32a3.7,3.7,0,0,1,3.7-3.69H926.94a24.6,24.6,0,0,1,24.6,24.61v55.92a24.6,24.6,0,0,1-24.6,24.61H685.79a13.54,13.54,0,0,0-13.54,13.53v33.9h275.6a3.69,3.69,0,0,1,3.69,3.69v29.53a3.69,3.69,0,0,1-3.69,3.69H646.42a3.7,3.7,0,0,1-3.7-3.69V734.77a24.61,24.61,0,0,1,24.61-24.61H908.48A13.53,13.53,0,0,0,922,696.63V680.08a13.53,13.53,0,0,0-13.53-13.54H646.42a3.7,3.7,0,0,1-3.7-3.69Z" transform="translate(-642.72 -629.63)"/><path class="b470dedb-82c6-4d86-817b-9d455ddf8518" d="M1400.79,666.54a13.54,13.54,0,0,0-13.53,13.54v88.58a13.54,13.54,0,0,0,13.53,13.54h210.15a13.54,13.54,0,0,0,13.53-13.54V680.08a13.54,13.54,0,0,0-13.53-13.54Zm228.6-36.91A24.61,24.61,0,0,1,1654,654.24V794.5a24.61,24.61,0,0,1-24.61,24.61H1382.34a24.61,24.61,0,0,1-24.61-24.61V654.24a24.61,24.61,0,0,1,24.61-24.61Z" transform="translate(-642.72 -629.63)"/><path class="b470dedb-82c6-4d86-817b-9d455ddf8518" d="M1260.45,680.08a13.54,13.54,0,0,0-13.54-13.54h-51a7.43,7.43,0,0,0-4.18,1.3L1025.45,782.2h221.46a13.54,13.54,0,0,0,13.54-13.54ZM981.16,785.42a6.15,6.15,0,0,1,2.65-5.06L1197.91,632a13.56,13.56,0,0,1,7.71-2.41h59.75A24.62,24.62,0,0,1,1290,654.24V772.35a9.85,9.85,0,0,0,9.84,9.85h24.61a3.69,3.69,0,0,1,3.69,3.69v29.53a3.69,3.69,0,0,1-3.69,3.69h-24.61A9.83,9.83,0,0,0,1290,829v22.7a3.7,3.7,0,0,1-3.7,3.69h-22.14a3.69,3.69,0,0,1-3.69-3.69V829a9.85,9.85,0,0,0-9.85-9.84H984.85a3.69,3.69,0,0,1-3.69-3.69Z" transform="translate(-642.72 -629.63)"/></g></svg>