<svg version="1" xmlns="http://www.w3.org/2000/svg" width="2158.667" height="2158.667" viewBox="0 0 1619.000000 1619.000000"><path d="M855.8 465.6c-.2.1-9.5.5-20.8.9-26.3.8-39.2 1.6-49 3-1.4.2-5 .6-8 1-9.4 1.1-30.8 4.2-35.4 5.1-1.1.2-3.4.7-5.1 1-7.4 1.3-15.8 3.5-18.3 4.8-2.7 1.4-38.1 37.4-90.4 91.8l-16 16.7-3.7-2.4c-4.1-2.7-10.6-4.6-13.6-4-1.1.2-2.3.4-2.6.4-.3.1-1.6.9-2.7 2-2.4 2-4.6 7.3-5.6 13.8-.4 2.3-1.6 4.9-2.6 5.8-1.1 1-1.7 2.6-1.4 3.8.7 3.7 1.2 6.1 1.9 8.8.5 2.1-.2 3.4-4.7 8-8.1 8.4-14.7 12.5-25.3 15.8-9 2.8-12.2 3.3-32.5 4.6-3.6.3-9.2.7-12.5.9-3.3.3-9.6.8-14 1.1-4.4.3-10.2.8-13 1-6.9.6-21.8 1.8-37 2.9-4.4.3-10.2.8-13 1.1-2.7.3-8.1.7-12 1-3.8.3-9.2.7-12 1-2.7.3-8.1.7-12 1-3.8.4-8.8.8-11 1-2.2.2-7.6.6-12 1-4.4.3-9.6.8-11.5 1-1.9.2-6.6.7-10.5 1-3.8.3-9 .8-11.5 1-2.5.3-7.2.7-10.5 1-3.3.3-8.2.8-11 1.2-2.7.3-7 .7-9.5.8-2.5.2-7 .6-10 .9-3 .4-7.1.9-9 1.1-1.9.2-6.3.7-9.7 1-3.4.3-7 .7-8 .9-1 .2-4.5.7-7.8 1-6.6.8-7.4.9-22.5 3.1-5.8.8-11.6 1.7-12.9 2-1.2.2-4.2.7-6.5.9-2.2.3-9.5 1.5-16.1 2.6-6.6 1.1-12.9 2.2-14 2.4-3.2.5-9.2 1.6-21 3.8-6 1.1-12.1 2.2-13.5 2.4-1.4.3-7.9 1.6-14.5 2.9-6.6 1.4-13.1 2.7-14.5 3-10.7 2-18 4.6-18 6.5 0 .5-1.4 2.5-3 4.3-3.1 3.5-3.9 7-1.9 8.3 1.3.7.6 5-1.5 9.7-.8 1.8-2.9 7.2-4.6 12.2-1.8 4.9-4 11.2-5 14-3.1 8.8-11.7 41.5-13.6 52.2-.4 2.3-2.8 13.6-3.9 18.3-.2.8-.4 2.1-.4 2.8-.1.7-1.9 1.9-4.1 2.8-2.2.9-4 2.1-4 2.6 0 .6-1.1 1.9-2.4 2.9-1.4 1.1-3.1 3.5-3.7 5.4-1.3 3.5-1.9 3.8-10.4 5-2.3.3-5.2.7-6.5 1-1.3.3-4.2.7-6.4 1.1-4.5.6-9.1 2.7-10.3 4.7-.4.7-2.6 1.8-4.8 2.5-2.2.7-4.6 1.6-5.3 2-2.3 1.5-3.1 10.5-1.9 21.2.2 1.9-.3 4.7-1.1 6.1-1 1.7-1.2 3.6-.7 5.5.4 1.6.8 6.9 1 11.7.4 10.1 1.5 12.5 7.1 15.2 2.1 1 4.5 2.6 5.4 3.7.9 1.1 6.3 3.1 14.5 5.3 7.2 1.9 15.3 4.2 18 5 4.3 1.2 23.1 6.4 83.5 22.9 10.2 2.8 11.5 3.4 11.8 5.4.5 3.1 3.7 4.4 19.7 7.7 7.2 1.5 13.5 2.8 14 2.9.6.2 2.6.6 4.6 1 3.2.7 3.9 1.5 6.7 7.4 5.1 10.5 7.5 14.1 15.1 22.3 26 28.1 65.3 39.6 110.9 32.4 11.2-1.7 31.3-7.5 41.2-11.7 7.8-3.4 23.3-11 27.1-13.4 2-1.3 3.8-2.1 4-1.9.2.1 2.4.6 4.9.9 2.5.3 5.6.8 7 1.1 1.3.2 4.2.7 6.5 1 2.2.3 4.7.8 5.5 1 .8.2 3.3.7 5.5 1 2.3.3 5.2.8 6.5 1 1.4.3 4.5.8 7 1.1 2.5.2 5.2.7 6 .9.8.3 7.8 1.4 15.5 2.5 7.6 1.1 15.1 2.2 16.5 2.5 1.4.2 4.5.6 7 1 2.5.3 5.6.8 7 1 1.4.2 4.5.7 7 1 2.5.3 7.2 1 10.5 1.5s8.5 1.2 11.5 1.5c5.9.6 11.5 1.3 17 2 13 1.6 20.1 1.9 40.5 1.9 20.5 0 37.2-.7 41.5-1.9.8-.2 3.3-.6 5.5-1 3.7-.5 8.8-1.4 19-3.2 7.2-1.3 13.3-1 48.5 2.1 3 .3 9.6.8 14.5 1.1l9 .7 6.2-4.2c3.5-2.3 8.1-6.2 10.4-8.8l4.1-4.7-.6 7c-1.4 16.7-1.9 28-1.9 42-.1 38.2 4.2 57.6 16.4 74.1 13.1 17.7 39.5 27.9 72.4 27.8 18.4-.1 35.3-8 49.8-23.3 15.1-16 31.5-46.3 39.6-73.1 1.9-6.2 4.9-17.4 5.5-20.5.4-1.7.9-4.1 1.1-5.5.3-1.4.8-4.1 1.1-6 .3-1.9.8-3.8 1-4.1.2-.3.6-3.5 1-7 .3-3.5.7-6.6.9-6.9 1.7-2.9 2.6-46.4 1.2-60.5-1.2-11.7-5.7-33.2-7.7-36-1.2-1.8-2-4.6-1.1-4.1 1.4.9 7.7 17.3 9.6 25 1.7 7.1 2 8.4 3.1 14.6.4 1.9.8 4.4 1 5.5.8 3.7 1.8 20.9 1.8 29.5 0 15.4-1.8 33.5-4.9 49-.2 1.4-1 5-1.5 8-.6 3-1.5 6.6-2 8-.5 1.4-1.1 3.9-1.5 5.6-.6 3.1-.5 3.1 4.7 4.2 2.9.6 8.7 1.9 12.8 2.7 4.1.9 8.6 1.9 10 2.1 1.4.3 8 1.6 14.6 3 29.3 5.9 37.7 6.7 38.8 3.8.6-1.6 0-24.4-.7-27.9-.3-1.1-.8-4.3-1.1-7-.4-2.8-.9-6.4-1.2-8-.6-3.1-.7-3.9-1.9-11.7l-.6-4.6 5.3-1.1c6-1.2 42.3-8.2 45.3-8.7 3.4-.5 7.9-1.5 9.5-1.9.8-.2 3.1-.7 5-1 1.9-.3 14.1-2.6 27-5.1 12.9-2.6 24.6-4.8 26-5 4.8-.9 17.6-3.4 33.5-6.5 8.8-1.7 17.4-3.3 19-3.6 1.7-.2 4.6-.8 6.5-1.3 1.9-.5 5.8-1.2 8.5-1.6 2.8-.3 5.3-.8 5.6-1 .4-.2 2.4-.6 4.4-1 2.1-.3 4.5-.7 5.4-.9 1.9-.4 27.5-5.3 31.1-6 1.4-.3 5-.9 8-1.5s6.6-1.2 8-1.5c7.1-1.4 13.8-2.7 16-3.1 1.4-.2 8.6-1.6 16-3s14.6-2.8 16-3c4.5-.8 18.4-3.4 21-3.9 4.7-1 11.5-1.9 15.5-1.9 3.5-.1 4 .2 4.3 2.4 1 8.3 6.6 26.1 10.4 32.8 6.3 11 15.3 18.2 26.5 21.3 5.4 1.5 9.2 1.8 19.3 1.5 25.6-.8 39.7-8.8 49.9-28.5 7.4-14.4 13.6-36.4 15.8-56.6 1.8-15.7.9-47.3-1.7-60.5-.4-2.5-.7-4.6-.6-4.8.2-.1 1.3 2.4 2.4 5.5 1.9 5.1 3.3 10.8 6.2 23.6.8 3.8.6 34.2-.4 38.7-1.3 6.6-2.9 20-2.4 20 .3 0 2.7.4 5.4.9s6.9 1.2 9.4 1.6c2.5.3 5.2.8 6 1 .8.2 3.9.7 6.9 1 3 .4 6.3.9 7.5 1.1 4.8.9 14.8.6 15.9-.5.9-.9 1.2-7.9 1.2-24.4 0-12.8.4-23.7.8-24.4.5-.9 3.7.7 10.9 5.3l10.1 6.6 7.3-3.7c4.1-2 7.4-4 7.4-4.5 0-.7-9.2-7-15.5-10.5-5.9-3.3-9.5-5.8-9.5-6.6 0-.5 2.2-3.9 4.8-7.6 2.6-3.8 6.4-9.4 8.3-12.5 1.8-3.1 4.3-5.9 5.4-6.2 1.1-.3 6.5-.3 12 0s12.5.6 15.6.5c7.8-.1 30-4.9 32.1-6.9 2.2-2.2 2.7-5.2 3.4-20.9l.6-13.1-3-1.6c-1.7-.9-3.2-2.1-3.4-2.7-.2-.6-3.3-2.1-7-3.4-10-3.5-14-5.5-17.4-8.9-2.8-2.7-3-3.4-2.2-6.1 1.6-5.6 5.7-21 6.2-23.5.2-1.4 1-4.8 1.6-7.5 3.7-16 4.9-26.3 4.6-41-.5-22.9-1.8-24.8-21.5-31.4-5.9-2-11.2-3.7-11.7-3.8-.5-.1-4.5-1-8.9-2.1-7.6-1.9-24.9-5.4-32.5-6.6-8.2-1.3-36.3-6.6-40-7.6-2.2-.6-4-1.5-4-2s-1.2-1.5-2.6-2.2c-1.5-.7-4-4-6-7.7-2-3.6-5.3-9.7-7.4-13.7-8.1-15.2-25.5-46.1-28.7-51.1-1.8-2.9-3.3-5.4-3.3-5.7 0-.9-15.4-25.1-16.2-25.4-.4-.2-.8-.8-.8-1.4 0-.5-1.1-2.4-2.5-4.2-1.4-1.8-2.5-3.8-2.5-4.4 0-.7-.4-1.2-1-1.2-.5 0-1-1.2-1-2.6 0-2.6-4.9-10.7-7.4-12.1-.8-.4-3.2-3.1-5.4-5.9-3.4-4.3-5.3-5.7-12.5-8.7-12.6-5.3-34.6-12.3-55.7-17.8-3.1-.8-19.2-4.6-23-5.4-4.3-.9-16.9-3.5-19.5-4-7.5-1.4-43.5-7.5-47.5-8-2.5-.3-7-1-10-1.5s-7.3-1.2-9.5-1.5c-2.2-.2-5.6-.7-7.5-1-1.9-.2-5.5-.7-8-1-2.5-.3-5.6-.8-7-1-1.4-.2-5.2-.7-8.5-1-3.3-.3-7.1-.7-8.5-1-1.4-.2-5.2-.7-8.5-1-3.3-.3-7.1-.8-8.5-1-1.4-.2-5.6-.6-9.5-1-3.8-.3-9-.8-11.5-1.1-10.5-1.1-12.8-1.3-19.5-1.9-3.8-.3-9-.8-11.5-1-2.5-.3-8.3-.7-13-1.1-4.7-.3-10.1-.7-12-.9-1.9-.2-8.4-.6-14.5-1-6-.4-13-.8-15.5-1-2.5-.3-10.3-.7-17.5-1-7.1-.3-16.8-.8-21.5-1.1-8.5-.6-145.8-1.3-146.2-.8zm35.2 16.8c9.6.4 19.1.9 21 1.1 1.9.2 8.2.6 14 1 5.8.4 11.9.8 13.5 1 1.7.2 5.9.6 9.5 1 10.4.9 14.4 1.4 33.5 3.5 9.9 1.2 19.1 2.3 20.5 2.5 1.4.2 4.5.7 7 1 2.5.2 6.3.7 8.5 1.1 2.2.3 5.1.7 6.5.9 36.7 5.3 54.4 9.7 55.9 13.8.8 2.1-.1 7.8-1.9 12.7-.5 1.4-2.3 7.2-4 13-1.8 5.8-4.7 15.4-6.6 21.5-1.8 6-6.1 20-9.5 31-18 58.9-19.6 63.5-23.4 65.7-3.3 1.9-9.3 3-17 3-5.2.1-24.4-1.1-27.5-1.7-.9-.2-5.3-.6-9.6-1s-9-.8-10.4-1c-1.4-.2-5.2-.7-8.5-1-3.3-.4-7.1-.8-8.5-1-1.4-.2-5-.7-8-1-3-.3-6.6-.8-8-1-1.4-.2-5-.6-8-1-3-.3-6.6-.8-8-1-1.4-.2-5.6-.7-9.5-1.1-3.8-.3-7.7-.8-8.5-.9-1.5-.3-7.3-1-15.5-2-2.2-.3-6.7-.8-10-1.1-3.3-.2-6.7-.7-7.5-.9-.8-.2-4.9-.7-9-1-4.1-.3-8.2-.8-9-1-.8-.2-4.9-.7-9-1-4.1-.4-8.6-.8-10-1-4.2-.6-12.2-1.4-19-2-3.6-.3-8.1-.8-10-1-3.7-.5-13.2-1.3-22.8-2-3.1-.3-7.7-.7-10.2-1-2.5-.2-8.1-.7-12.5-.9-9.3-.6-26.6-1.7-34.5-2.1-5.1-.3-33-1.3-54.5-2-4.9-.2-25.3-.4-45.2-.5-20-.1-36.3-.6-36.3-1s1.7-2.3 3.8-4.2c3.2-3 29.8-30.4 50.7-52.3 11.7-12.2 53.7-55.6 60.3-62.2 9.9-9.9 15.7-12.1 44.7-16.7 1.7-.3 6.8-1 11.5-1.6 4.7-.6 9.9-1.2 11.5-1.5 1.7-.2 7.3-.7 12.5-1 5.2-.4 10.6-.8 11.9-1 1.3-.2 10.5-.7 20.5-1.1 9.9-.3 18.2-.7 18.3-.8.4-.4 41 .2 56.3.8zm305 27c11.5.8 26.9 2.2 35.5 3.1 2.2.3 8.5.9 14 1.5 53.2 5.8 79 11.1 106.8 22 10.1 3.9 17.7 8.6 22 13.4 10.7 12.2 22.3 30.5 36.7 57.6 5.1 9.6 10.9 20.6 13 24.5 2 3.8 7.4 14.1 11.9 22.7l8.3 15.8-5.9.1c-3.2 0-17 .2-30.8.4-13.7.2-50.6.6-82 1-31.3.3-69.8.8-85.5 1-15.7.2-54.6.7-86.5 1-31.9.4-64 .8-71.2.9-11.5.1-13.2-.1-12.8-1.4.7-2.3 4.6-16.2 12.3-43.5 22.9-81.1 30.5-107.4 32.1-111 2.5-5.5 6.3-8.8 11.4-9.5 4.9-.8 58.2-.4 70.7.4zM131 714.5c2.5.2 6.5.7 9 .9 2.5.3 7 .8 10 1.1 3 .3 7.5.8 10 1 2.5.3 7.3.8 10.7 1.1 8.1.7 9.1.9 9.8 1.6.4.3-1.2 6.2-3.4 13-6.3 19.5-22.3 78.6-26.6 98.3-1.2 5.5-1.8 6.5-3.9 6.1-3.5-.7-16.1-3.3-36.1-7.6-10.4-2.3-19.8-4.2-20.7-4.3-1-.1-1.9-.6-2.1-1.2-.3-.8 1.7-12.8 3.8-22.3.3-1.2.7-3.4 1.1-5 1.8-9.3 9.1-35.4 15.9-57.7 2.6-8.3 5.3-17.3 6.2-20 2.1-6.8 1.9-6.7 7.2-6.1 2.5.3 6.6.8 9.1 1.1zm1441.4 15.3c3.5 1 4.4 2.7 1.9 3.6-1 .4-19.8.9-41.8 1.1-49.9.6-74.5 1.4-117 4-4.4.3-13.2.8-19.5 1-6.3.3-14.9.7-19 1-15.3 1-24.6 1.6-28.7 2-2.4.2-8.9.6-14.5 1-5.7.3-11.9.8-13.8 1-1.9.2-8.2.6-14 1-5.8.4-12.3.8-14.5 1-2.2.2-8.3.7-13.5 1-5.2.3-11.1.8-13 .9-1.9.2-8 .7-13.5 1-5.5.4-12.5.9-15.5 1.1-15.9 1.3-19.2 1.5-27 2-4.7.3-10.5.7-13 1-4.7.4-14.8 1.2-24 1.9-3 .3-8 .7-11 1-3 .3-8.6.8-12.5 1.1-3.8.3-8.6.7-10.5 1-1.9.2-7.3.7-12 1-4.7.4-10.1.8-12 1-1.9.2-7.3.6-12 1-4.7.3-9.6.8-11 1-1.4.2-6.3.6-11 1s-9.8.8-11.5.9c-1.6.2-6.8.6-11.5 1s-10.1.9-12 1.1c-1.9.2-7.1.7-11.5 1-4.4.3-9.8.8-12 1-2.2.3-6.7.7-10 1-3.3.3-8.7.7-12 1-3.3.3-8 .7-10.5.9-5 .4-16.4 1.5-22.5 2.1-2.2.2-7.1.7-11 1.1-3.8.3-8.6.7-10.5.9-1.9.2-7.1.6-11.5 1-4.4.3-9.1.8-10.5 1-1.4.2-5.9.7-10 1-4.1.3-9.1.8-11 1-1.9.2-6.4.7-10 1-3.6.3-8.1.8-10 1.1-1.9.2-5.5.7-7.9.9-2.5.3-7.9.9-12 1.4-4.2.6-9.7 1.2-12.3 1.5-8.7 1-14.3 1.7-16.8 2.1-1.4.2-5.4.7-9 1-3.6.3-9 1-12 1.5s-8.2 1.2-11.5 1.5c-3.3.3-6.9.7-8 .9-1.1.2-5.1.7-9 1.1-3.8.4-7.7.8-8.5 1-.8.1-4.2.6-7.5.9-3.3.4-7.1.9-8.5 1.1-1.4.2-5.2.6-8.5 1-3.2.4-6.6.8-7.5 1-.8.1-4.6.6-8.3 1-3.7.3-7.6.8-8.5 1-.9.1-4.4.6-7.7.9-3.3.4-7.3.9-9 1.1-1.6.3-5.2.7-8 1.1-2.7.3-6.1.7-7.5.9-1.4.2-5.2.6-8.5 1-3.3.3-7.1.8-8.5 1-13.3 2-23.7 2.4-25.7 1-3.3-2.4 2.2-5.8 11.3-7.1 2.7-.3 5.7-.8 6.6-.9.9-.2 6.8-1.1 13-2 6.2-.9 12.4-1.8 13.8-2 1.4-.2 4.8-.7 7.5-1 7.4-1 10.8-1.5 12.5-2 .8-.2 4-.6 7.1-1 3.1-.3 6.5-.7 7.5-.9 1.1-.2 4.6-.7 7.9-1.1 3.2-.4 6.6-.8 7.5-1 .8-.1 3.8-.6 6.5-.9 2.8-.3 6.8-.9 9-1.2 2.2-.3 5.1-.7 6.5-.9 1.4-.2 4.3-.6 6.5-.9 2.2-.3 6.3-.8 9-1.2 2.8-.3 6.1-.7 7.5-.9 1.4-.2 5.2-.6 8.5-1 3.3-.3 6.7-.8 7.5-1 .8-.3 4.2-.7 7.5-1 3.3-.3 7.1-.7 8.5-1 2.3-.4 4.6-.6 18.5-2 2.8-.3 6.1-.8 7.5-1 1.4-.2 5-.7 8-1 8.3-.8 25.1-2.6 28.5-3 2.8-.4 5.5-.6 20.5-2.1 3-.3 7.5-.7 10-1 2.4-.2 7.8-.7 12-1 4.1-.2 9.3-.6 11.5-.9 2.2-.2 7.2-.6 11-1 3.9-.3 8.8-.8 11-1 2.2-.2 7.6-.7 12-1 4.4-.3 9.6-.8 11.5-1 1.9-.3 7.1-.8 11.5-1.1 4.4-.4 9.4-.8 11-1 1.7-.1 6.8-.5 11.5-.9 4.7-.3 9.2-.8 10-1 .8-.2 5.1-.7 9.5-1 4.4-.3 9.6-.8 11.5-1 1.9-.2 6.4-.7 10-1 9.7-1 13.9-1.4 20-1.9 3-.3 8.2-.8 11.5-1.1 3.3-.3 7.8-.8 10-1 2.2-.2 7.2-.7 11-1 3.9-.3 8.6-.8 10.5-1 1.9-.2 6.7-.6 10.5-1 3.9-.3 9.3-.8 12-1 2.8-.3 8.2-.7 12-1 3.9-.3 9.7-.7 13-1 3.3-.2 10.1-.7 15-1 5-.3 12-.7 15.5-1 3.6-.2 11-.7 16.5-1 5.5-.2 13.2-.7 17-1 3.9-.3 11.1-.8 16-1.1 5-.3 11.9-.7 15.5-.9 6.1-.4 10.2-.7 33.5-2 5-.3 13.1-.8 18-1.1 5-.3 11.9-.7 15.5-.9 3.6-.2 11-.6 16.5-1 17.8-1 23.8-1.3 37.5-2 7.4-.3 14.6-.8 16-1 1.4-.2 10.8-.7 21-1 10.2-.4 18.6-.8 18.7-.9.7-.6 127.4-.5 129.7.2zM471.5 756.4c1.9.3 4.9.7 15.5 2.1 2.5.4 5.6.8 7 1 2.1.3 10.1 1.4 21.7 3 1.6.2 9.8 1.3 18.3 2.4 8.5 1.2 17.3 2.4 19.5 2.7 16.3 2.1 17.6 2.5 17.1 4.2-.3 1-1.4 6.9-2.6 13.2-1.1 6.3-2.2 12.6-2.5 14-.3 1.4-1.5 7.6-2.6 13.8-1.2 6.2-2.3 11.2-2.4 11-.2-.2-.6-2.6-.9-5.3-1.2-8.6-1.5-10.2-4.2-17.7-3.2-8.8-10-19.4-15.7-24.4-2.3-2-6.9-4.9-10.1-6.5-5.3-2.5-6.9-2.8-14-2.5-6.5.2-9.2.8-13.5 3-11.3 5.8-20.1 18.4-24.6 35.2-3.1 11.4-2.9 30.1.5 41.4 5.1 17.4 16.6 32.4 28.5 37 13.5 5.2 26.8 1.8 37.1-9.3 3.1-3.3 6-6.9 6.4-8.1 2.9-7.2-1.3 12.4-6.2 28.6l-1.1 3.9-6.1-.5c-3.4-.3-7-.8-8.1-1-1.1-.2-4.9-.7-8.5-1.1-3.6-.4-7.2-.8-8-1-.8-.1-4.6-.6-8.5-.9-3.8-.4-7.7-.9-8.5-1.1-.8-.2-4.2-.6-7.5-1-3.3-.3-7.1-.7-8.5-1-1.4-.2-5-.7-8.1-1-3.1-.3-6.5-.7-7.5-.9-1.1-.2-4.8-.7-8.4-1.1-3.6-.3-7.8-.8-9.5-1-5.6-.8-14-1.8-15.2-1.8-1.6 0-1.6-.2.3-11.7.9-5.2 1.8-10.9 2.1-12.5 1-6.4 9.2-44.4 11.3-52.5 1.2-4.7 2.4-9.3 2.6-10.3.2-.9.6-2.5.8-3.5.8-3.4 6.5-24.8 7.9-29.7.8-2.8 1.8-6.3 2.1-7.9.7-2.8.7-2.8 6.4-2.2 3.1.3 6.6.8 7.7 1zm-20.7 4.6c-.6 2.5-1.4 4.9-1.8 5.3-.4.5-5.4 1.9-11.1 3.2-5.7 1.3-20.5 4.7-32.9 7.5-12.4 2.8-25.2 5.7-28.5 6.5-8.6 2.1-48.5 11.3-51.5 11.9-13.8 2.9-21.7 4.9-22.4 5.7-.5.4-2.1 5.5-3.5 11.1-2.9 11.6-1.8 10.8-13.1 9.4-13.5-1.6-20.7-3.5-20.4-5.3.1-.4.5-2.3.9-4.2l.7-3.3-3.3.7c-1.9.4-9.7 2.2-17.4 4.1-7.7 1.9-15.3 3.7-16.9 4-1.6.3-3.2.7-3.6.9-.4.2-2.1.7-3.9 1-1.9.3-6.5 1.4-10.5 2.5-3.9 1.1-8.2 2.1-9.6 2.4-4 .8-6.2 1.3-11 2.6-2.5.7-5.2 1.4-6.1 1.5-.9.2-6.3 1.5-12 2.8-14.1 3.4-15 3.5-16.3 1.4-.9-1.5-.7-2.2 1.1-3.6 1.3-1.1 21-6.5 51-14 26.8-6.8 49.8-12.5 51-12.7 1.2-.2 3.3-.8 4.7-1.4 1.3-.5 2.6-.7 2.9-.4 1.1 1.1 2.7-2.8 4.6-11.6 3-13.1 2.9-12.9 3.6-14 .4-.6 2.1-.8 3.8-.5 1.8.2 5.2.7 7.7 1 2.5.2 5.4.6 6.5.9 1.1.2 4.4.7 7.2 1.1 2.9.4 5.5 1 5.7 1.4.2.3-.1 2.8-.7 5.4-.5 2.6-.8 4.9-.6 5.1.2.3 3.3-.2 6.9-1.1 3.6-.8 17.1-3.9 30-6.8 18.8-4.2 58.5-13.3 66-15 .8-.2 7.4-1.7 14.5-3.4 7.2-1.6 14.2-3.2 15.8-3.5 4.7-1 7.1-1.6 10.2-2.5 1.7-.4 3.1-.7 3.2-.7.1.1-.3 2.2-.9 4.6zm145.7 13.3c19.8 5 26.3 7.3 32.1 11.1 8.3 5.5 9.1 9.2 6.9 32.4-.3 3.7-.7 9.4-1 12.7-.4 6.4-1.3 15.5-2 22-.3 2.2-.7 6-.9 8.5-1.6 15.2-4.6 26.9-8.3 31.8-2.9 3.9-8.5 6.9-15.6 8.3-5.3 1.1-27.8 1.4-33.2.5-1.6-.2-6.3-.8-10.3-1.1-8.1-.7-11.2-1.2-11.9-1.9-.3-.2 0-2.8.6-5.8.6-2.9 1.3-6.3 1.6-7.6.2-1.3.6-3.1.9-4 .3-.9.7-3.5 1.1-5.7.3-2.2 1-5.6 1.5-7.5.5-1.9 1.2-5 1.5-6.9.3-1.9 1.9-9.6 3.5-17 1.6-7.5 3.1-14.7 3.3-16.1 1.5-7.8 7-34 7.7-37 .5-1.9 1.2-5.5 1.5-7.9.3-2.3 1-5.4 1.6-6.7.5-1.3.9-2.6.9-2.9v-2c0-1.8-.1-1.8 18.5 2.8zM74.6 833.4c4.8 2.3 25.8 8.8 35.9 11.2.6.1 6.8 1.6 13.9 3.3 7 1.7 13.8 3.3 15 3.6 1.1.2 5.3 1.1 9.1 2 6.1 1.4 25.4 5.6 32.3 7.1 1.3.2 8.3 1.8 15.5 3.5 7.3 1.6 14.6 3.2 16.2 3.5 1.7.3 4.8.9 7 1.4 3.7.8 42.2 7.2 51 8.4 2.2.4 5.1.8 6.5 1.1 1.4.2 4.3.7 6.5 1 2.2.3 8.3 1.2 13.5 2 5.2.7 11.3 1.6 13.5 2 2.3.3 5 .7 6 .9 2.2.4 17.2 2.8 19.5 3.1 2.1.2 12.4 1.9 13 2 .3.1 3.2.5 6.5.9 3.3.5 6.9 1 8 1.2 1.1.3 3.8.7 6 .9 2.2.3 7.2.9 11 1.5 3.9.5 8.9 1.2 11.3 1.5 11 1.3 12.9 1.6 15.2 2 1.4.2 4.8.7 7.5 1 2.8.3 8.2 1 12 1.5 3.9.5 9.3 1.2 12 1.5 2.8.3 6.1.8 7.5 1 1.4.2 5.2.6 8.5 1s6.9.9 8 1c1.1.2 4.5.6 7.5 1 3 .3 14.3 1.7 25 3 20.4 2.5 28.4 3.5 33.7 4 2.8.3 16.7 1.9 26.3 3 19 2.3 50.6 2.2 74 0 2.5-.2 7.2-.7 10.5-1 3.3-.3 8.1-.8 10.6-1.1 7.2-.9 27.6-1 34.8-.3 5.6.6 6.9 1.1 8.8 3.5 1.3 1.6 2.3 4.3 2.3 6 0 2.6-.6 3.4-4 4.9-2.2 1-5.9 1.9-8.2 2-6.1.4-25.4 1.6-31.3 2.1-33.8 2.4-59.8 2.4-92.5-.1-3-.2-8.9-.7-13-1-4.1-.2-9.1-.7-11-1-1.9-.2-5.5-.7-8-1-2.5-.3-5.6-.8-7-1-1.4-.2-6.1-.9-10.5-1.5-12.2-1.7-14.2-2-25-3.5-15.1-2.3-16.5-2.5-23-3.5-3.3-.5-8.2-1.2-11-1.6-2.7-.3-5.9-.8-7-1-1-.2-3.7-.6-6-.9-2.2-.4-5.3-.8-7-1.1-1.6-.3-4.5-.7-6.4-1-1.9-.2-4.8-.7-6.5-1-1.7-.3-4.4-.7-6.1-1-1.6-.2-4.1-.6-5.5-.9-1.4-.2-4.5-.7-7-1-2.5-.3-8.5-1.3-13.5-2.1-4.9-.8-10.3-1.7-12-2-1.6-.2-4.1-.6-5.5-.9-1.4-.3-4.7-.7-7.5-1.1-2.7-.3-5.7-.7-6.5-.9-.8-.1-3.5-.6-6-1s-5.4-.9-6.5-1.1c-1-.2-3.7-.6-6-.9-6-.9-9.7-1.5-12.5-2-1.4-.3-3.8-.7-5.5-.9-9.8-1.6-16.2-2.6-18-3-1.1-.2-4-.7-6.5-1-2.5-.3-5.4-.8-6.5-1-1.1-.2-5.6-.9-10-1.6-12.7-1.8-13.9-2-27.5-4.4-16.5-2.9-45.7-8.7-56.5-11.1-1.1-.3-3.6-.8-5.5-1.2-1.9-.4-3.7-.8-4-.8-.3-.1-2.1-.5-4-.9s-10.7-2.3-19.5-4.3c-8.8-1.9-23.6-5.2-33-7.3-9.3-2.1-22.4-5.1-29-6.5-25.7-5.6-34.9-8.6-36.1-12-.3-.7.4-3.4 1.5-5.9 2.3-5.4 3.6-5.6 10.7-2.2zm1355.7 8.5c6.3 2.4 13 12.9 16.2 25 3.6 14 3.8 35.4.5 50.6-.5 2.2-1.1 5.1-1.3 6.5-.8 4-4.6 15-6.9 19.4-5.7 11.3-14.8 19.6-21.4 19.6-14.3 0-24.3-19.7-24.7-48.5-.2-13.4.6-23.5 2.2-29.3.5-1.7.8-3.2.6-3.2-.8 0 5.7-17.5 8.7-23.3 6.8-13.6 17.1-20.2 26.1-16.8zm-541.4 85.5c9.8 6.2 17.3 22 19.9 41.6.9 7.2.9 35.9 0 43.5-7.5 59.3-38.5 103.3-61.8 87.6-8.6-5.8-15.3-19.8-18.5-38.8-1.4-8.8-1.5-38 0-48.3 5.2-37 19.6-69.3 36.9-82.6 7.8-6 16.9-7.1 23.5-3z"/><path d="M1142.7 610.7c-.1.1-2.7.3-5.7.4-8.5.4-14.7 2.6-18.9 6.8-4.7 4.7-6.2 10.2-5.6 20.3l.4 7.5-3.3 1c-2.7.8-3.7.7-5.6-.9-3.7-3-13.6-1.4-17 2.7-2 2.4-2.2 4.4-.9 9.2 1.4 5 4.1 7.1 8.9 6.6 4.6-.5 12-4.1 12-5.8 0-.8 1.7-1.9 3.7-2.4 3.8-1.1 4-1 6.4 3.1 2.7 4.9 15.5 7.6 34.3 7.5 18.1-.1 28.9-3.6 33-10.7 1.7-2.8 2.1-5.6 2.3-13.7.2-10.2-1.1-16.8-4.4-22-3.8-5.9-13-8.4-35.3-9.6-2.3-.2-4.2-.2-4.3 0zM146.4 726.3c-9.7 3.7-18.6 13-23.4 24.4-3.4 8.1-4 10.5-4.5 20.3-1.1 18.3 5.1 35.6 17.1 47.7 3.4 3.5 6.8 6.3 7.6 6.3.8 0 1.9-2 2.6-4.8 1.7-6.4 6-22.6 7.8-28.7 4.2-15.1 16.4-61.3 16.4-62.2 0-3.3-17-5.5-23.6-3zM1421.6 880.3c-3.6 3.4-5.7 10.2-6.1 19.8-.5 12.4 2.7 22.9 7 22.9 5.1 0 9.6-10.1 10-22.7.5-16-4.8-25.7-10.9-20zM874.3 982.5c-8.6 3.6-15.1 21.4-15.9 43-.5 16.6 2.1 27.2 7.5 29.9 9.9 5.1 20.8-18.7 20.9-45.5.1-15.1-2.3-24-7.2-27.2-1.8-1.2-2.7-1.3-5.3-.2z"/></svg>