<svg version="1" xmlns="http://www.w3.org/2000/svg" width="760" height="760" viewBox="0 0 570.000000 570.000000"><path d="M251.1 131c-59.5 3.3-112.1 14.1-141.1 29.1-4.2 2.2-9.1 5.2-11 6.9-2.9 2.4-.9 1.7 11-3.9 25.6-12.1 49-18.9 83-24 31.5-4.7 54.1-6.2 91.5-6.2 78.5-.1 136.8 10.6 180 32.9 5.5 2.8 10.1 5 10.3 4.8.7-.7-9.7-7.6-17.4-11.4-26.5-13.3-73.5-23.5-124.9-27.2-21-1.4-62.8-2-81.4-1z"/><path d="M250.5 151c-64 3.7-119.9 17.5-141.1 34.9-8.2 6.7-13.6 17.6-7.6 15.4 1.8-.7 3.1-1.8 10.7-8.7 4.1-3.8 4.7-4.8 3.5-5.6-1.3-.8-1.2-1.1.5-2.4 1.1-.9 2.4-1.6 2.8-1.6.5 0 2.3-1 4-2.2 1.8-1.3 3.3-2.2 3.5-2 .1.1 2.3-.8 5-2.1 2.6-1.4 9.7-4 15.7-6 59.8-19.7 152.7-24.2 228.3-11.2 31.6 5.5 61.3 15 71.8 23 1.7 1.3 3.5 2.1 3.9 1.7.4-.4.2.4-.5 1.8-.8 1.5-1.5 2-1.8 1.2-.2-.6-1.1-1.2-2-1.1-1.1 0-1.2.2-.4.6.6.2 1 .9.6 1.4-.3.5.2.9 1.1.9 1.6 0 8.7 4.7 9.3 6.2.2.5 1 .8 1.8.8s1.4.4 1.4 1c0 .5 1.4 1.7 3.1 2.5 2.3 1.2 3.4 1.4 4.4.5 4.4-3.7-10.4-17.6-26.2-24.6-23.7-10.6-62.7-19.1-105-22.9-20.7-1.9-66.7-2.7-86.8-1.5zm-135.7 38.4c-.7.8-1.5 1.2-1.7 1.1-.5-.6 1-2.5 2-2.5.5 0 .4.6-.3 1.4z"/><path d="M258.5 154c-.3.5.1 1 .9 1 .9 0 1.6-.5 1.6-1 0-.6-.4-1-.9-1-.6 0-1.3.4-1.6 1zM265.8 153.7c.7.3 1.6.2 1.9-.1.4-.3-.2-.6-1.3-.5-1.1 0-1.4.3-.6.6zM292.8 156.7c1.2.2 3 .2 4 0 .9-.3-.1-.5-2.3-.4-2.2 0-3 .2-1.7.4zM315.8 157.7c.7.3 1.6.2 1.9-.1.4-.3-.2-.6-1.3-.5-1.1 0-1.4.3-.6.6zM208.8 159.7c.6.2 1.8.2 2.5 0 .6-.3.1-.5-1.3-.5-1.4 0-1.9.2-1.2.5zM350.7 160.3c-2.7 1.1-2.6 1.2 2.5 1.3 2.9 0 4.3-.1 3-.4-1.2-.2-2-.8-1.7-1.3.8-1.2-.4-1.1-3.8.4zM200.8 160.7c.7.3 1.6.2 1.9-.1.4-.3-.2-.6-1.3-.5-1.1 0-1.4.3-.6.6zM214 161.4c0 .2.9.6 2 .9 1.1.3 1.8.1 1.4-.4-.5-.9-3.4-1.3-3.4-.5zM376.8 162.7c.6.2 1.8.2 2.5 0 .6-.3.1-.5-1.3-.5-1.4 0-1.9.2-1.2.5zM196.8 164.2c.6.6 1.8.8 2.8.6 1.4-.3 1.2-.5-.9-1-1.9-.3-2.5-.2-1.9.4zM378.6 165.6c-6.7 2.1-5.3 2.7 1.8.8 3.3-.9 7.1-1.3 8.5-.9 2 .4 2.2.3 1.1-.5-2-1.3-5.6-1.2-11.4.6zM182.8 165.7c.6.2 1.8.2 2.5 0 .6-.3.1-.5-1.3-.5-1.4 0-1.9.2-1.2.5zM203.3 165.7c.9.2 2.5.2 3.5 0 .9-.3.1-.5-1.8-.5-1.9 0-2.7.2-1.7.5zM167.6 169c1.7.4 7.3.4 12.5 0l9.4-.7H177c-7 0-11.1.3-9.4.7zM399.3 168.7c.9.2 2.5.2 3.5 0 .9-.3.1-.5-1.8-.5-1.9 0-2.7.2-1.7.5zM400.2 171.2c-7.6 1.4-5.8 2.1 2.1.8 3.6-.5 7.3-.7 8.3-.3 1.2.4 1.5.3 1-.5-.8-1.4-3.9-1.4-11.4 0zM158 173.1c6 1 10.8.9 5.5-.2-2.2-.4-5.3-.8-7-.7-2.2 0-1.9.3 1.5.9zM413 173c0 .5.7.7 1.5.4.8-.4 1.5-.8 1.5-1 0-.2-.7-.4-1.5-.4s-1.5.4-1.5 1zM211.8 175.7c.6.2 1.8.2 2.5 0 .6-.3.1-.5-1.3-.5-1.4 0-1.9.2-1.2.5zM216.8 175.7c.7.3 1.6.2 1.9-.1.4-.3-.2-.6-1.3-.5-1.1 0-1.4.3-.6.6zM220.8 175.7c.6.2 1.8.2 2.5 0 .6-.3.1-.5-1.3-.5-1.4 0-1.9.2-1.2.5zM347.3 175.7c.9.2 2.5.2 3.5 0 .9-.3.1-.5-1.8-.5-1.9 0-2.7.2-1.7.5zM142.5 177.1c-1.4.5-.1.8 3.9.8 3.3.1 5.7-.1 5.5-.3-1-.9-7.6-1.3-9.4-.5zM416.3 177.7c1.5.2 3.7.2 5 0 1.2-.2 0-.4-2.8-.4-2.7 0-3.8.2-2.2.4zM156.8 178.7c1.8.2 4.5.2 6 0s0-.4-3.3-.4-4.5.2-2.7.4zM421.2 179.7c-2.4.9-4.2 1.7-4 1.9.4.4 12.1-2.5 12.7-3.2 1-.9-4.7 0-8.7 1.3zM262.8 179.7c1.2.2 3 .2 4 0 .9-.3-.1-.5-2.3-.4-2.2 0-3 .2-1.7.4zM276.3 179.7c1.5.2 3.7.2 5 0 1.2-.2 0-.4-2.8-.4-2.7 0-3.8.2-2.2.4zM291.3 179.7c1.5.2 3.9.2 5.5 0 1.5-.2.2-.4-2.8-.4s-4.3.2-2.7.4zM306.3 179.7c.9.2 2.5.2 3.5 0 .9-.3.1-.5-1.8-.5-1.9 0-2.7.2-1.7.5zM133.1 181.9c-1 .6.1.8 3 .4 2.4-.3 4.6-.7 4.8-.9 1-.9-6.5-.3-7.8.5zM372.8 181.7c.6.2 1.8.2 2.5 0 .6-.3.1-.5-1.3-.5-1.4 0-1.9.2-1.2.5zM377.8 181.7c.6.2 1.8.2 2.5 0 .6-.3.1-.5-1.3-.5-1.4 0-1.9.2-1.2.5zM147.8 182.7c1.2.2 3.2.2 4.5 0 1.2-.2.2-.4-2.3-.4s-3.5.2-2.2.4zM154 184c-.9.6-1 1-.3 1 .6 0 1.5-.5 1.8-1 .8-1.2.4-1.2-1.5 0zM265.8 185.7c.6.2 1.8.2 2.5 0 .6-.3.1-.5-1.3-.5-1.4 0-1.9.2-1.2.5zM295.8 185.7c.7.3 1.6.2 1.9-.1.4-.3-.2-.6-1.3-.5-1.1 0-1.4.3-.6.6zM301.8 185.7c.7.3 1.6.2 1.9-.1.4-.3-.2-.6-1.3-.5-1.1 0-1.4.3-.6.6zM432.8 185.7c.6.2 1.8.2 2.5 0 .6-.3.1-.5-1.3-.5-1.4 0-1.9.2-1.2.5zM435.5 188c-3.2 1.6-7.1 3.1-8.5 3.3-2.1.3-2 .4.7.6 1.7 0 3.4-.3 3.8-.9.3-.5 3-1.7 6-2.6 3-1 5.5-2.1 5.5-2.6 0-1.2-1-.9-7.5 2.2zM314.3 186.7c.9.2 2.3.2 3 0 .6-.3-.1-.5-1.8-.5-1.6 0-2.2.2-1.2.5zM230.8 189.7c.7.3 1.6.2 1.9-.1.4-.3-.2-.6-1.3-.5-1.1 0-1.4.3-.6.6zM161 191.6c-2.2.8-2.8 1.3-1.5 1.3 1.1 0 3.1-.6 4.5-1.4 3.1-1.7 1.7-1.7-3 .1zM173 191.5c-1.4.8-2 1.4-1.5 1.4.6 0 2.1-.6 3.5-1.4 1.4-.8 2.1-1.4 1.5-1.4-.5 0-2.1.6-3.5 1.4zM396.4 191.4c1.1.9 2.4 1.6 3 1.6 1.2 0 .7-.5-2.4-1.9-2.4-1.1-2.4-1.1-.6.3zM119.7 191.7c-.3.5 2.3.7 5.6.5 10.4-.5 11.6-.9 3-1.1-4.5 0-8.4.2-8.6.6zM138.8 191.7c1.2.2 3 .2 4 0 .9-.3-.1-.5-2.3-.4-2.2 0-3 .2-1.7.4zM408.8 192.2c.6.6 1.8.8 2.8.6 1.4-.3 1.2-.5-.9-1-1.9-.3-2.5-.2-1.9.4zM435.5 191.6c7.2.8 15.3.8 14.8.1-.2-.4-4.3-.6-9.1-.5-4.8 0-7.3.3-5.7.4zM514 194.7c0 21.6-46.9 44.9-113.7 56.2-13.8 2.4-51.3 7-58.8 7.3l-5 .1 4.3.4c5.8.6 38.5-3.1 60.7-6.9 20-3.3 51.5-11 64.4-15.7 4.7-1.7 8.6-2.9 8.8-2.7.3.3-6.7 3.6-15 7-2 .8-3.9 2.1-4.1 2.8-.6 1.8-1.6 22.4-1.6 32.9 0 8.1-.2 8.8-2.7 11.4l-2.8 2.8 3.7-.7 3.8-.7-.2 7.6c-.1 5.1-.6 8.1-1.5 9.1-.9.9-1 1.4-.3 1.4.8 0 1.1 4.1.9 14.2-.1 7.9-.4 14.9-.7 15.5-.2.7-1.3 1.3-2.4 1.3-1.6 0-1.8.4-1.2 2.2.5 1.3.9 3.5 1 5 .4 6.2.5 6.5 1.4 4.3.5-1.3.8 1.4.9 7.2 0 8.1-.2 9.3-1.7 9.4-1 0-1.2.3-.4.6.8.3 1.2 2.9 1.2 7.9 0 4.1.3 7.4.7 7.4.4 0 6.4-2.8 13.4-6.1l12.8-6.2.3-6.1.3-6.1 1.5 5c.9 2.7 1.8 4.5 2.2 4 .3-.6-.3-3.5-1.3-6.5-1.3-4-1.8-8.8-1.8-17.8-.1-13 1.1-15.5 2.4-5 .5 3.5 1 5.5 1.3 4.4.2-1-.4-5.9-1.4-10.9-1.4-7.6-1.6-11.4-.9-24.6.5-8.6.7-18.8.6-22.6l-.2-7.1 4.3-1.9c2.4-1.1 4.6-2.2 5-2.3.5-.2.8 1.6.8 4 .1 2.3.9 10.6 1.9 18.3.9 7.7 1.7 15.1 1.6 16.5-.1 1.4-.3 5.4-.4 9l-.3 6.5-1.8-10.8c-1-5.9-2.1-13.3-2.4-16.5-1.3-12.1-1.8-15.2-2.5-14.7-.4.2-.4 3.5.1 7.2 2.3 19.4 4.1 31.5 5.5 37.8 2.7 12.7 2.8 13.1 1.2 11.8-1.1-.9-1.4-.6-1.6 1.8-.1 1.5.2 3.1.7 3.4.6.4 1 1.6 1 2.8 0 6.6-3.3-4.8-7.1-24.6-.6-3.2-1.3-5.7-1.5-5.4-.5.5 3.3 23 4.7 27.7 2.2 7.4 2.7 10 1.8 10.6-.5.3-.9-.1-.9-.8 0-1-.3-.9-.9.2-.6.8-.7 1.9-.5 2.5.3.5-.2.1-1.1-1-.9-1.1-1.4-3-1.2-4.2.2-1.2 0-2-.4-1.7-.5.3-.9-.4-.9-1.5 0-1.2-.4-2.1-1-2.1-.5 0-1 .3-1 .7 0 1.7 3.5 12.3 4 12.3.8 0 11.2-10.6 13.8-14 4.5-5.9 6-10.6 6.7-20.1.3-5.2 1.2-29.7 2-54.4.9-24.8 1.8-53.4 2.2-63.8.3-10.3.3-18.7 0-18.7-.4 0-.7 1.7-.7 3.7zm-17.4 79c-.5 3.4-.4 4.4.3 3.3.8-1.1 1.1-.6 1.1 2.3 0 2.3-.4 3.6-1 3.2-.5-.3-1-.2-1 .4 0 .5.5 1.1 1.2 1.3.9.3.9 1.2 0 3.9l-1.1 3.4.3-3.3c.1-1.8-.1-3.5-.6-3.8-.9-.6-1.1-9.8-.2-13.2 1.1-3.9 1.7-2.4 1 2.5zm14.3.5c0 3.2-.3 4.6-.7 3.5-.7-1.6-1-1.4-3 1.2-1.7 2.3-2.2 4.4-2.2 8.8 0 4.1.3 5.4 1 4.3.7-1.1 1-.8 1 1.6 0 1.7-.6 3.6-1.3 4.2-1.4 1.2-2.3 13.2-1 13.2 1.4 0 3.7-4.4 4.4-8.5l.6-4 .2 5.1c.1 5.4-2.9 11.4-8.3 16.3l-2.6 2.4v-2.7c0-1.5.4-3.5.9-4.4 1.1-2.1 1.9-29.2.9-29.2-2.3 0-.2-4.9 4.2-9.7 2.8-3 5-5.9 5-6.4s.2-.9.5-.9.5 2.4.4 5.2zm-8.9-.8c0 .3-.4.8-1 1.1-.5.3-1 .1-1-.4 0-.6.5-1.1 1-1.1.6 0 1 .2 1 .4zm-5.3 20.8c-.3.8-.6.5-.6-.6-.1-1.1.2-1.7.5-1.3.3.3.4 1.2.1 1.9zm1.5 5.5c-.5 5.9-1 6.3-1.1 1-.1-2.6.3-4.7.7-4.7.4 0 .6 1.7.4 3.7zm-24.8 11.9c.8 2-.3 6.4-1.5 6.4-.6 0-.5-.8.1-1.9 1.3-2.5 1.3-3.1 0-3.1-.5 0-1 .6-1 1.4 0 .8-.9 2.4-1.9 3.7-2.4 3-4.7 1.4-3.7-2.5.9-3.5 2.4-3.3 2 .1-.4 2.8-.4 2.8.7-.2 2.1-5.4 4.1-6.9 5.3-3.9zm-.6 14.1c.2 3.1-.2 4.7-2.1 6.9-2.1 2.4-2.7 2.6-4.1 1.5-3.8-3.2.3-13.8 4.9-12.7.6.1 1.1 2.1 1.3 4.3zm-9.2 4c-1 1-1.9-.5-1-1.8.6-1.1.8-1.1 1.2 0 .2.7.1 1.5-.2 1.8zm36.6 5.1c-.6.2-1.2 1-1.2 1.8 0 .9-.5 1.2-1 .9-1.2-.7-.9-4.3.5-6.4.7-1.2 1.1-1 1.9.9.8 1.7.7 2.5-.2 2.8zm-36.6-1.1c-1 1-1.9-.5-1-1.8.6-1.1.8-1.1 1.2 0 .2.7.1 1.5-.2 1.8zm9.4 5.3c0 3.6-.3 4.1-3.7 5.7-2.1.9-4.1 1.8-4.4 2-.4.2-.4-.8-.1-2.2.2-1.4.7-2.4 1-2.1.2.3 1.7-.1 3.3-1 2.9-1.5 3.8-3.7 1.9-4.9-.6-.4-.8-1.1-.4-1.6 1.1-1.9 2.4.3 2.4 4.1zm-19 4.2c0 4.9-.5 4.7-1.4-.5-.4-2.3-.3-3.7.4-3.7.5 0 1 1.9 1 4.2zm45.7-1c-.3.7-.5.2-.5-1.2s.2-1.9.5-1.3c.2.7.2 1.9 0 2.5zm-1.7 1.7c0 .6-.4 1.3-1 1.6-.5.3-1-.1-1-.9 0-.9.5-1.6 1-1.6.6 0 1 .4 1 .9zm1.4 7c.3.5 0 1.3-.7 1.9-1 .8-1.3.6-1.3-.9 0-2 1.1-2.5 2-1z"/><path d="M467.5 327c-1 1.1-1.5 2.6-1.1 3.6.6 1.5.9 1.5 2.9.1 2.6-1.7 3.6-5.7 1.4-5.7-.8 0-2.2.9-3.2 2zM54.1 198c0 4.4.3 6 .9 4.9.5-.9.5-3.6.1-6.5l-.9-4.9-.1 6.5zM220.3 193.7c.9.2 2.3.2 3 0 .6-.3-.1-.5-1.8-.5-1.6 0-2.2.2-1.2.5zM270.4 195.2l-1.9 2.3 2.3-1.9c2.1-1.8 2.7-2.6 1.9-2.6-.2 0-1.2 1-2.3 2.2zM291.3 193.7c.9.2 2.3.2 3 0 .6-.3-.1-.5-1.8-.5-1.6 0-2.2.2-1.2.5zM344.6 193.8c-.2.4 1.1.6 3 .4 1.9-.2 3.4-.6 3.4-.8 0-.8-5.9-.4-6.4.4zM164 195c-.8.5-1 1-.5 1 .6 0 1.7-.5 2.5-1s1.1-1 .5-1c-.5 0-1.7.5-2.5 1zM231 195c.8.5 2 1 2.5 1 .6 0 .3-.5-.5-1s-1.9-1-2.5-1c-.5 0-.3.5.5 1zM251.9 197.6c-1.8 2-4.3 4-5.4 4.4-1.4.6-1.5.9-.5.9.9.1 3.6-1.9 6-4.4 2.4-2.5 4.2-4.5 3.9-4.5-.3 0-2.1 1.6-4 3.6zM337.5 195.5c-1.6.8-3.7 1.2-4.7.9-.9-.3-1.9-.1-2.2.4-.7 1.2 5.7.7 8.3-.8 1.2-.6 2.7-.8 3.3-.4.7.4.8.3.4-.4-.9-1.4-1.3-1.4-5.1.3zM221.8 195.7c.7.3 1.6.2 1.9-.1.4-.3-.2-.6-1.3-.5-1.1 0-1.4.3-.6.6zM305.4 197.1c-1 1.2-3.2 3-4.9 4-1.7 1.1-2.3 1.9-1.5 1.9.9 0 3.4-1.8 5.5-4s3.7-4 3.4-4c-.3 0-1.4 1-2.5 2.1zM411.3 197.6c2.7 1.4 5.1 2.3 5.3 2.1.5-.5-8.1-4.7-9.3-4.7-.5.1 1.4 1.2 4 2.6zM157.8 197.6c-3.9 2.1-3.5 2.8.5.8 3.7-1.9 4.4-2.4 3.1-2.4-.5.1-2.1.8-3.6 1.6zM214.8 196.7c1.2.2 3 .2 4 0 .9-.3-.1-.5-2.3-.4-2.2 0-3 .2-1.7.4zM236.4 197.2c.9.5 2.3.5 3.2 0 1.2-.6.7-.9-1.6-.9s-2.8.3-1.6.9zM285.8 196.7c.6.2 1.8.2 2.5 0 .6-.3.1-.5-1.3-.5-1.4 0-1.9.2-1.2.5zM354.5 197c2.8.5 6.8.8 9 .8 3.5-.1 3.3-.2-1.5-.8-3-.5-7.1-.8-9-.8-2.8.1-2.5.2 1.5.8zM205.8 197.7c1.2.2 3 .2 4 0 .9-.3-.1-.5-2.3-.4-2.2 0-3 .2-1.7.4zM198.8 198.7c.7.3 1.6.2 1.9-.1.4-.3-.2-.6-1.3-.5-1.1 0-1.4.3-.6.6zM368.8 198.7c.7.3 1.6.2 1.9-.1.4-.3-.2-.6-1.3-.5-1.1 0-1.4.3-.6.6zM281.6 200.9c-.3.5.5.8 1.9.8s2.2-.3 1.9-.8c-.3-.5-1.1-.9-1.9-.9-.8 0-1.6.4-1.9.9zM382 202.4c.7.7 1.3.7 2 0 .6-.6.3-1-1-1s-1.6.4-1 1zM118.5 203.7c-3.8 1-6.8 2.4-6.2 2.9.3.3 1.5 0 2.7-.6 1.2-.6 4.9-1.5 8.3-1.9 5.5-.8 5.7-.8 1.7-.9-2.5 0-5.4.3-6.5.5zM133 203.4c0 .2 1.1.6 2.5.8 1.3.3 2.2.1 1.9-.3-.5-.9-4.4-1.3-4.4-.5zM153.3 204.2c.7.4 5.3.7 10.2.6 10.3-.1 8.8-.6-3.2-1-4.4-.2-7.6 0-7 .4zM192.9 204.4c2.6 1.3 4.4 1.4 8 .7l4.6-.9-5.5.1c-3 0-6.6-.3-8-.7-1.4-.4-1 0 .9.8zM417 204c-1.4.4-5.7.5-9.6.2-3.9-.2-7.4-.1-7.7.4-.8 1.4 18.1 1 19.5-.4.7-.7 1-1.2.8-1.1-.3.1-1.6.4-3 .9zM438 204c3.6.4 9.3 1.9 12.7 3.3 3.4 1.4 6.4 2.3 6.7 2 1.2-1.3-15.9-6.3-20.9-6.2-5 .2-5 .2 1.5.9zM219.3 206c-1.8 1.1-3.3 2.2-3.3 2.5 0 .8 5.8-2.3 6.5-3.5.9-1.4.5-1.3-3.2 1zM365.5 204.8c-1.6.2-3.3.7-3.7 1.1-.9.8 13.2.1 14.9-.8 1.2-.6-6.1-.8-11.2-.3zM430.4 205.4c1.1.9 2.7 1.6 3.5 1.5 1.4 0 1.4-.1.1-.6-.8-.3-2.4-1-3.5-1.5-2-.9-2-.9-.1.6zM54.7 216.3c.2 6.2.8 21.5 1.3 34.2.6 12.6 1.3 35.8 1.6 51.5.2 15.7.9 30.6 1.5 33.2 1.4 6.1 7.1 14.8 14.3 21.8 3.1 3 5.6 5.2 5.6 4.8 0-.3-.7-2.2-1.5-4.2-1.6-3.7-.5-5 1.5-1.9 1 1.7 1 1.6.9-.2-.2-3.5.1-3.9 1.6-1.9 1.4 1.8 1.4 1.8.8-.4-.9-3.8.7-2.4 2.8 2.4 1.1 2.6 2.2 4.4 2.5 4.1.3-.3-.6-2.7-2-5.4-2.2-4.4-2.3-5.2-1-6.5 1.6-1.5 2.9-13.2 1.5-12.3-.5.3-1.4-.9-2-2.7-.6-1.7-1.4-2.9-1.7-2.6-.3.4.4 2.4 1.5 4.5 1.7 3.4 1.8 4.6.9 8.1-1 4.1-2.8 5.8-2.8 2.7 0-.8.5-1.5 1.1-1.5.6 0 .8-.7.5-1.7-.4-.9-.2-2 .5-2.3 1.2-.8-1.4-5.8-3.8-7.3-.7-.4-1.3-2.7-1.3-5 0-3.1.3-3.8 1-2.7.5.8 1 1 1 .5 0-.6-.5-1.6-1.2-2.3-1.1-1.1-1.4-6.9-.5-7.9.6-.6 5.7 10.5 5.7 12.4 0 .8.4 1.2.9.9 1.3-.8-3.1-12.8-7.1-19.2-2.6-4.2-3.3-6.3-3-8.9.2-2 .8-3.2 1.4-2.9.7.4.7-.2.2-1.7-.4-1.3-.8-3.5-.9-4.9-.3-4.1-.5-4.6-1.4-3.1-.6.9-1.4-.1-2.6-3.5-1-2.7-2.2-5.4-2.6-5.9-.7-1.1-1.7-5-2.4-10-.4-3.1-.2-2.7 7 12.8 1.4 3.3 2.9 5.6 3.2 5.3.3-.3-.1-2-1-3.8-5.2-11-6.8-15.1-6.2-15.6.3-.3.8.3 1.1 1.5.4 1.3 1.1 2 2 1.6.8-.3 1.4 0 1.4.6s.3 1 .8.9c1.7-.3 4.5 1.7 6.8 5.1 1.8 2.4 2.4 2.9 1.9 1.3-.4-1.3-.2-2.2.4-2.2.7 0 1.1 3 1 8.2v8.3l-1.9-4.3c-1.1-2.3-2.2-4.2-2.5-4.2-.6 0 2.1 6.8 3.4 8.4 1.5 1.9 2 8.5 2.6 34.1.3 15.8.2 24.3-.4 23-.5-1.1-1-1.4-1-.7-.1.7.5 2.3 1.3 3.5 1.9 2.9 2 15.7.2 13.1-1.2-1.6-1.3-1.6-1.9 0-.4.9-.3 1.4.2 1.1.5-.3 1.6.4 2.4 1.5 1.2 1.7 25.1 14 27.3 14 .5 0 .8-3.9.7-8.7l-.3-8.8 1.5 4.5c.8 2.5 1.5 5.4 1.6 6.5 0 1.1.9 3.8 2 6 1 2.2 1.7 3.1 1.5 2-1-4.6-4.9-18.2-5.9-20.5-.6-1.4-1.3-9.3-1.4-17.5-.2-8.3-.8-24.4-1.3-36-.4-11.5-.7-21.2-.4-21.4.2-.2.4.1.4.7s.8 1.1 1.8 1.1c3.8.1 5.2.5 5.2 1.3 0 .6.6.8 1.3.5.6-.2 3.6.5 6.4 1.5 2.9 1 6.1 1.8 7.1 1.8 1.1 0 2.4 1 3 2.2l1.1 2.3v-2.3c.1-1.9.4-2.1 2.1-1.2 1.7.9 7.6 2.4 13.5 3.4 1.1.2 2.2.5 2.5.6.3.1 1.4.2 2.6.1 1.1-.1 3.3.3 5 1 1.6.6 4.8 1.2 7.2 1.3 2.5.1 4.7.8 5.3 1.6.6.9 1.2 1.1 1.5.5.6-1.6 7.7-.5 9.1 1.4.8 1 1.2 1.2 1.3.3 0-1.7 3.9-1.5 7.5.4 1.8.9 3.1 1.1 3.3.5.5-1.6 6.5-.1 8.6 2.3l1.9 2.1-.5-2.1c-.5-2-.3-2.1 2.5-1.3 1.6.5 3.3.7 3.7.4.4-.2 2.1 2.5 3.8 6.1l3.1 6.6-6.2-.7c-27.7-2.8-67.2-9.6-75.9-13-1.6-.7-1.8.2-1.8 8.9 0 8.5.2 9.7 2 10.8 1.8 1.1 2 2.4 2 10.2 0 7.7-.2 8.7-1.5 7.6-1.3-1.1-1.5 0-1.5 8.8 0 5.6.4 10.3.9 10.7 1 .6 14.8 4.2 19.1 5.1 1.4.2 4.5.9 7 1.4 6.3 1.3 22.2 4 24 4 1.3 0 1.5-1.8 1.2-12.3-.2-6.7-.5-12.3-.6-12.4-.1-.2-3.8-.9-8.1-1.6l-7.9-1.3-.4-3.8-.4-3.8 4.9.7c2.6.3 9.2 1.3 14.5 2 5.4.8 10.2 1.5 10.8 1.5.6 0 1 2.8 1 6.5 0 5.8-.2 6.5-2 6.5-1.9 0-2 .7-2 10 0 5.5.1 10 .3 10 .1 0 5.8.7 12.7 1.6 10.6 1.3 21 1.8 21.6 1.1.4-.4.7-6.6.6-12.5-.2-5.5-.5-6.5-2.2-6.9-1.3-.4-2-1.4-2-3 0-2.3.3-2.1 4.5 2.4l4.4 4.8.1 8.2c0 6 .4 8.3 1.3 8.3.6 0 4.9 1.9 9.4 4.2 7 3.6 8.2 4.6 7.7 6.3-1.1 3.5-2.5 4.7-4 3.4-1.1-.9-1.1-1.5-.3-2.5 1.1-1.3.5-3.4-1.1-3.4-.5 0-1 .6-1.3 1.2-.2.7-.3.5-.2-.5.2-1.1-.3-1.7-1.6-1.7-1.5 0-1.9.7-1.9 3.9 0 2.5.5 4.1 1.5 4.5 1 .3 1.5-.1 1.5-1.1 0-1.4.3-1.3 2 .4 1.9 2.1 6.2 2.2 5.7.1-.1-.6.4-1.3 1.1-1.5.6-.3 1.2.2 1.2 1.1 0 .9.8 1.6 1.9 1.6 1.8 0 1.9-.2.5-2.8-.7-1.5-1.4-3.2-1.4-3.7 0-.6-3.4-2.5-7.6-4.4-4.1-1.9-7.7-3.7-7.9-4.1-.2-.4 6.5-.5 15-.2l15.4.5.3-9.2c.4-10.6.3-11.1-2.3-11.1-1.6 0-1.9-.7-1.9-4 0-4.5 0-4.6 4.2-2.4 1.6.9 2.8 1.1 2.4.6-.3-.5-1.9-1.5-3.6-2.2-1.9-.8-3-2-3-3.2 0-1.7.7-1.9 8.5-1.7 4.7.2 8.5.5 8.5.8 0 .3-.5 2.4-1.2 4.6-1.4 4.8-1.5 5.2-1.7 6.5 0 .5-1.4 1-3.1 1-1.9 0-3 .5-3 1.4 0 .8-.6 1.7-1.2 1.9-1 .4-1 .6 0 .6.8.1 1.2 2.4 1.2 8.1v8.1l14.3-.3 14.2-.3 1.6-5c1.3-3.8 2.3-5.1 4.4-5.6 3-.9 4.8 1.6 2.4 3.2-1.1.7-1.1.9.2.9.9 0 1.9 1 2.3 2.2.9 3.5.8 3.8-1.6 3.8-1.2 0-1.9.3-1.6.6.3.3 3.2.1 6.4-.5 3.3-.5 10-1.2 14.9-1.5 5-.3 11.9-1 15.5-1.6 3.6-.5 7.6-.9 9-.9 2.3 0 2.3.1.5.9-1.1.5-1.5.9-.9.9.7.1 2.5-.6 4-1.4 1.6-.8 3.6-1.5 4.5-1.5 2.6 0 3.8-2.2 4.1-8l.3-5.4 3.8 5.7c2 3.1 4.2 5.7 4.8 5.7.5 0 .8.4.5.9-.8 1.2 2.6 9 5 11.7 2.3 2.6 7.7 5.4 10.1 5.3 1.1 0 .8-.4-.9-.9-6.6-2-10.8-7.1-12.2-14.7l-.5-3.1 7.2-1.3c9-1.7 8.9-1.7 9.5-.2.2.7-.3 1.3-1.2 1.3-.9 0-1.6.7-1.6 1.5 0 1.9.5 1.9 4.1-.2 1.6-1 2.9-2.6 2.9-3.6 0-1.6.3-1.7 1.5-.7.8.7 1.5.9 1.6.4.2-3.4 1-7.8 1.4-8.2.3-.3.5 1.2.5 3.2 0 3.1.3 3.7 1.6 3.2.9-.3 1.8-.6 2-.6.2 0 .4-.5.4-1.1 0-.5-.4-.7-1-.4-.6.4-1-1-1-3.5 0-3.8-.2-4-2-3-1.1.6-2 2.1-2.1 3.3 0 2.2 0 2.2-1-.2-.5-1.3-.7-4.5-.5-7 .5-5-.5-7.8-2.2-6.7-.7.4-1.1-2.3-1-8.3 0-8 .2-9.1 1.9-9.6 1.7-.6 1.9-1.7 1.9-10.4v-9.8l-12.2 2.4c-6.8 1.3-12.9 2.5-13.5 2.8-.9.3-1.3 2.6-1.3 6.7v6.3l-2.7-4.5c-3.9-6.7-5-7.7-8.1-7.4-3 .4-24.6 3.2-24.9 3.3-.2.1-.3 4.7-.3 10.2 0 9.4.1 10.1 1.9 9.6 1.7-.4 1.9.2 1.9 8.9l.1 9.4H350c-2.5 0-3-.4-3-2.4 0-1.3.6-2.7 1.3-2.9.7-.4.6-.6-.5-.6-1.2-.1-2.2-2.7-4.2-11.4-1.5-6.1-3.1-13.1-3.8-15.5l-1.1-4.2-19.1.6c-10.5.4-19.4.9-19.7 1.3-.4.3-1.6 4.2-2.8 8.6-1.8 7.4-2 7.6-2 3.5.1-2.5 0-6.2 0-8.3l-.1-3.7h-10.3c-9.3 0-10.6-.2-14.2-2.6l-4-2.5 3 2.6 3 2.6-4.5-.5c-2.5-.3-12.1-.8-21.5-1.1-9.3-.4-18.1-.9-19.4-1.2-1.6-.4-3.1-2.2-4.7-5.7-3-6.3-3.1-8-.5-6.7 1 .6 2.2.7 2.6.3.4-.4 1.7.6 3 2.2l2.3 2.8-.5-2.5c-.5-2.4-.3-2.5 2.3-1.8 1.9.5 4 2.4 6 5.4 4.2 6.4 5.3 7.2 2 1.6-3.2-5.5-3.2-6.5-.5-6.5 1.4 0 3.5 1.8 6.1 5.3 2.1 2.9 4.1 5.3 4.4 5.3.3 0-.8-1.9-2.5-4.2-1.7-2.3-3.1-4.6-3.1-5 0-2 3.6-.5 6.8 2.9 3.2 3.4 3.3 3.5 1.4.6-2.8-4-2.8-4.3.6-4.3 1.6 0 4.5 1.4 7.1 3.5 5.1 4.1 7.1 4.7 2.3.7-1.8-1.5-3.2-2.9-3.2-3.2 0-1.2 15.8 0 19.2 1.4 4.7 2 5.7 2 3.2.1-1-.8-1.4-1.5-.9-1.5.6-.1 9.1-.3 19-.5s22.5-.7 28-1.1c5.5-.4 11.8-.8 14-.9 2.2-.2 6.8-.7 10.3-1.2 3.4-.5 6.2-.8 6.2-.6 0 .1-1.2.9-2.7 1.8-3.2 1.8-2.3 1.6 8.2-1.4 3.9-1.1 8.8-2.2 11-2.5 4.2-.5 12.3-2 16.5-3 2.4-.6 3.8-.9 12-2.3 1.9-.3 4.2-1 5-1.5 1-.6.1-.7-2.5-.2-2.2.4-5.1.8-6.5 1-1.4.1-7.7.9-14 1.9-19 2.7-26.5 3.5-48.5 5-23.7 1.7-78 2-95.5.5-6.3-.5-15.1-1.1-19.5-1.4-12.8-.9-37.1-3.9-45-5.6-2.2-.5-5.6-1.2-7.5-1.5-5.3-.9-20.4-4.7-21-5.2-.3-.3.7-.4 2.2-.1 1.5.3 2.5.1 2.2-.3-.3-.5-1.4-.9-2.4-.9-1.7 0-1.8-.4-.9-2.6.8-2.4.8-2.5-.6-1.4-.8.7-1.5.9-1.5.6 0-.4-1-.2-2.2.4-2.2 1.1-2.2 1.1.1-.8 2.2-1.8 2.2-2.1.8-4.3-1.6-2.7-3.1-7.6-2.9-9.9.1-1 0-1.1-.4-.3-.3.7-1 1.3-1.5 1.3-.6 0-.8-.4-.4-.9.3-.5-.2-1.7-1.2-2.6-1.3-1.3-1.3-1.9-.3-2.5 1-.6.9-.9-.1-1.2-1.2-.4-1.2-.7 0-2.1 1.6-2 .2-2.3-1.9-.5-.8.7-.6.2.5-1 1.8-2.1 1.8-2.5.4-3.5-2.3-1.8-3.2-4.7-1.4-4.7 2.5 0 1.7-1.9-1-2.6-2-.5-2.3-.9-1.4-2 1.3-1.6-.2-1.9-1.8-.3-.8.8-1.3.7-1.8-.1-.4-.7-.1-1.7.6-2.2 1-.7.6-.8-1.3-.5-1.9.3-2.8 0-2.8-.9 0-.8-.3-1.3-.7-1.2-2.6.9-42.3-15.9-45.7-19.3-1.5-1.4.7-1.1 2.9.4 3 2 15.9 7.2 26.6 10.7 12 3.9 28.9 8.3 29.5 7.8.2-.3-4.2-1.7-9.9-3.3-31.6-8.7-53.2-18.8-65.9-30.8-2.1-2-3.8-3.2-3.8-2.8 0 .5.7 1.4 1.6 2.1.8.8 2 2.2 2.6 3.3 1 1.9.9 1.9-1.3.2-1.3-1-3.8-3.5-5.5-5.6l-3.2-3.8.5 11.2zm2.8-1.4c.3.5.1 1.2-.5 1.6-.5.3-1-.1-1-.9 0-1.8.6-2.1 1.5-.7zm4.2 47.3c-.3.8-.6.5-.6-.6-.1-1.1.2-1.7.5-1.3.3.3.4 1.2.1 1.9zm-.9 3.3c-.3.3-.9-.2-1.2-1.2-.6-1.4-.5-1.5.5-.6.7.7 1 1.5.7 1.8zm3.2 1.9c0 .2.7 2 1.5 4 2 4.8 1.2 4.6-1.4-.4-1.1-2.2-1.6-4-1.1-4 .6 0 1 .2 1 .4zm-2.5 21.1c0 8.6.4 17.6 1.1 21l1.3 6-2-2.4c-1.1-1.3-1.7-3.1-1.4-3.9.3-.8.1-2-.3-2.6-.5-.6-1.2-4.5-1.5-8.6-.3-4.8-.2-6.6.3-5 .5 1.5.7-2.7.3-10.5-.4-11.4-.3-12.8.9-11 1.1 1.5 1.4 5.5 1.3 17zm11.6.8c2.2 5.4 2.6 7.3 1.9 9.3-.6 1.4-.8 3-.4 3.5 1 1.7-.8.9-3.8-1.6-1.6-1.4-2.4-2.5-1.6-2.5.8 0 .9-.3.3-.8-.5-.4-1.1-1.8-1.3-3.1-.1-1.4-.9-3.8-1.7-5.4-.8-1.7-1.5-4.1-1.5-5.5 0-2.9.6-2.7 1.2.3.1 1.1.5 2.2.8 2.5.3.3 1.8 3.6 3.4 7.3 1.6 3.7 3 6.6 3.2 6.4.3-.3-.4-2.4-5.2-14.7-.7-1.9-1.3-4.9-1.3-6.5v-3l1.5 3.5c.9 1.9 2.9 6.6 4.5 10.3zM143 279c0 .5-.2 1-.4 1-.3 0-.8-.5-1.1-1-.3-.6-.1-1 .4-1 .6 0 1.1.4 1.1 1zm-77.6 14.4c-.4 1.1-.2 1.6.4 1.2.6-.4 1 .2.9 1.4-.3 4.7-2.7.3-2.7-5 0-2 .2-2.2 1-1 .5.8.7 2.3.4 3.4zm3.6 9.2c0 1 .6 1.4 1.4 1.1 2-.8 6.2 3.8 4.4 4.9-.7.4-1 .3-.5-.1.9-1.1-2.3-4.6-3.5-3.9-1 .6-3.8-1.4-3.8-2.7 0-.5.5-.9 1-.9.6 0 1 .7 1 1.6zm9.3 8.7c.3.8-.1 1.4-.9 1.4-1.5 0-1.8-.9-.7-2 .9-.9 1-.9 1.6.6zm18.9 2.2c-.2 1.5 0 2.5.7 2.5.6 0 1.1-.9 1.1-2 0-2.2 2-2.6 3.8-.8 1.4 1.4 1.7 7.8.4 7.8-1.7 0-2.1-1.3-.9-3.1.6-1 .7-2.2.3-2.6-.5-.4-1-.4-1.3.2-1.2 3.2-2.1 3.9-3.7 2.6-1.7-1.4-2.2-7.1-.7-7.1.4 0 .6 1.1.3 2.5zm75.3 4.5c6.6 1.1 13 2.3 14.3 2.5 2.1.5 2.2 1 2.2 9.1 0 7.6-.2 8.5-1.7 8-1-.2-4.2-.8-7-1.1-4.7-.6-5.3-1-5.3-3 0-2.6-.9-3.1-7.4-4-4.4-.7-4.6-.6-4.6 1.8 0 3 1.1 3.9 6 4.7l3.5.5.3 6.3c.3 5.7.1 6.3-1.5 5.8-7.1-2.1-7.3-2.1-7.3 1.7 0 4.2.1 4.3 6.3 5.2 4.6.7 4.7.7 4.7-2 0-2.3.3-2.6 2.3-2.2 1.2.3 4.3.9 6.9 1.2l4.6.7.4 8.6c.2 4.8.3 8.8.2 9-.3.5-20.7-3.5-33.1-6.4l-11.3-2.7v-5.8c0-4.9.3-5.7 1.6-5.2 1.4.5 1.5-.9 1.2-12.1-.2-10.8-.6-13-2-14-1.3-1-1.8-2.7-1.8-6.8v-5.5l8.3 1.8c4.5 1 13.6 2.8 20.2 3.9zm-95.9.3c1.4 2.7 1.4 2.8-.3 2.5-1-.2-1.7-1.1-1.5-2 .1-.8-.5-2.1-1.3-2.8-.8-.7-1.5-1.7-1.5-2.2 0-1.6 3 1.3 4.6 4.5zm331.8 3.4c-.4 3.2-1.2 6.1-1.8 6.5-.6.4-1.6 4.9-2.2 10l-1.1 9.3-.2-10.1c-.1-9.4.1-10.2 1.9-10.7 1.5-.4 2-1.4 2-4.1 0-2-.4-3.6-1-3.6-.5 0-1 1.2-1 2.6 0 1.5-.7 3.2-1.6 3.9-1.3.9-1.7 3.6-2.2 12.5-.5 10.6-.7 11.6-2.9 13.3-1.3 1.1-2.2 2.2-1.9 2.5.3.3 1.5-.3 2.6-1.3 2-1.8 2.9-.8 1 1.1-.7.7-.2 1.8 1.5 3.4 5.2 4.9 1.7 8.8-4.1 4.4-3.6-2.8-3.9-3.4-2.6-5 .4-.5-.3.1-1.5 1.4-1.3 1.3-2.3 2.8-2.3 3.4 0 .7.7.3 1.5-.8.8-1 1.5-1.4 1.5-.7s1.2 1.9 2.8 2.7l2.7 1.4-2.5.7c-1.4.3-3.8.7-5.5.9-1.9.2-3.1 1-3.3 2.1-.3 1.1-2.7-1.8-7.3-8.6l-6.9-10.4-.1 6.5c-.1 3.6-.3 7.2-.4 8-.1.8-.3 3.1-.4 5.1-.1 4 .1 3.9-13.8 5.5l-6.3.7v-6.2c0-5.4.2-6.1 2-6.1 1.9 0 2-.7 2-13s-.1-13-2-13c-1.8 0-2-.7-2-5.8v-5.9l11.1-1.2c6.1-.7 11.2-1.1 11.3-.9.2.1 3.2 4.8 6.7 10.3l6.4 10 .5-11.5.5-11.4 8-1.7c12.3-2.6 11.6-2.8 10.9 3.8zm-335.9-1.9c-.3.3-1.1 0-1.8-.7-.9-1-.8-1.1.6-.5 1 .3 1.5.9 1.2 1.2zm135.5 3.6c18.9 2.2 36.1 3.4 60.8 4.2l21.2.7v7.3c0 4.1-.1 7.7-.2 8.1-.2.5-3.7.8-7.8.8-7.2-.1-7.5-.2-7.2-2.3.2-1.7-.2-2.2-1.7-2.2-2 0-2.1.5-2.1 13 0 12.8 0 13 2.3 13 2 0 2.2.4 2.2 6.1v6.2l-11.5-.7c-6.3-.3-12.5-.6-13.7-.6-2.1 0-2.3-.4-2.3-6 0-5.3.2-6 2-6 1.9 0 2-.7 2-13s-.1-13-2-13c-1.5 0-2 .7-2 2.6 0 2-.4 2.5-1.6 2-.9-.3-4.2-.6-7.5-.6-5.6 0-5.9-.1-5.9-2.5 0-1.8-.5-2.5-1.9-2.5-1.7 0-1.9.7-1.7 7.2.1 4 .3 9.9.4 13 .2 5.1.5 5.8 2.2 5.8 1.8 0 2 .7 2 6.1v6l-7.2-.7c-4-.3-10-.9-13.3-1.3l-6-.6-.3-6.2c-.3-5.8-.2-6.1 1.8-5.6 1.9.5 2 .1 2-12.6 0-11-.2-13.1-1.5-13.1-.9 0-1.5.9-1.5 2.1 0 2-.3 2.1-6.7 1.4-3.8-.4-7.1-.9-7.5-1.2-.5-.2-.8-4.2-.8-8.9s.3-8.3.8-8.1c.4.3 6.8 1.2 14.2 2.1zm-144.2 1.1c-.3.3-.9-.2-1.2-1.2-.6-1.4-.5-1.5.5-.6.7.7 1 1.5.7 1.8zm31.7-1.6c.3.5.1 1.2-.5 1.6-.5.3-1-.1-1-.9 0-1.8.6-2.1 1.5-.7zm6.8.8c2.2 2.6 3.1 6.8 1.7 9.2-1.5 3-3.8 2.6-5.8-.9-.9-1.6-2.3-3-2.9-3-.7 0-1.3-.7-1.3-1.6 0-.8.4-1.3.9-1 .5.3 1.2-.5 1.5-1.9.8-2.9 3.6-3.3 5.9-.8zm-30.6 2.5c-.3.8-.6.5-.6-.6-.1-1.1.2-1.7.5-1.3.3.3.4 1.2.1 1.9zm264.8 5.3c.7 2.7 2.5 10.4 4 17 3.2 13.7 3.9 15.7 6 14.9 1.2-.5 1.5.5 1.5 5.4v6l-6.7.6c-3.8.4-8.3.8-10 1.1-3.2.4-3.3.2-4.9-5.2l-1.6-5.5-6.1.7c-3.4.4-6.3.8-6.3.9-.1 0-.8 2.3-1.6 5.1l-1.4 5-10.2.3-10.2.3v-12.3l2.9.4c1.7.2 2.7 0 2.4-.4-.2-.5 1.6-9.4 4.2-19.8l4.8-18.9 13.1-.4c20.7-.5 18.7-1 20.1 4.8zM69 331c0 .5-.2 1-.4 1-.3 0-.8-.5-1.1-1-.3-.6-.1-1 .4-1 .6 0 1.1.4 1.1 1zm7.7 3.7c.2-.3 0-1.5-.6-2.6-1-1.7-.9-2 .4-1.5.8.4 1.8 1.8 2.2 3.3.3 1.4 1.2 3.5 1.9 4.6.8 1.1 1.4 2.6 1.3 3.5 0 .8-.7.1-1.5-1.7-1.6-3.6-3.5-5.3-2.7-2.3.9 3.5-.6 2.1-2.7-2.4-2.3-5.2-2.6-7.4-.4-3.3.9 1.6 1.8 2.7 2.1 2.4zm-4.7-2.2c0 .8-.2 1.5-.4 1.5s-.6-.7-1-1.5c-.3-.8-.1-1.5.4-1.5.6 0 1 .7 1 1.5zm33 10.7c0 4.5-.1 4.8-1.6 3.4-.8-.9-2.6-1.9-4-2.2-1.8-.5-2.4-1.3-2.4-3.3 0-1.4.4-2.1.8-1.5.7 1.1 4.6 3.4 5.7 3.4.6 0 .1-2-1.3-6-.5-1.3-.3-1.3 1.1-.1 1.2.9 1.7 2.9 1.7 6.3zm-33.6-4.6c.9 2.2.8 2.3-1.3 1.7-1.2-.3-1.7-1.1-1.4-1.9.7-1.9 1.9-1.8 2.7.2zm3.4 1.9c-.3.3-.9-.2-1.2-1.2-.6-1.4-.5-1.5.5-.6.7.7 1 1.5.7 1.8zm-1.1 4.7c-.3.8-.6.5-.6-.6-.1-1.1.2-1.7.5-1.3.3.3.4 1.2.1 1.9zm7.7 2.3c.3.8.1 1.5-.4 1.5-.6 0-1-.7-1-1.5s.2-1.5.4-1.5.6.7 1 1.5zM79 349c.6 1.1.7 2 .2 2-.6 0-1.2-.9-1.5-2-.3-1.1-.3-2-.1-2 .2 0 .8.9 1.4 2zm165.8-1.4c1.5.5 2.2 1.4 2.2 3.1 0 2.3-.2 2.4-1.7 1.2-1.7-1.3-1.7-1.3 0 .7 2.4 2.9 2.3 8.4-.2 8.4-1.1 0-2.1.5-2.3 1.1-.2.7-2.3-1.1-4.6-3.9-3-3.5-4.2-5.9-4.2-8.1 0-3 .2-3.1 4.3-3.1 2.3 0 5.2.3 6.5.6zm161.3 6.4c1.9 0 1.9 0-.1 2-1.1 1.1-2.1 2-2.3 2-.1 0-.3-2.4-.3-5.3-.1-2.8.1-3.7.3-2 .3 2.5.9 3.3 2.4 3.3zm-333.6-4c.3.5.2 1-.4 1-.5 0-1.3-.5-1.6-1-.3-.6-.2-1 .4-1 .5 0 1.3.4 1.6 1zm4 1c.3.5.2 1-.4 1-.5 0-1.3-.5-1.6-1-.3-.6-.2-1 .4-1 .5 0 1.3.4 1.6 1zm-1.5 4.6c0 1.4-.3 1.4-1.5.4-.8-.7-1.5-1.4-1.5-1.6 0-.2.7-.4 1.5-.4s1.5.7 1.5 1.6zm332.2 5.3c-.3 2.7-1 4.2-2.5 4.9-2.6 1.3-13.8 3.4-14.5 2.7-.9-.9.1-1.2 4.8-1.8 9.1-1.2 10.5-2 10.8-6 .2-2 .6-3.7 1-3.7s.6 1.7.4 3.9z"/><path d="M146 321.8c0 .5.7 1.3 1.6 1.6 1 .4 1.4.1 1.2-.6-.5-1.5-2.8-2.3-2.8-1zM185.2 328.2l.3 5.3-4.5-.4c-5.7-.4-4.6 1 1.5 1.9l4.5.7v-6.4c0-3.9-.4-6.3-1.1-6.3-.7 0-1 1.9-.7 5.2zM160 330.5c0 3 .5 5.5 1 5.5.6 0 1-2.2 1-4.8v-4.9l6.3 1.3c7.4 1.6 9.5 1.7 8.2.5-1-.9-11.5-3.1-14.7-3.1-1.5 0-1.8.8-1.8 5.5zM169.2 341.7c.2 1.6-.1 2.7-.7 2.7-.5-.1-2.5-.5-4.2-.9l-3.3-.7v6.8c0 3.7.3 6.4.7 6 .4-.3.6-2.9.4-5.6l-.2-5 4.5.6 4.6.7v-3.7c0-2-.5-3.6-1-3.6-.6 0-.9 1.2-.8 2.7zM186 361v6l-4.2-.6c-2.4-.4-11-2.2-19.2-4-13.5-3-17-3.4-15.4-1.9.4.5 27.9 6.3 37.1 7.9l3.7.7v-6.5c0-3.6-.4-6.8-1-7.1-.6-.4-1 1.7-1 5.5zM375.1 327.7c3 4.9 13.1 20.7 13.5 21.2.2.2.6.2.9-.1.8-.8-14.4-24.8-15.7-24.8-.5 0 .1 1.7 1.3 3.7zM356.5 333c-.3.5.1 1 .9 1 .9 0 1.6-.5 1.6-1 0-.6-.4-1-.9-1-.6 0-1.3.4-1.6 1zM370.6 347.1c-.3 3.4-.6 9.7-.6 14v7.8l-4.7.6c-8 1-10.3 1.6-9.9 2.4.6.9 14.8-.7 15.8-1.7.8-.9 1.5-29.2.7-29.2-.3 0-.9 2.8-1.3 6.1zM287 335.5v5.5h-5c-2.7 0-5 .4-5 1s2.7 1 6 1h6v-6.5c0-3.7-.4-6.5-1-6.5-.5 0-1 2.5-1 5.5zM204 334.1c0 1.9-.4 2.1-4 1.6-4.3-.5-5.5.7-1.7 1.7 4.7 1.2 7.7.7 7.7-1.4 0-1.6.7-2 3.6-2 2.1 0 3.3-.4 2.9-1-.3-.6-2.4-1-4.6-1-3.3 0-3.9.3-3.9 2.1zM226 349.4c0 9.2.4 15.7 1 16.1.6.4 1-4.7 1-14.6v-15.1l3.5.4c2.2.2 3.4 0 3.2-.6-.2-.6-2.2-1.2-4.5-1.4l-4.2-.3v15.5zM245 337.6c0 2.6-.2 2.6-4.5 2.2-2.5-.3-4.7-.2-5 .2-.5.9 4.4 2 8.6 2 2.5 0 2.9-.4 2.9-2.6 0-2.5.2-2.6 3.5-2 3.8.8 4.9-.8 1.3-1.8-5-1.3-6.8-.7-6.8 2zM268 352.1c0 11.6.3 15.8 1.1 15.3s1-5 .6-15l-.5-14.4h3.9c2.2 0 3.9-.5 3.9-1 0-.6-2-1-4.5-1H268v16.1zM230 369c0 2.9-.2 3-4.2 2.9-2.4 0-6.9-.4-10-.8-5.7-.7-8.1.1-3.5 1.2 3.8.9 18.5 2 19.4 1.4 1.1-.7.4-7.7-.8-7.7-.5 0-.9 1.3-.9 3zM271.8 371.1l-.3 3.2-10.8-.2c-7.5-.2-10.7.1-10.2.8.4.7 5.1 1.1 12.1 1.1H274v-3.4c0-4.5-1.8-5.6-2.2-1.5zM97.8 325.5c-1 1.1.4 4.5 2.3 5.6 1.5.8 2.1.6 2.6-.7 1.1-2.9-2.9-6.9-4.9-4.9zM332 328.7c0 2.4 8.3 35.9 9.1 36.8.6.5.9.2.9-.8 0-2.9-8.1-35.2-9.1-36.2-.6-.5-.9-.5-.9.2zM317.9 335.7c-1.2.3-2.4 3.4-4.2 10.6-2.4 9.3-2.7 12-1.1 10.4.3-.3 1.6-4.7 2.9-9.8 1.3-5 2.9-9.6 3.7-10 1.6-1 .8-1.7-1.3-1.2zM316.7 347.3c-2.2 9-2.2 8.7.7 8.7 5.2 0 5.4-.5 3.8-7.8-.8-3.7-1.7-7-2.1-7.4-.3-.4-1.4 2.5-2.4 6.5zM309.1 365.2c-.5 1.3-1.2 3.7-1.5 5.5-.7 3.1-.8 3.1-8.7 3.8-4.3.4-7.7 1-7.5 1.4.2.3 4 .5 8.5.3l8.1-.4 1.6-5.4 1.5-5.4h8c4.6 0 7.9-.4 7.9-1s-3.5-1-8.5-1c-7.9 0-8.6.2-9.4 2.2zM345 368.4v3.4l-7.5.7c-4.1.4-7.5 1.2-7.5 1.7 0 1.3 15.3-.2 16.2-1.6 1.1-1.6 1-6.4-.2-7.1-.6-.4-1 .8-1 2.9zM207.5 206c2.8 1.2 3.7 1.2 3 0-.3-.6-1.6-1-2.8-.9-2.1 0-2.1.1-.2.9zM349 205.5c0 .2 1.5 1.2 3.3 2l3.2 1.6-2.4-2.1c-2.2-1.9-4.1-2.6-4.1-1.5zM133.5 208.1c-6.6 2.4-19.7 2.6-21.9.3-.9-.8-1.6-1.1-1.6-.5 0 4.4 24.3 4 28.1-.5.6-.8 1-1.3.8-1.3-.2.1-2.6 1-5.4 2zM191.9 207.5c-.3.2-4.9.9-10.3 1.5-9.5 1.1-15.4 2.5-14.4 3.6.3.2 1.8 0 3.3-.6 1.5-.6 7.1-1.5 12.3-2 5.3-.6 10.1-1.5 10.6-2 .7-.7.6-1 0-1s-1.3.2-1.5.5zM377.2 208c1 .6 6.4 1.7 12 2.5 5.7.8 11.4 1.7 12.8 2 2.2.6 2.3.5.6-.5-1-.7-6.6-1.8-12.4-2.6-5.9-.8-11.6-1.7-12.7-2-1.8-.4-1.8-.4-.3.6zM205 210c0 .6.8 1 1.8 1 .9 0 2.6.7 3.6 1.5 1.1.8 2.4 1.5 3 1.5 1.4 0-2.6-2.7-5.8-4-1.7-.6-2.6-.6-2.6 0zM364.5 209.7c-1.1.3-2.7 1.1-3.5 1.8-.8.7-2.2 1.5-3 1.8-1.3.5-1.3.6.1.6.8.1 2.4-.6 3.5-1.4 1-.8 2.7-1.5 3.7-1.5.9 0 1.7-.5 1.7-1 0-.6-.1-.9-.2-.9-.2.1-1.2.4-2.3.6zM240.4 211.4c1.7 1.4 4.9 1.6 20.5 1.4l18.6-.2-18.5-.6c-10.2-.3-19.4-.9-20.5-1.4-2-.8-2-.7-.1.8zM330.7 210.6c-.3.4-3.2 1-6.4 1.4l-5.8.7 5.6.2c3.5.1 6.2-.4 7.5-1.4 1-.8 1.4-1.5.8-1.5-.6 0-1.3.3-1.7.6zM430 210.6c0 .5 2.3.9 5 1 3.7 0 6.9 1 12 3.6l7 3.6 1.5-2.9c.9-1.7 1.1-2.9.5-2.9-.5 0-1 .3-1 .7 0 .5-.4 1.4-.9 2.1-.6 1.1-2.1.7-7.1-1.8-6.1-3.1-17-5.3-17-3.4zM137.9 212.4c-.4.4-19.2 3.7-22.5 4-1.3 0-1.9.6-1.7 1.3.6 1.5 1.9 1.7 2.7.4.3-.5 6-1.7 12.5-2.7 6.6-1 11.7-2.2 11.5-2.6-.6-.9-1.8-1.1-2.5-.4zM219 213c.8.5 2 1 2.5 1 .6 0 .3-.5-.5-1s-1.9-1-2.5-1c-.5 0-.3.5.5 1zM224 213c2 1.3 3.3 1.3 2.5 0-.3-.6-1.4-1-2.3-1-1.5 0-1.5.2-.2 1zM229.5 213c2.8 1.2 3.7 1.2 3 0-.3-.6-1.6-1-2.8-.9-2.1 0-2.1.1-.2.9zM280 212.9c0 2.2 11.2 2.1 12.6 0 .6-1.1.6-1.1-3.4 0-1.8.6-4.5.6-6.2.1-1.6-.5-3-.5-3-.1zM296.8 212.7c1.8.2 4.5.2 6 0s0-.4-3.3-.4-4.5.2-2.7.4zM307.3 212.7c.9.2 2.5.2 3.5 0 .9-.3.1-.5-1.8-.5-1.9 0-2.7.2-1.7.5zM313.8 212.7c.7.3 1.6.2 1.9-.1.4-.3-.2-.6-1.3-.5-1.1 0-1.4.3-.6.6zM338.4 213.6c-1.8 1.4-1.8 1.4.6.3 3.1-1.4 3.6-1.9 2.4-1.9-.6 0-1.9.7-3 1.6zM344 213.5c-1.4.8-2 1.4-1.5 1.4.6 0 2.1-.6 3.5-1.4 1.4-.8 2.1-1.4 1.5-1.4-.5 0-2.1.6-3.5 1.4zM350.5 213c-.3.5-.2 1 .4 1 .5 0 1.3-.5 1.6-1 .3-.6.2-1-.4-1-.5 0-1.3.4-1.6 1zM428.4 213.5c1.1.8 2.7 1.5 3.5 1.5 1-.1.7-.6-.9-1.5-3.3-1.9-5-1.8-2.6 0zM141.2 216.2c-.7.7-4.2 1.2-7.9 1.3-4.3.1-8.3.8-10.8 2-2.2 1-4.3 1.7-4.7 1.7-.9-.2-1.1 1.2-.2 2 .3.3 2.6-.6 5.1-2 3.7-2 6.1-2.6 11.4-2.6 6.1-.1 10.3-1.6 8.8-3.1-.3-.2-1.1.1-1.7.7zM159 216.1c0 1.2 4.1 1.8 6.3 1 1.8-.7 1.4-.9-2-1.2-2.4-.3-4.3-.2-4.3.2zM168.8 216.2c.5.5 1.6.8 2.3.6.8-.3.3-.7-1-1.1-1.7-.4-2.1-.3-1.3.5zM174 216c.8.5 2.2.9 3 .9 1 0 .8-.3-.5-.9-2.7-1.2-4.3-1.2-2.5 0zM394.5 216c-1.9.8-1.9.9.2.9 1.2.1 2.5-.4 2.8-.9.7-1.2-.2-1.2-3 0z"/><path d="M409 216.5c-1.9.7-7.8 1.5-13 1.6l-9.5.3 7 .5c14.1 1.2 2.4 1.7-18.5.9-24.6-1-135.3-1.3-157-.5-8 .3-18.1.7-22.5.8l-8 .2 6.8.4c4 .2 6.5.8 6.2 1.3-.9 1.4.9 1.2 2.2-.1.8-.8 7.2-1.3 18.5-1.4 16.1-.3 17-.2 12.8 1.1-2.5.8-5.4 2.1-6.4 2.9-2 1.5-2 1.5 0 2.9 2 1.5 6.8 1.1 9.1-.6.6-.5 2.4-1.4 4-1.9 2.4-.8 2.4-.8.3-.5-1.4.2-4.5 1.2-6.9 2.1-5.1 1.9-7.8.6-3.9-1.9 4.4-2.9 17.4-4.9 28.5-4.4 5.6.3 10 .1 9.7-.3-.6-1 6.4 0 8.8 1.2 2.6 1.4 3.5 1 1.4-.6-1.8-1.4-1.1-1.5 7-1.5 8.3.1 8.8.2 6.9 1.7l-2 1.6 2-.7c1.1-.4 3.9-1.1 6.3-1.6 3.4-.6 4.2-.5 3.8.5-.4 1 .2 1.1 2.7.4 1.8-.5 7.2-.8 12.2-.8l9 .2-6.9.8c-9.5 1.3-12.9 2.2-13.4 3.9-.4 1.2-.2 1.3 1 .3 1.9-1.7 18.9-4.1 24.2-3.5 5.7.6 10.6 2.8 10.6 4.7 0 1.7-3.4 1.3-8.2-1.2-3.5-1.7-3.6-1.1-.2 1.2 3.4 2.2 7.4 2.6 9.6 1.1 1.7-1.2 1.6-1.4-.5-3.4-1.2-1.2-4.1-2.5-6.2-3-4.4-1 38.7-.7 53.2.4 5.7.4 8.8.2 10.5-.7 1.2-.7 3.4-1.2 4.7-1 1.5.2 2.1-.1 1.7-.8-.5-.7.2-1.1 1.7-1.1 1.4 0 3-.7 3.7-1.5 1.4-1.7 1.5-1.7-3 0zM243.8 216.7c6.1.2 16.3.2 22.5 0 6.1-.1 1.1-.3-11.3-.3s-17.4.2-11.2.3zM299.8 216.7c5.6.2 14.8.2 20.5 0 5.6-.1 1-.3-10.3-.3s-15.9.2-10.2.3z"/><path d="M331.8 216.7c.6.2 1.8.2 2.5 0 .6-.3.1-.5-1.3-.5-1.4 0-1.9.2-1.2.5zM337.3 216.7c.9.2 2.3.2 3 0 .6-.3-.1-.5-1.8-.5-1.6 0-2.2.2-1.2.5zM400.3 216.7c.9.2 2.3.2 3 0 .6-.3-.1-.5-1.8-.5-1.6 0-2.2.2-1.2.5zM189.8 217.7c3.4.2 8.8.2 12 0 3.1-.2.3-.3-6.3-.3s-9.2.1-5.7.3zM365.3 217.7c3.7.2 9.7.2 13.5 0 3.7-.2.6-.3-6.8-.3-7.4 0-10.5.1-6.7.3zM423 217.9c0 .5.9.7 2 .4 1.1-.3 3.3 0 5 .5 3 1.1 4.4-.1 1.4-1.2-2.4-.9-8.4-.7-8.4.3zM165 219.1c0 .5.5.7 1.1.3.6-.3 2.8.1 4.9 1.1 3.1 1.4 4.7 1.5 9.1.7l5.4-1-6.2.1c-3.7.1-6.8-.4-7.5-1.1-1.5-1.5-6.8-1.6-6.8-.1z"/><path d="M174.8 218.7c1.2.2 3.2.2 4.5 0 1.2-.2.2-.4-2.3-.4s-3.5.2-2.2.4zM420.6 219.9c1.5 1.7 8.4 3.1 11.2 2.4 1.4-.3 3 .1 4.2 1.2 1.5 1.4 13.9 4.1 12.5 2.7-.3-.3.3-1.1 1.3-1.8 1.4-1.1 1.1-1.2-2.5-.7-4.6.6-11.3-.3-11.3-1.6 0-.4 2.9-.7 6.6-.6 3.6.2 6.2 0 5.9-.4-.4-.3-6.2-.6-12.8-.6-6.7 0-13.1-.4-14.2-.9-1.6-.7-1.7-.6-.9.3zM137.7 224.1c-5.9 1.5-11.1 2.9-11.4 3.3-.3.3-1.4.1-2.4-.5-1.1-.5-1.9-.6-1.9-.1s1.1 1.4 2.5 2c1.4.6 2.5.8 2.5.3 0-1.4 21.9-6.3 24.4-5.5 2.5.8 2 .1-.9-1.3-1.4-.6-5.2-.1-12.8 1.8zM210.4 222.1c-1.3.5-.7.8 2.4.8 2.3.1 4.2-.1 4.2-.3 0-.8-4.8-1.2-6.6-.5zM254.4 222.6c4.9.8 9.6 2 10.4 2.7 1.3 1 1.4.9 1-.3-.5-1.7-9.2-3.8-15.8-3.8-3.3 0-2.1.4 4.4 1.4zM356 222c-2 .6-1.4.8 2.5.8 3.7.1 4.5-.2 3-.8-2.4-1-2.3-1-5.5 0zM188.3 223.1c2 .5 5.6 1.9 8 3.1 3.6 2 5.7 2.3 13.7 2.2 5.2 0 10.8-.6 12.4-1.3 4.8-2 2.1-2.4-4.1-.6-7.3 2.2-14.4 1.5-21.7-1.9-3-1.4-7-2.6-8.8-2.5l-3.3.1 3.8.9zM274.5 222.8c.6.6 2.6 1.3 4.5 1.6 2.3.5 3 .4 2-.2-2.3-1.4-7.7-2.5-6.5-1.4zM293.8 222.7c-1.6.2-2.8.8-2.8 1.3s1.4.5 3.1 0c3-.9 5.3-2.2 3.3-1.9-.5.1-2.1.4-3.6.6zM373.5 225c-8 3.4-14.6 3.8-21.4 1.4-4-1.3-6.3-1.3-4.8.2 2.5 2.6 19.2 3.1 25.2.8 2.2-.9 6.3-2.4 9-3.4 4.4-1.6 4.6-1.9 2-1.9-1.6 0-6.1 1.3-10 2.9zM180 224l-3.5.7 4.3.2c2.7 0 4.1-.3 3.7-.9-.3-.6-.7-.9-.8-.9-.1.1-1.8.5-3.7.9zM267.4 225.5c-1.5 1.4-2.3 2.5-1.8 2.5 9.8.6 12.2.5 13.7-.6 1.6-1 1.6-1.2.2-1.8-.9-.3-2.7-.6-4-.6-1.3 0-2.7-.5-3-1-1-1.6-2.2-1.2-5.1 1.5zm4.1-.5c-.4.6 1 1 3.6 1 2.3 0 3.9.3 3.6.7-.4.3-3.2.7-6.2.7-5.5.1-5.6.1-3.4-1.7 2.4-1.9 3.3-2.2 2.4-.7zM298.5 224c-1.1.5-3.3 1.1-4.9 1.5-2.7.6-2.8.7-1 1.9 1.4 1 3.6 1.2 7.9.7l6-.6-2.2-2.3c-2.5-2.4-2.8-2.5-5.8-1.2zm5.5 2.6c0 .3-.4.3-.8 0-.5-.3-2.6-.1-4.7.5-2.6.8-4.1.7-4.8 0-.8-.8 0-1.1 2.6-1.1 2 0 3.7-.5 3.7-1 0-.7.6-.7 2 0 1.1.6 2 1.3 2 1.6z"/><path d="M209 225.4c1.4.8 2.9 1.2 3.4.8 1-.6-2-2-4.4-2.1-.8 0-.4.6 1 1.3zM325.5 224.7c-4.2.6-5 1.8-1.2 1.8 1.8 0 3.8-.6 4.5-1.2.7-.7 1-1.2.5-1.2-.4.1-2.1.4-3.8.6zM360.4 225.1c-.3.6-1.7.9-3 .6-1.3-.2-2.1 0-1.8.4.8 1.3 3.6 1 6.4-.6 1.8-1 2-1.4.8-1.5-.9 0-2 .5-2.4 1.1zM387 225c2 1.3 5.7 1.3 6.5 0 .4-.6-1.1-1-3.7-1-3.1 0-3.9.3-2.8 1zM214.8 225.7c.7.3 1.6.2 1.9-.1.4-.3-.2-.6-1.3-.5-1.1 0-1.4.3-.6.6zM244 225.4c0 .2 1.3.6 2.9.8 1.7.2 2.8.1 2.5-.4-.5-.8-5.4-1.2-5.4-.4zM252.8 225.7c.7.3 1.6.2 1.9-.1.4-.3-.2-.6-1.3-.5-1.1 0-1.4.3-.6.6zM255.1 228.1c-3.3 2.1-3.9 2.9-2.4 2.9 1.1 0 2.7-.7 3.4-1.6.7-.9 2.2-1.9 3.3-2.3 1.1-.4 1.5-1 1-1.4-.5-.3-2.9.8-5.3 2.4zM412.7 225.7c-1.3 1.2-.7 2.1 1.1 1.7.9-.2 5.5.7 10.2 2l8.5 2.3-7 2.1c-10.9 3.1-12.8 3.5-11.9 2.1.5-.9.2-1-.9-.6-.9.3-1.7.1-1.9-.4-.2-.6-3.7-1.2-7.8-1.4l-7.5-.4 5.6 1.2c3.1.7 6.7 2 8.1 2.9 2.2 1.5 3.1 1.4 14.3-1.8 6.6-1.9 12.4-3.6 12.9-3.7.5-.2-3.7-1.6-9.5-3.1-5.7-1.5-11.1-2.9-12-3.2-.8-.2-1.8-.1-2.2.3z"/><path d="M311.5 227c1.2.4 2.7 1.5 3.4 2.4.7.9 2.3 1.6 3.5 1.6 2 .1 2 .1-.3 1.4-2 1.1-.8 1.2 8.5.9 11.8-.4 18.7-1.7 20.5-3.9 1.6-2-.5-1.8-3.7.2-2.8 1.9-14.3 3-19.8 2-1.9-.4-4.9-1.8-6.5-3.1-1.6-1.4-3.9-2.5-5.2-2.4-2.3 0-2.3.1-.4.9zM145.2 228.6c-3 .8-6.3 2-7.4 2.8-1.9 1.4-1.9 1.5 2.1 2.6 2.3.6 4.9 1.4 5.8 1.7 1 .4 1.4.2 1-.4-.4-.6-2.1-1.3-3.9-1.7l-3.3-.7 2.8-1.5c6.3-3.4 20.5-3.8 19.2-.6-.5 1.3-.3 1.3 1.1.1 1.5-1.2 1.4-1.5-1.2-2.6-3.8-1.6-9.6-1.5-16.2.3zM164 227.4c0 .2.8 1 1.8 1.7 1.5 1.3 1.6 1.2.3-.4s-2.1-2.1-2.1-1.3zM241.5 227.8c1.4.4.6.8-2.5 1.3-4.1.5-3.9.6 2.5.7 3.9.1 7.7-.3 8.5-.8 1.1-.7.8-1-1.6-1-1.7 0-4.4-.2-6-.4-1.6-.2-2-.1-.9.2z"/><path d="M320 228.4c.6.6 4.5 1.2 8.8 1.3 8 .2 7.1-.2-3.6-1.6-4.4-.5-6-.5-5.2.3zM329.8 227.7c.6.2 1.8.2 2.5 0 .6-.3.1-.5-1.3-.5-1.4 0-1.9.2-1.2.5zM224 228.8c0 1.7 5.5 3.4 11.8 3.8 18.4 1.2 19.4 1.2 18.4.2-.6-.6-6.1-1.1-12.4-1.2-9-.1-12-.5-14.1-1.9-2.9-1.9-3.7-2.1-3.7-.9zM280.1 229c-1.8 1.1 6.1 2.4 9 1.5 1.6-.6 2-.4 1.3.6-.6 1.1-.4 1.1 1 0 2.4-2 .2-3.2-3.5-1.9-1.8.6-3.4.6-4.6-.1-1.1-.5-2.5-.6-3.2-.1zM269.4 230.1c-.4.7-2.1.9-4.5.5-4.6-.7-6.2.9-1.8 1.8 5.1 1 10.2.6 12.9-.9 1.5-.8 1.9-1.4 1-1.4-.8-.1-2.1.3-2.9.8-1.7 1.1-4.3.3-3.5-1 .3-.5.3-.9 0-.9s-.8.5-1.2 1.1zM296 231.5c3.9 2.2 17.8 1.4 14.2-.9-.6-.4-2-.2-3 .3-1.1.6-2.1.9-2.3.7-.2-.2-2.9-.6-5.9-.9-5.1-.6-5.3-.5-3 .8zM155 232.5c1.4.8 3 1.4 3.5 1.4.6 0-.1-.6-1.5-1.4-1.4-.8-2.9-1.4-3.5-1.4-.5 0 .1.6 1.5 1.4zM162.7 232.6c-1.6.9-2.7 1.7-2.5 1.9.5.5 7.5-1.9 8.4-2.8 1.3-1.3-3.1-.6-5.9.9zM175.5 232.5c1.7.8 3.7 1.4 4.5 1.4.8 0-.1-.7-2-1.4-4.6-1.8-6.4-1.7-2.5 0z"/><path d="M281.6 232.1c.3.5-1 .9-2.8 1-1.8 0-4.2.4-5.3.9-1.8.8-1.8.9.6.9 1.4.1 3 .6 3.7 1.3.9.9 1.5.9 2.5-.1 1-1.1 1-1.3 0-.7-.7.4-1.3.2-1.3-.3 0-1.4 4.7-1.4 5.5-.1.4.7 1.2.7 2.5 0 1-.5 2.9-.9 4.2-.9 1.7.1 1.8.3.5.6-.9.2-1.5.8-1.3 1.2.3.4-1.6.9-4.2 1-2.6.1-5.4.4-6.4.7-.9.2-1.9 0-2.3-.6-.4-.6-1.2-.7-2.4 0-1.2.6-2.2.5-2.9-.2-.9-.9-1.2-.9-1.2-.1 0 .6-.9.9-2.2.5-1.6-.4-1.9-.2-1.3.9.7 1.1.6 1.2-.6.3-1.4-1-4.2-1-12.6.1-2.7.4-4.3.2-4.3-.5 0-.5-.4-1-1-1-.5 0-1 .8-1 1.7 0 1.4-.2 1.5-.9.4-.5-.7-1.5-1-2.2-.7-.8.4-.6.1.4-.7 1.5-1.2 1.5-1.5.3-2-.9-.4-1.7-.3-2 .1-.3.5-2.1.6-4 .4-2.4-.3-3.3-.8-2.9-1.6.4-.6-.1-.5-1.1.3-1.1.9-1.3 1.7-.6 2.1.6.4-.3.7-1.9.7-1.7 0-2.8-.4-2.5-.9.3-.4.1-.8-.5-.8-.5 0-1.2.4-1.6 1-.6 1-3.6.2-4.7-1.4-.5-.7-.8-.4-.8.6 0 1.1-.7 1.6-2 1.5-1.1-.1-2-.5-2-1s-.7-.4-1.5.3c-1 .9-1.5.9-1.5.1 0-.6-.9-1.1-2-1.1s-2 .5-2 1.1c0 .5-.5.7-1 .4-.6-.4-.8-1.1-.5-1.6.4-.5-.5-.9-1.9-.9-1.3 0-2.7.6-2.9 1.2-.4.9-.8 1-1.4.3-.9-1.2-2.3-1.3-4-.2-.7.5-1.3.4-1.3-.2 0-.6-1.1-.6-2.9-.1-2.5.7-2.9.6-2.5-.8.5-1.5.4-1.5-.8 0-1.4 1.6-6.4 1.5-5.4-.1.2-.3-.9-.6-2.5-.6s-2.9.4-2.9.8c0 .5-1.3.6-2.8.2-1.8-.4-5.1.3-9.2 1.9-6.9 2.6-6.8 2.8 1.7 4.5 4.5.9 5.6.8 9.2-1.2 4.2-2.3 5.2-3.7 2.6-3.7-.8 0-1.5.3-1.5.7 0 .5-1.7.8-3.7.8-2.5 0-3.7.4-3.6 1.2.3 1.5-1.6 1.7-3.5.5-2.5-1.6 11.7-4.8 16.2-3.6 2.2.5 2.6 1.2 2.6 4.4 0 3 .4 3.9 2.2 4.3 2.8.8 10.4-3.3 8.6-4.5-1.7-1.2 5.3.2 7.2 1.4 1.1.7.6.8-1.6.4-2-.3-4 .2-5.8 1.4-3.3 2.1-2.7 2.5 6.9 3.5 4.8.5 6.9.2 10.8-1.4 2.7-1.2 5.3-2.1 5.8-2.1 1.4 0 1.1 2-.3 2-.7.1-2.6.7-4.3 1.5-2.9 1.3-2.9 1.3-.5 1.3 1.4 0 7.2.4 13 1 8 .8 10.6.8 11.2-.1.6-.9 1-.9 1.7.1.6 1 6.6 1.5 25.9 1.9 24.8.6 25 .6 26.3-1.5 1.7-2.7 2.4-2.7 6-.1 2.2 1.5 3.9 1.9 6.2 1.5 1.8-.3 7.5-.7 12.7-.7 9.3-.2 9.4-.2 5.6-1.5-2.3-.9-5.4-1.1-7.9-.7-2.9.4-3.8.3-3.3-.5 1-1.7 8.6-1.5 13.7.3 3.8 1.4 14.9 1.9 14.9.8 0-1.4-3.3-3.3-5.7-3.4-1.5-.1 1.2-.8 6.2-1.6 8-1.3 9.8-1.3 17.6.1 9.5 1.7 13.9 2 13.9.8s-6-4.2-8.8-4.3l-2.7-.1 2.5-.8c3.5-1.1 7.9-1.2 6.2-.1-1 .6-.5 1.3 2 2.9 2.6 1.6 4.3 1.9 8.1 1.5 5.3-.6 5.8-1.4 2.2-3.3-1.4-.7-2.5-1.7-2.5-2.2 0-1.2 1.1-1 2.9.5 3.7 3.1 6.4 3.4 14.6 1.7l8-1.7-4-1.9c-5.7-2.6-18.5-2.6-21.4 0-1.2 1.1-2.1 1.4-2.1.8 0-.6 1-1.8 2.3-2.8 1.9-1.4 1.9-1.5.2-.9-1.1.4-2.9 1-4 1.3-1.1.2-2.5.9-3.1 1.3-.6.5-1.6 0-2.4-1.1-1-1.4-1.6-1.6-2.2-.7-.6.9-.8.8-.8-.3 0-1.3-.1-1.3-1 0-.8 1.3-1.1 1.3-1.9.1-.5-.7-1.4-1-2-.6-.7.4-1.9.1-2.8-.7-1.4-1.1-1.5-1-.8 1.1l.7 2.4-2.3-2.2c-2-1.9-2.5-2-2.7-.7-.2.9-.8 1.4-1.3 1-.6-.3-1.7 0-2.6.8-.9.7-1.4.8-1 .2.4-.7 0-1.4-.8-1.8-.9-.3-1.5 0-1.5.8s-.7 1.6-1.4 1.9c-.9.4-1.3.1-1-.6.2-.8-.7-1.2-2.6-1.3-1.6-.1-3 .3-3 .9 0 .5-.8.3-1.7-.4-1.1-1-1.4-1-.9-.2.7 1.3-1.8 1.9-5.4 1.4-.8-.1-2.4-.3-3.5-.5-1.1-.1-2.8.1-3.7.6-1 .5-1.9.4-2.3-.2-.4-.6-1.1-.8-1.6-.5-.5.4-.9.1-.9-.4 0-.6-.8-1.1-1.7-1.1-1.6 0-1.6.2-.3 1.1 1.1.8.7.9-1.8.6-1.8-.2-3.5 0-3.8.5-.8 1.2-4.2 1-4.8-.5-.3-.8-1-.6-2.1.8-1.7 2-1.7 1.9-1-.5.7-2.3.6-2.4-.9-1.1-1.9 1.6-5.6 2.2-5.6 1 0-.4-.9-.7-2-.6-1.1.1-2 .5-2 .9s-.5.8-1.1.8c-.5 0-.7-.5-.4-1 .8-1.3-.1-1.3-2.8.2-2 1-2.1 1-.8-.5.7-1 2.5-1.7 4-1.8h2.6l-2.5-1c-3.7-1.6-9.3-1.9-10.7-.7-.9.7-1.3.7-1.3 0 0-.5-.9-1.2-2-1.5-1.1-.3-1.8-.1-1.4.4zm113.9 4.9c1.6.6 1.4.8-1.2.7-1.8 0-3-.4-2.7-.9.6-1 1.2-.9 3.9.2zm-5.8.6c-.3.3-1.2.4-1.9.1-.8-.3-.5-.6.6-.6 1.1-.1 1.7.2 1.3.5zm12.7 1.3c.3.4-.6.6-1.9.3-1.4-.2-2.5-.6-2.5-.8 0-.8 3.9-.4 4.4.5zm-225.3 2.4c-1 .9-1.1.8-.5-.6.3-1 .9-1.5 1.2-1.2.3.3 0 1.1-.7 1.8zM254 248c0 .9-11.8.3-12.9-.6-.2-.2 2.6-.4 6.2-.4 3.7 0 6.7.4 6.7 1zM150.8 233.7c.7.3 1.6.2 1.9-.1.4-.3-.2-.6-1.3-.5-1.1 0-1.4.3-.6.6zM387.8 233.7c.7.3 1.6.2 1.9-.1.4-.3-.2-.6-1.3-.5-1.1 0-1.4.3-.6.6zM151.6 235.5c-2.8 1.2-2.7 1.2 3.3 2.5 4.9 1 6.6 1 9.2 0 2.6-1.1 2.8-1.5 1.4-2.3-.9-.5-1.9-.6-2.2-.3-.4.3 0 .6.8.6 1.1 0 1.1.2-.1 1-2 1.3-6.1 1.2-8 0-1.1-.8-.8-.9 1.3-.4 1.5.3 2.7.4 2.7.1 0-1.5-5.7-2.3-8.4-1.2zM169 235c-.8.5-1 1-.5 1 .6 0 1.7-.5 2.5-1s1.1-1 .5-1c-.5 0-1.7.5-2.5 1z"/><path d="M267.8 234.7c.7.3 1.6.2 1.9-.1.4-.3-.2-.6-1.3-.5-1.1 0-1.4.3-.6.6zM336.5 235c-.3.6.1.7.9.4 1.8-.7 2.1-1.4.7-1.4-.6 0-1.3.4-1.6 1zM377.8 234.7c.6.2 1.8.2 2.5 0 .6-.3.1-.5-1.3-.5-1.4 0-1.9.2-1.2.5zM250.8 235.6c.6.3 1 .9.8 1.3-.3.4.2.8 1 .8 2.1 0 1.1-2.2-1.2-2.4-1-.2-1.3 0-.6.3zM186 238.8c0 .5-1.6 1.6-3.6 2.6-2 .9-3.5 1.8-3.3 2 .2.2 2.5.6 5.2.8 4.7.6 4.7.5 4.5-2.3-.1-1.6-.8-3.1-1.5-3.3-.7-.3-1.3-.2-1.3.2zm0 3.2c0 .5-.8 1-1.7 1-1.5 0-1.6-.2-.3-1 1.9-1.2 2-1.2 2 0zM352.9 244.5c-.3.2-2.4.5-4.7.6-4.7.3-4.8.4-2.7 2.6 1.4 1.4 5.4 1.3 15-.3.6-.1 2.4-.3 4-.4 2.3-.2 1.9-.4-2-1.1-2.7-.4-5.9-1-7.1-1.3-1.2-.3-2.3-.4-2.5-.1zM141.8 246.7c.7.3 1.6.2 1.9-.1.4-.3-.2-.6-1.3-.5-1.1 0-1.4.3-.6.6zM145 247c0 .8 13.9 3.4 14.5 2.8.2-.2-2.9-1.1-7-1.9-4.1-.8-7.5-1.2-7.5-.9zM163 251c1.4.4 3.6.8 5 .8 2.2 0 2.2-.1-.5-.8-1.6-.4-3.9-.8-5-.8-1.6 0-1.5.2.5.8zM298.5 251c-.4.6.6 1 2.2 1 2.2 0 2.5-.2 1.3-1-1.9-1.2-2.7-1.2-3.5 0zM173.3 252.7c.9.2 2.3.2 3 0 .6-.3-.1-.5-1.8-.5-1.6 0-2.2.2-1.2.5zM181.5 254.1c2.2.4 5.4.8 7 .7 2.2 0 1.9-.3-1.5-.9-6-1-10.8-.9-5.5.2zM193.3 255.7c.9.2 2.5.2 3.5 0 .9-.3.1-.5-1.8-.5-1.9 0-2.7.2-1.7.5zM205.5 257c2.8.5 6.6.8 8.5.8 2.8-.1 2.5-.2-1.5-.8-2.7-.5-6.6-.8-8.5-.8-2.8.1-2.5.2 1.5.8zM218.9 258.3c.4.4 3.7.7 7.2.5l6.4-.3-7.2-.5c-4-.3-6.8-.1-6.4.3zM234.2 259.2c-.9.3 1.8.7 6 .7 4.2.1 8.5.4 9.5.8 1 .3 1.5.2 1-.3-1.1-1.1-14.2-2.1-16.5-1.2zM285 260l-33.5.5 33 .2c18.2 0 37.3-.3 42.5-.7l9.5-.7-9 .1c-4.9 0-24.1.3-42.5.6zM76.7 275.1c.4 1.3.8 1.8 1.1 1 .2-.7-.1-1.8-.6-2.3-.8-.8-.9-.4-.5 1.3zM484.2 295c0 1.9.3 5.5.7 8 .8 4.2.9 4.2.9 1 0-1.9-.3-5.5-.7-8-.8-4.2-.9-4.2-.9-1zM115.2 295c0 1.4.2 1.9.5 1.2.2-.6.2-1.8 0-2.5-.3-.6-.5-.1-.5 1.3zM81 295.9c0 .6.4 1.3 1 1.6.6.3.7-.1.4-.9-.7-1.8-1.4-2.1-1.4-.7zM410.5 298c-.3.5.1 1 .9 1s1.8-.5 2.1-1c.3-.6-.1-1-.9-1s-1.8.4-2.1 1zM116.2 300c0 1.4.2 1.9.5 1.2.2-.6.2-1.8 0-2.5-.3-.6-.5-.1-.5 1.3zM123.2 300.5c0 1.1.4 3.3.8 5l.8 3v-3c0-1.7-.3-3.9-.8-5l-.9-2 .1 2zM140.1 302.6c0 1.1.3 1.4.6.6.3-.7.2-1.6-.1-1.9-.3-.4-.6.2-.5 1.3zM79 302.4c0 1.2 6.9 14.8 6.9 13.7.1-.7-1.3-4.2-3-7.7-2.8-5.6-3.9-7.3-3.9-6zM117.1 306c0 2 .5 6 1.3 9 .7 3 1.7 7.7 2.1 10.5.4 2.7 1 4.4 1.2 3.7.3-.7-.4-6.1-1.6-12-2.9-15.1-2.9-15.1-3-11.2zM494.1 305.6c0 1.1.3 1.4.6.6.3-.7.2-1.6-.1-1.9-.3-.4-.6.2-.5 1.3zM125.8 314.7c.5 2.1.7 2.3 1 .9.2-1 0-2.2-.6-2.8-.6-.6-.7 0-.4 1.9zM134.1 315.6c0 1.1.3 1.4.6.6.3-.7.2-1.6-.1-1.9-.3-.4-.6.2-.5 1.3zM378 315c-.8.5-1 1-.5 1 .6 0 1.7-.5 2.5-1s1.1-1 .5-1c-.5 0-1.7.5-2.5 1zM212 315.5c0 .5.5 1.7 1 2.5s1 1 1 .5c0-.6-.5-1.7-1-2.5s-1-1.1-1-.5zM334.8 315.7c.6.2 1.8.2 2.5 0 .6-.3.1-.5-1.3-.5-1.4 0-1.9.2-1.2.5zM287 316.4c0 .2 1.1.6 2.5.8 1.3.3 2.2.1 1.9-.3-.5-.9-4.4-1.3-4.4-.5zM127.2 320.5c0 1.6.2 2.2.5 1.2.2-.9.2-2.3 0-3-.3-.6-.5.1-.5 1.8zM135.1 319.6c0 1.1.3 1.4.6.6.3-.7.2-1.6-.1-1.9-.3-.4-.6.2-.5 1.3zM300.8 318.7c.7.3 1.6.2 1.9-.1.4-.3-.2-.6-1.3-.5-1.1 0-1.4.3-.6.6zM313.8 318.7c.6.2 1.8.2 2.5 0 .6-.3.1-.5-1.3-.5-1.4 0-1.9.2-1.2.5zM136.5 327.1c.8 2.8 1.7 5.4 2.1 5.8.4.3.4-.5 0-1.9s-.9-4-1.3-5.8c-.3-1.7-.9-3.2-1.3-3.2-.5 0-.2 2.3.5 5.1zM128.2 325.5c0 1.1.4 3.1.8 4.5l.8 2.5V330c0-1.4-.3-3.4-.8-4.5l-.9-2 .1 2zM85.4 331.1c-.3.6-.1 1.6.5 2.2.8.8 1.1.5 1.1-1.1 0-2.4-.5-2.8-1.6-1.1zM122.1 331.8c-.1 1.6 4.6 22.5 5.9 26.2.5 1.4 2.5 7.8 4.5 14.2 2 6.5 4 12 4.4 12.3.5.3-.6-4.1-2.5-9.7-1.9-5.7-5.5-18-7.9-27.3-2.4-9.4-4.4-16.4-4.4-15.7zM130.1 334.6c0 1.1.3 1.4.6.6.3-.7.2-1.6-.1-1.9-.3-.4-.6.2-.5 1.3zM116.5 338c.8 6.4 5.9 26.8 6.2 25 .2-.8-1.3-7.8-3.2-15.5-1.9-7.7-3.3-12-3-9.5zM138.7 336.1c.4 1.3.8 1.8 1.1 1 .2-.7-.1-1.8-.6-2.3-.8-.8-.9-.4-.5 1.3zM416 338.1c-5.8 3.2-8.1 4.9-6.4 4.9.5 0 2.8-1.3 5-2.8 2.3-1.5 5-3.2 6-3.9 3.6-2.3.8-1.2-4.6 1.8zM131.2 338.5c0 1.1.3 2.9.8 4 1.1 2.5 1.1-.1 0-3.5-.6-2-.8-2.1-.8-.5zM140.1 340.6c0 1.1.3 1.4.6.6.3-.7.2-1.6-.1-1.9-.3-.4-.6.2-.5 1.3zM421.8 343.7c.5 2.1.7 2.3 1 .9.2-1 0-2.2-.6-2.8-.6-.6-.7 0-.4 1.9zM419.1 343.7c-.1 1.2.4 2.5.9 2.8 1.2.7 1.2-.2 0-3-.8-1.9-.9-1.9-.9.2zM416.5 345.7l.6 2.8-1.6-2.5-1.6-2.5.7 2.5c.8 3.2.8 3.2 2.6 2.5 1-.4 1.4-1.4 1.1-2.6-.9-3.1-2.4-3.4-1.8-.2zM425 343.8c0 .5.7.9 1.5.9s1.2-.4.9-.9c-.3-.4-.9-.8-1.5-.8-.5 0-.9.4-.9.8zM347 346c-1.8 1.2-.2 1.2 2.5 0 1.3-.6 1.5-.9.5-.9-.8 0-2.2.4-3 .9zM411 346.5c0 .3.8 1.7 1.7 3.1 1.3 2 1.4 2.7.4 3.4-.8.5-.9 1-.3 1.4 1.5.9 2.3-2.1 1.2-4.8-.8-2.2-3-4.5-3-3.1zM429 352.4c0 .2.7 1.9 1.5 3.7 1.4 3.4 2 2.3.9-1.9-.5-1.8-2.4-3.3-2.4-1.8zM451.1 354.7c0 2.5.1 2.6.9.8 1.2-2.7 1.2-3.5 0-3.5-.5 0-1 1.2-.9 2.7zM423 356c0 .5.5 1 1 1 .6 0 1-.5 1-1 0-.6-.4-1-1-1-.5 0-1 .4-1 1zM421.8 360.4c.9 1.9 1.9 3 2.1 2.4.4-1.2-1.9-5.8-3-5.8-.5 0-.1 1.5.9 3.4zM418 360.7c0 1.8.2 3.3.4 3.3.9 0 1.3-3.9.5-5.1-.6-1-.9-.4-.9 1.8zM442.5 359c.3.5.8 1 1.1 1 .2 0 .4-.5.4-1 0-.6-.5-1-1.1-1-.5 0-.7.4-.4 1zM81.5 362c.9 3 1.3 3.5 2.1 2.7.3-.3-.2-1.6-1.1-2.9l-1.7-2.3.7 2.5zM139 366.6c4.2 13.4 9.9 27.4 10 24.6 0-.7-.6-2.5-1.4-4-.7-1.5-3-7.7-5.1-13.7-4.1-11.7-6.7-16.8-3.5-6.9zM448.7 361.7c-.4.3-.7 1.1-.7 1.7 0 .6.5.5 1.2-.2.6-.6.9-1.4.7-1.7-.3-.3-.9-.2-1.2.2zM440.5 364c1 1.1 2.2 2 2.7 2 .4 0-.1-.9-1.2-2-1.1-1.1-2.3-2-2.7-2-.3 0 .2.9 1.2 2zM420 365.6c0 .8.5 1.2 1 .9.6-.4.8-1.1.5-1.6-.9-1.4-1.5-1.1-1.5.7zM123.5 367c1.3 5.5 5.7 19 6.4 19.5.8.4-4.2-16.3-6-20-.8-1.7-.8-1.6-.4.5zM438 367.5c.7.9 1.5 1.3 1.7 1.1.7-.7-.7-2.6-1.9-2.6-.6 0-.6.6.2 1.5zM426 369.1c0 .5.5.7 1 .4.6-.3 1-.8 1-1.1 0-.2-.4-.4-1-.4-.5 0-1 .5-1 1.1zM435 369.8c0 .5.7 1.5 1.5 2.2.8.7 1.5.8 1.5.2 0-.5-.7-1.5-1.5-2.2-.8-.7-1.5-.8-1.5-.2zM432.6 372c.3 1.4 1 3.2 1.5 4 .7 1.3.8 1.3.8 0 0-.8-.6-2.6-1.5-4l-1.5-2.5.7 2.5zM160 371.5c0 .5.5 1.7 1 2.5s1 1 1 .5c0-.6-.5-1.7-1-2.5s-1-1.1-1-.5zM420.5 372c-.3.5-.2 1 .4 1 .5 0 1.3-.5 1.6-1 .3-.6.2-1-.4-1-.5 0-1.3.4-1.6 1zM430.1 376c.6 1.6 1.5 3 1.9 3 .5 0 .4-1.4-.1-3-.6-1.7-1.5-3-1.9-3-.5 0-.4 1.3.1 3zM239.5 376c.3.5.8 1 1.1 1 .2 0 .4-.5.4-1 0-.6-.5-1-1.1-1-.5 0-.7.4-.4 1zM162.8 378.3c.2 1.2 1.2 3.1 2.1 4.1 1.5 1.8 1.5 1.9-.1 1.3-1-.4-1.8-.2-1.8.2 0 1.2 2.9 2.3 4.1 1.5 1.4-.8 1.1-3-.6-4.4-.8-.7-1.5-1.8-1.5-2.4 0-.6.5-.4 1.1.4.8 1.2 1 1.2.7.1-.2-.8-1.3-1.8-2.5-2.2-1.8-.6-2-.4-1.5 1.4zM423.3 377.4c.4 1 .7 2.9.7 4.2 0 1.4.4 2.3 1 1.9.5-.3.7-1.2.3-2-.6-1.8.8-2 2.5-.3.9.9 1.2.9 1.2.1 0-.7-1.4-2.2-3.2-3.4-2.7-2-3.1-2-2.5-.5zM437.5 377c-.3.5-.1 1 .4 1 .6 0 1.1-.5 1.1-1 0-.6-.2-1-.4-1-.3 0-.8.4-1.1 1zM169 379.4c0 .7.6 2.9 1.4 4.7l1.4 3.3 2-4.2c1.5-3.2 1.7-4.2.7-4.2-.8 0-1.5 1-1.8 2.2-.3 2.2-.4 2.2-1.5-.5-1.2-2.9-2.2-3.5-2.2-1.3zM200 380c.6 1.1 1.3 2 1.6 2 .2 0 0-.9-.6-2s-1.3-2-1.6-2c-.2 0 0 .9.6 2zM419 379.4c-1.4 1.8-1 5.8.8 6.4 1 .3 1-.2 0-2.3-1.1-2.4-1-2.9.7-4.1 1-.8 1.4-1.4.8-1.4-.6 0-1.6.7-2.3 1.4zM215.3 382.2c1.5 2.1 2.4 3.8 2 3.8-.5 0-.7 1.8-.5 4 .2 2.2.8 4 1.3 4s.6-1.2.3-2.8l-.7-2.7 3.2 2.9c1.7 1.7 3.2 2.6 3.2 2 .8-6.8.8-7.4-.5-7.4-.9 0-1.2.9-.9 2.7.4 2.4 0 2-3-2.2-1.9-2.8-4.3-5.7-5.3-6.5-1.1-.9-.8 0 .9 2.2zM357.2 381.2c-2.9 1.2-5.1 2.2-4.9 2.4.6.6 9.6-2.7 10.3-3.7.6-1.1 1-1.2-5.4 1.3zM400.5 380.1c-.4.5-.3 2.4.1 4.2.6 2.9.5 3-1 1.8-.9-.8-1.9-1.2-2.1-.9-1 1 2.3 2.8 3.9 2.2 1.8-.7 2.1-2.9.6-3.9-1.6-1-1.2-2.8.5-2.1.8.3 1.5.1 1.5-.3 0-1.3-2.9-2.1-3.5-1zM177 383.9c0 2.6.5 4.1 1.6 4.5 2.4.9 4.4.7 4.4-.4 0-.6-.7-1-1.6-.8-1 .2-1.9-.3-2.1-1-.3-.6 0-1.2.6-1.2s1.1-.5 1.1-1.1c0-.5-.4-.7-1-.4-.5.3-1-.3-1-1.4 0-1.2-.4-2.1-1-2.1-.5 0-1 1.8-1 3.9zM407 381.1c-1.4.4-2 .7-1.3.8.8.1 1 1.3.6 3.8-.4 2.6-.3 3.4.5 2.9.7-.4 1.2-2 1.2-3.6 0-1.5.6-3 1.3-3.3 2.2-.8.2-1.4-2.3-.6zM412 381.9c-2.4 4.6.1 7.9 3.1 4.2 1.4-1.7 1.6-2.7.9-4.2-1.4-2.4-2.7-2.4-4 0zm2.8 1.6c0 1.4-.4 2.8-.9 3.1-.5.3-.9-.9-.9-2.5 0-1.7.4-3.1.9-3.1s.9 1.1.9 2.5zM432 382c-1.4 1.1-2.1 2-1.7 2 .5 0 2-.9 3.4-2s2.2-2 1.7-2c-.5 0-2 .9-3.4 2zM181.5 382c.3.5.8 1 1.1 1 .2 0 .4-.5.4-1 0-.6-.5-1-1.1-1-.5 0-.7.4-.4 1zM184 381.7c.1 1.7 7 8.7 7.1 7.3 0-.8.2-2.7.4-4.3.2-1.8-.1-2.7-1-2.7-1.1 0-1.2.6-.5 2.7 1 2.8 1 2.8-1.8-.5-2.8-3.1-4.2-4-4.2-2.5zM370 382c-.8.5-1 1-.5 1 .6 0 1.7-.5 2.5-1s1.1-1 .5-1c-.5 0-1.7.5-2.5 1zM384.5 382c-.4.6-1.8.9-3.2.8-1.5-.2-2.8.3-3.1 1.1-.3.8 0 1.1.7.7 1.6-1 1.4.6-.5 3.2-1.9 2.7-1.4 3.6 1.5 2.7 2.1-.6 2.9-2.5 1.1-2.5-1.6 0 1.2-3.8 3.2-4.3 2.2-.6 2.3.3.3 2.9-2 2.7-1.9 3.2 1 2.6 2.5-.4 3.5-2.2 1.3-2.2-.9 0-.9-.3 0-1.2 1.7-1.7 1.5-4.8-.2-4.8-.8 0-1.8.5-2.1 1zM193 384.4c0 .7.7 1.9 1.5 2.6.8.7 1.5 1.7 1.5 2.3 0 .7-.4.7-1.2-.1-2-2-3.2-1.3-1.3.8 1.4 1.5 2.1 1.7 3.2.9 1.9-1.7 1.6-3.4-.9-5.3l-2.3-1.7 2.4.7c1.6.4 2.1.3 1.7-.5-1-1.6-4.6-1.4-4.6.3zM201 383.7c-1 .2-1.5 1.5-1.4 4 .1 3.7 2.4 6.1 2.4 2.6.1-1.7.1-1.7 1.1-.1.5 1 1.7 1.8 2.6 1.8 1.3 0 1-.7-1.1-2.9-1.6-1.6-2.6-3.5-2.3-4.3.4-1 .6-1 .6 0 .1 1.5 6.5 7.4 9.2 8.4 1.1.4 2.2.1 3-.9 1.1-1.3 1-1.8-.9-3.3-2.5-2.1-2.9-3.2-.7-2.4.8.4 1.5.1 1.5-.5 0-1.7-4-1.3-4.6.4-.4.9.4 2.4 1.7 3.6l2.4 2-2.5-.7c-3.3-.8-7-4.3-6.4-5.9.5-1.3-2.1-2.3-4.6-1.8zM278.8 383.7c.7.3 1.6.2 1.9-.1.4-.3-.2-.6-1.3-.5-1.1 0-1.4.3-.6.6zM282.4 384.1c-.2.4 1.8.9 4.5 1.1 2.7.1 4.7 0 4.5-.3-.6-1-8.5-1.6-9-.8zM306 384c-.9.6-1 1-.3 1 .6 0 1.5-.5 1.8-1 .8-1.2.4-1.2-1.5 0zM311.8 383.7c.7.3 1.6.2 1.9-.1.4-.3-.2-.6-1.3-.5-1.1 0-1.4.3-.6.6zM372.7 383.6c-1.3 1.4-.8 7.4.7 7.4 1.9 0 3.1-2 3.1-5 0-2.4-2.3-3.8-3.8-2.4zm2.3 5.4c0 .5-.4 1-1 1-.5 0-1-.5-1-1 0-.6.5-1 1-1 .6 0 1 .4 1 1zM234.3 385.1c1.2.7 1.5 1.7 1.1 3.4-.4 1.7 0 2.6 1.5 3.5 1.2.6 1.9 1.6 1.5 2.1-.4.7-1 .7-1.7 0-1.7-1.7-3.1-1.3-1.7.4 1.6 1.9 3.4 1.9 5 .1.9-1.2.7-1.8-.9-3.3-2.8-2.3-2.7-3.8.1-1.9 2.5 1.8 4.2 2.1 3.3.6-.3-.6-.1-1 .5-1s1 .6.9 1.2c-.4 3.4.2 5.8 1.6 5.8.8 0 1.5-.4 1.5-1 0-.5.8-.7 1.8-.4 1.1.4.9 0-.7-1.4-1.4-1.1-2.1-2.4-1.7-3.1.6-.9 1.1-.9 2.2 0s1.4.8 1.4-.6-.9-1.6-5-1.4c-3.9.2-5.7-.2-8-1.9-1.6-1.2-3.3-2.2-3.7-2.2-.4 0 0 .5 1 1.1zM299.3 384.7c.9.2 2.5.2 3.5 0 .9-.3.1-.5-1.8-.5-1.9 0-2.7.2-1.7.5zM329.5 385.5l-3 1.4 3-.6c1.7-.3 3.7-.9 4.5-1.4 2.7-1.5-1.1-1-4.5.6zM361.4 384.6c-.7.3-.9 1.5-.7 2.7l.6 2.2-2.2-2.3c-3.3-3.4-4.7-2.8-4.3 1.8.4 3.9 2.3 5.3 3.7 3 .5-.8 1.1-.7 2.1.1.8.6 1.4.8 1.5.3 0-.5.2-2.6.5-4.7.3-2 .3-3.7.2-3.6-.2 0-.8.3-1.4.5zm-3 6.5c-.8 1.3-2.4.1-2.4-1.8 0-1.3.3-1.3 1.5-.3.8.7 1.2 1.6.9 2.1zM367.7 384.6c-.3.3-.3 1.1-.1 1.8.3.7-.5 1.8-1.8 2.4l-2.3 1.2 2.4-.6c1.9-.5 2.3-.3 1.8 1-.4.9-.2 1.6.4 1.6 1.3 0 2.7-4 2.1-6.2-.4-1.8-1.4-2.3-2.5-1.2zM157.1 388c1.4 3.1 1.9 3.6 1.9 2.4 0-.6-.7-1.9-1.6-3-1.4-1.8-1.4-1.8-.3.6zM340.8 386.7c-3.5.4-3.8.6-3.8 3.7 0 1.9-.5 3.3-1.2 3.3s-1.9.2-2.7.4c-.7.2-1.6-.2-1.9-1-.3-1 0-1.2 1.2-.8 1 .4 1.6.1 1.6-.7 0-.8.4-1.6 1-1.8.5-.2.6-.9.1-1.7-.6-.9-1.8-1.2-3.5-.7-2.3.6-2.6 1.2-2.6 4.7v4.1l6.3-.7c3.4-.4 7.3-1.4 8.6-2.2 1.3-.8 2-1 1.7-.4-.4.6 0 1.1.8 1.1.9 0 1.6-.7 1.6-1.6 0-.9.6-1.4 1.3-1.1.6.2 1.1 1 1 1.6-.2.6.4 1.1 1.2 1.1 1.8 0 1.8-.7.4-4.9-1.3-3.8-2.4-3.9-4.2-.4-1.4 2.6-1.5 2.6-2.6.6-.8-1.6-.8-2.3.2-2.6 1.3-.6 1.2-.6-4.5 0zm-7.3 2.3c.3.5-.1 1-1 1s-1.3-.5-1-1c.3-.6.8-1 1-1 .2 0 .7.4 1 1zm9.1.5c.7 1.8-1.6 4.9-2.7 3.8-1-1 0-5.3 1.2-5.3.6 0 1.2.7 1.5 1.5zM423.3 387.2c-1.3.6-2.3 1.5-2.3 2s1.4.2 3-.7c4.5-2.3 3.8-3.5-.7-1.3zM184 388c0 .5.5 1 1 1 .6 0 1-.5 1-1 0-.6-.4-1-1-1-.5 0-1 .4-1 1zM226 389.9c0 2.2.8 3.5 3.3 5.2 1.7 1.2 2.9 1.9 2.5 1.4-.4-.4-.4-1.3.1-1.9 1.5-2 2.2-7.6.8-7.6-.7 0-1.2 1.3-1.2 3.2 0 1.7-.6 3.3-1.2 3.5-.9.3-1.3-.7-1.3-3.1 0-2.5-.4-3.6-1.5-3.6-1 0-1.5 1-1.5 2.9zM322 388.9c-.8 1.6-.6 2.3 1.2 3.5 1.2.9 1.8 1.9 1.4 2.3-.5.5-1.1.2-1.3-.5-.6-1.7-2.3-1.5-2.3.3 0 2.1 4.9 2 5.7-.1.4-1.1-.3-2.4-1.8-3.6-2.4-1.9-2.4-1.9-.1-1.3 2.5.7 3.1-1 .6-1.9-2.2-.8-2.2-.8-3.4 1.3zM314.5 388.9c-.3.6-.1 1.1.4 1.1.6 0 1.1.8 1.1 1.7 0 1.4-.3 1.3-2.3-.5-3.3-3.1-4.7-2.8-4.7 1.3 0 2.7-.6 3.7-2.7 4.9-3.4 1.9-3.1 1.9 3.2.1 2.8-.7 4.3-1.4 3.4-1.4-.9-.1-1.9-1-2.2-2.1-.7-2.6.1-2.5 3 .2 2.7 2.5 3 2.4 3.5-2.1.3-3.4-1.3-5.3-2.7-3.2zM269 393c0 3.9.1 4 3.3 4 3.4 0 5.7-1.5 5.7-3.6 0-2.2-3.1-4.4-6.1-4.4-2.7 0-2.9.2-2.9 4zm5.7 1.4c-1.1 2.7-2.7 1.7-2.7-1.6 0-3 .1-3.1 1.6-1.6.9.9 1.4 2.4 1.1 3.2zM279 393c0 2.9.4 4 1.5 4s1.5-1.1 1.5-4-.4-4-1.5-4-1.5 1.1-1.5 4zM283.4 390.1c-.4.8 0 .9 1.5.4 1.2-.4 2.1-.2 2.1.4 0 .6-.6 1.1-1.2 1.1-.9 0-.9.3.1.9.8.5 1.1 1.6.8 2.5-.5 1.1-.1 1.6 1.3 1.6 1.4 0 1.8-.5 1.3-1.6-.3-.9 0-2 .8-2.5 1-.6 1-.9.2-.9-.7 0-1.3-.5-1.3-1.1 0-.6.9-.8 2.1-.4 1.5.5 1.9.4 1.5-.4-.4-.6-2.5-1.1-4.6-1.1-2.1 0-4.2.5-4.6 1.1zM294 390.4c0 .8-.6 1.7-1.2 1.9-1 .4-1 .6 0 .6.6.1 1.2 1 1.2 2.1s.7 2 1.5 2c1.1 0 1.5-1.1 1.5-4s-.4-4-1.5-4c-.8 0-1.5.6-1.5 1.4z"/><path d="M298.8 391.5c-1.4 3.2.4 5.5 4.3 5.5 3.6 0 6-4 3.9-6.5-2-2.5-6.9-1.9-8.2 1zm5.7 1.5c0 2.7-2.2 3.9-3.1 1.6-.8-2.2.3-4.9 1.9-4.3.6.2 1.2 1.4 1.2 2.7zM416.6 390c-1.1.3-1.5.9-1 1.3 1 .6 4.2-.9 3.4-1.6-.3-.3-1.4-.1-2.4.3zM405 391.9c0 .9 7.9.5 8.8-.4.3-.3-1.6-.5-4.1-.5-2.6 0-4.7.4-4.7.9zM384.8 394.7c.7.3 1.6.2 1.9-.1.4-.3-.2-.6-1.3-.5-1.1 0-1.4.3-.6.6zM357 396.5c-1.9.7-2.8 1.3-2 1.3.8 0 3.1-.6 5-1.3 1.9-.7 2.8-1.3 2-1.3-.8 0-3.1.6-5 1.3zM377 396c-2.3.7-2.3.8-.3.9 1.2.1 2.5-.4 2.8-.9.3-.6.5-1 .3-.9-.2.1-1.4.5-2.8.9zM216 398.5c1.3 1.4 2.6 2.5 2.8 2.5.3 0-.5-1.1-1.8-2.5s-2.6-2.5-2.8-2.5c-.3 0 .5 1.1 1.8 2.5zM233 397.4c0 .5 5.9 4 8.3 4.9 3.3 1.2 1.7-.1-3.3-2.7-2.7-1.4-5-2.4-5-2.2zM323.5 398.5c-3.9 1.7-2.1 1.8 2.5 0 1.9-.7 2.8-1.4 2-1.4-.8 0-2.8.6-4.5 1.4zM261.5 399c1.1.5 3.4.8 5 .8h3l-3-.8c-1.6-.4-3.9-.8-5-.8l-2-.1 2 .9zM297 399l-3.5.7 3.7.2c2 0 4-.4 4.3-.9.7-1.1.7-1.1-4.5 0zM333.5 400c-1.3.6-1.5.9-.5.9.8 0 2.2-.4 3-.9 1.8-1.2.2-1.2-2.5 0zM346.5 400c-1.3.6-1.5.9-.5.9.8 0 2.2-.4 3-.9 1.8-1.2.2-1.2-2.5 0zM270.8 400.7c.7.3 1.6.2 1.9-.1.4-.3-.2-.6-1.3-.5-1.1 0-1.4.3-.6.6zM279.8 400.7c2.3.2 5.9.2 8 0 2-.2.1-.4-4.3-.4-4.4 0-6.1.2-3.7.4zM311 402c-3 1-5.1 1.8-4.7 1.9 1.5.2 10.2-2.2 11.2-3 1.3-1.2-.1-1-6.5 1.1zM358.5 401c-1.3.5-1.4.9-.5.9.8 0 2.4-.4 3.5-.9 1.3-.5 1.4-.9.5-.9-.8 0-2.4.4-3.5.9zM222.5 403.4c1.7 1.4 3.4 2.6 3.9 2.6 1.1 0 1.1 0-3.4-2.9l-3.5-2.3 3 2.6zM246.7 404.1c.7.7 1.5 1 1.8.7.3-.3-.2-.9-1.2-1.2-1.4-.6-1.5-.5-.6.5zM346.5 404.5c-2.2.7-3.1 1.3-2 1.4 1.1 0 3.4-.6 5-1.4 3.8-1.7 2.2-1.7-3 0zM302.8 404.7c.7.3 1.6.2 1.9-.1.4-.3-.2-.6-1.3-.5-1.1 0-1.4.3-.6.6zM318 405c-1.3.9-1.3 1 0 1 .8 0 2.2-.5 3-1 1.3-.9 1.3-1 0-1-.8 0-2.2.5-3 1zM330.3 405.3c-5.2 2-5 2.8.3 1 2.7-.9 5.1-1.7 5.3-1.9.9-.8-2.5-.2-5.6.9zM253.5 406.5c2.2.8 5.4 1.3 7 1.3 1.9 0 .8-.5-3-1.4-7.5-1.6-9.3-1.6-4 .1zM292.8 405.7c-1.6.2-2.8.8-2.8 1.3 0 .7 6.5-.3 9.5-1.5 1.3-.4-3.1-.3-6.7.2zM311.5 407c-1.3.5-1.4.9-.5.9.8 0 2.4-.4 3.5-.9 1.3-.5 1.4-.9.5-.9-.8 0-2.4.4-3.5.9zM266 408.1c0 .5.9.9 2 .9s2-.2 2-.4-.9-.6-2-.9c-1.1-.3-2-.1-2 .4zM280.5 408c.3.5.8 1 1.1 1 .2 0 .4-.5.4-1 0-.6-.5-1-1.1-1-.5 0-.7.4-.4 1zM285.3 407.7c.9.2 2.3.2 3 0 .6-.3-.1-.5-1.8-.5-1.6 0-2.2.2-1.2.5zM272.8 408.7c1.2.2 3.2.2 4.5 0 1.2-.2.2-.4-2.3-.4s-3.5.2-2.2.4z"/></svg>